<svg width="37" height="36" viewBox="0 0 37 36" fill="none" xmlns="http://www.w3.org/2000/svg">
<path fill-rule="evenodd" clip-rule="evenodd" d="M1.10823 1.94434C1.13221 1.94434 1.15715 1.94815 1.18173 1.95576C1.278 1.98819 1.37295 2.02097 1.46678 2.0549C5.15381 3.39784 7.67598 6.98083 7.73567 10.9717L7.83449 17.6031L7.8348 17.6062C7.83857 17.7577 7.93136 17.8927 8.07105 17.9509V17.9515C8.10969 17.9676 8.16 17.9811 8.21775 17.9811C8.31403 17.9811 8.41282 17.9444 8.48797 17.8696L8.48828 17.87L16.0857 10.3238L16.0867 10.3228C16.1759 10.2333 16.2102 10.1116 16.196 10.0007L16.1954 9.99578L16.1945 9.99084L16.1849 9.94698C16.1567 9.84819 16.0885 9.76087 15.9906 9.71104L15.9909 9.71073C15.8609 9.64385 15.7645 9.5737 15.6898 9.49887L15.6895 9.49856L15.6475 9.45409C15.4433 9.22835 15.3327 8.93697 15.3362 8.62427V8.62088C15.3362 8.05387 14.8756 7.59217 14.3087 7.59217H14.2995C13.744 7.60836 13.2808 8.05844 13.2828 8.61872V8.61964C13.2848 8.90356 13.4034 9.16875 13.6114 9.36206L13.612 9.36268C13.6979 9.44216 13.7243 9.5604 13.6821 9.66688L13.6818 9.66749C13.6411 9.77087 13.5346 9.84414 13.4175 9.84414H11.9706C10.7608 9.8441 9.76622 8.96853 9.63959 7.82626L9.62909 7.7052C9.59386 7.09988 9.80183 6.50382 10.2081 6.05329C10.6427 5.57155 11.2663 5.29513 11.9184 5.29511H21.0974L21.1817 5.2315L21.2944 5.14688L21.3114 5.13391L21.3269 5.11877C22.2042 4.24839 23.3683 3.76951 24.6081 3.76951C25.8494 3.76954 27.014 4.24836 27.8897 5.11846C28.764 5.98711 29.2446 7.14209 29.2446 8.3732C29.2445 9.60425 28.7638 10.7589 27.8894 11.6282L25.6452 13.8561L25.6443 13.8574C25.5582 13.9437 25.5122 14.0739 25.5411 14.2076L25.5408 14.2079C25.541 14.2089 25.5412 14.2099 25.5414 14.211C25.5419 14.2129 25.5422 14.2149 25.5427 14.2168L25.543 14.2165C25.571 14.3352 25.6556 14.4402 25.7801 14.4871L31.2606 16.5957C33.2024 17.3422 34.8898 18.6088 36.1416 20.2578C36.1992 20.3351 36.2125 20.4381 36.179 20.5234L36.1787 20.5237C36.1476 20.6029 36.0841 20.663 36.0017 20.6895L35.9653 20.6988C35.2856 20.8254 34.5916 20.8894 33.9029 20.8894C32.5176 20.8894 31.1619 20.6374 29.8724 20.1417L22.9312 17.4719L22.9309 17.4722C22.8787 17.4516 22.8304 17.4459 22.7935 17.4459C22.6933 17.4459 22.5992 17.4856 22.5294 17.5519L22.5276 17.5537C22.4228 17.655 22.3826 17.8092 22.4312 17.9521L22.4309 17.9524L23.5319 21.2007C23.5871 21.3628 23.7385 21.4601 23.8951 21.4601C23.8966 21.4601 23.9102 21.46 23.9256 21.4588C23.9356 21.4581 23.9505 21.4561 23.9686 21.4523L23.9689 21.4527C24.0583 21.4351 24.147 21.4264 24.2345 21.4264C24.8329 21.4264 25.3833 21.8206 25.5714 22.3739C25.6906 22.7245 25.6654 23.0986 25.4997 23.4313C25.4581 23.5142 25.3988 23.6039 25.3129 23.7059C25.2307 23.8029 25.2103 23.9239 25.2301 24.0267L25.2304 24.0286C25.2548 24.1508 25.3353 24.2456 25.4352 24.2957L25.4373 24.297L25.8564 24.5029L25.9191 24.5357C26.2279 24.7069 26.4573 24.9818 26.5701 25.3176L26.5905 25.3846C26.6853 25.7205 26.6525 26.0725 26.4963 26.3859C26.4396 26.4984 26.3678 26.6038 26.2811 26.6996C26.1969 26.7921 26.1696 26.9123 26.1875 27.0202L26.1872 27.0205C26.1874 27.0218 26.1879 27.023 26.1881 27.0242C26.1885 27.0262 26.1887 27.0278 26.189 27.0298C26.2118 27.1523 26.2918 27.2504 26.3959 27.3015L26.8882 27.544C27.2286 27.7116 27.4815 28.0005 27.6019 28.3593C27.7213 28.7151 27.6946 29.0928 27.5281 29.4263C27.2997 29.8837 26.8571 30.1742 26.336 30.203C26.2165 30.2092 26.1044 30.2712 26.0371 30.3744C25.972 30.4738 25.957 30.5958 25.9939 30.7067L25.9945 30.7085L26.7866 33.0414C26.8254 33.1563 26.7861 33.2814 26.6853 33.3543C26.6363 33.3897 26.5786 33.4083 26.517 33.4083C26.4531 33.4083 26.3952 33.3892 26.3481 33.3546L26.3475 33.3539L25.6109 32.8147C24.9197 32.3076 24.1776 31.8576 23.404 31.4763C22.7121 31.1352 22.409 30.3339 22.6913 29.6613C22.7482 29.526 22.8298 29.3965 22.9355 29.2765L22.9352 29.2762C23.0147 29.1866 23.0475 29.0657 23.0251 28.9494L23.0245 28.9476C23.001 28.8301 22.9243 28.7321 22.82 28.6798L22.8182 28.6789L21.6851 28.1209C21.3442 27.9529 21.0922 27.6658 20.9714 27.3102C20.8511 26.9543 20.8771 26.5747 21.0452 26.2376C21.1006 26.1265 21.1729 26.021 21.2598 25.9242C21.3418 25.8341 21.3754 25.7097 21.3519 25.5916C21.3283 25.473 21.2504 25.3733 21.1425 25.321L20.6527 25.0798L20.6524 25.0795C20.3126 24.9124 20.0608 24.6252 19.9399 24.2692C19.8197 23.9131 19.8455 23.5333 20.0131 23.1975L20.0687 23.0969C20.2067 22.8688 20.4053 22.6866 20.6508 22.5657L20.653 22.5644L20.6552 22.5635C20.8086 22.4848 20.8985 22.3065 20.8528 22.1284L20.842 22.0929L20.1604 20.0815C20.1175 19.9543 20.0131 19.8635 19.8893 19.8329L19.8896 19.8326C19.8764 19.8293 19.8621 19.8263 19.8466 19.8242L19.7972 19.8211C19.6977 19.8211 19.6005 19.8599 19.5276 19.9323L9.24769 30.1415C8.37119 31.0117 7.20736 31.4899 5.9667 31.4899C4.7246 31.4899 3.56074 31.0115 2.68572 30.1415C1.80996 29.2714 1.32876 28.1166 1.32873 26.8871C1.32873 25.6568 1.81031 24.5018 2.68603 23.6324L3.13445 23.1861L3.11221 23.0292C2.12546 16.0754 1.34412 9.10975 0.808357 2.26984L0.807739 2.23185C0.812439 2.144 0.856426 2.06085 0.913358 2.01691L0.915211 2.01537C0.976624 1.96718 1.04657 1.94437 1.10823 1.94434ZM24.0019 29.3528C23.6577 29.3528 23.3483 29.5574 23.215 29.8747C23.0352 30.3025 23.2616 30.7824 23.6585 30.9784L23.8321 31.0652C24.2356 31.2702 24.6378 31.4976 25.0297 31.7425C25.091 31.7808 25.1611 31.8008 25.232 31.8008C25.3103 31.8008 25.394 31.7761 25.4658 31.7202L25.4661 31.7209C25.4689 31.7187 25.4713 31.716 25.4741 31.7138C25.4747 31.7132 25.4756 31.713 25.4763 31.7125L25.476 31.7122C25.5918 31.6169 25.6407 31.4641 25.6032 31.3209L25.5942 31.2916L25.37 30.6316C25.349 30.5629 25.3329 30.5127 25.3132 30.4615L25.3117 30.4578L25.3101 30.4537L25.2761 30.3765C25.0997 29.9943 24.8185 29.6901 24.4645 29.4917L24.4571 29.4874L24.4497 29.4837L24.3472 29.4334L24.3385 29.4291L24.3296 29.4253L24.2703 29.4022C24.2024 29.3778 24.1093 29.3528 24.0019 29.3528ZM24.6081 4.32756C23.5219 4.32756 22.4987 4.74837 21.7308 5.51191L3.08967 24.0243C2.32038 24.7885 1.89636 25.8061 1.89636 26.8871C1.89637 27.1986 1.93531 27.5184 2.01248 27.8367L2.01371 27.8411C2.04646 27.9777 2.15067 28.0823 2.28085 28.1196L2.2898 28.1221L2.29907 28.1243C2.30071 28.1246 2.31196 28.1274 2.3247 28.1295C2.33841 28.1318 2.35985 28.1344 2.38585 28.1344C2.48214 28.1344 2.58092 28.0977 2.65607 28.023L2.65638 28.0233L3.73728 26.9492C3.7909 26.896 3.86124 26.8667 3.93987 26.8667C4.00794 26.8667 4.0703 26.8891 4.12084 26.9303L4.14184 26.9492L5.91142 28.707C5.96542 28.7608 5.99387 28.8302 5.99388 28.904C5.99388 28.9784 5.96557 29.0471 5.91142 29.1011L4.83331 30.1724L4.83207 30.1736C4.73618 30.2699 4.69556 30.4124 4.73448 30.5492C4.77044 30.6754 4.87183 30.783 5.01366 30.8166V30.8172C5.33326 30.8939 5.65411 30.9327 5.9667 30.9327C7.05327 30.9327 8.07633 30.5126 8.84436 29.7484L27.4864 11.2354C28.2537 10.4725 28.6778 9.45531 28.6779 8.3732C28.6779 7.29166 28.2537 6.27421 27.4864 5.51129L27.4861 5.51098C26.7176 4.74838 25.6942 4.32759 24.6081 4.32756ZM3.93925 27.6981C3.84147 27.6981 3.74252 27.7362 3.66841 27.8105L2.71197 28.7601L2.71104 28.7614C2.57938 28.8934 2.56087 29.1014 2.66904 29.2549L2.6712 29.2577L2.67306 29.2604C2.80954 29.4455 2.9451 29.606 3.08843 29.7484C3.23324 29.8929 3.39753 30.0292 3.58595 30.1656L3.59058 30.169L3.59552 30.1721C3.6504 30.2088 3.72393 30.2382 3.81078 30.2382C3.9066 30.2382 4.00485 30.2009 4.07977 30.1258L4.08038 30.1264L5.03713 29.1761L5.03837 29.1752C5.10674 29.1066 5.15078 29.0107 5.15078 28.904C5.15077 28.7975 5.1067 28.7018 5.03837 28.6332L5.03713 28.632L4.21009 27.8105C4.13715 27.7374 4.03939 27.6981 3.93925 27.6981ZM22.3166 26.014C21.9937 26.0141 21.6999 26.1937 21.5542 26.4838L21.5535 26.4853C21.4531 26.6879 21.4362 26.9192 21.5091 27.1342L21.5094 27.1351C21.5826 27.3491 21.7358 27.5232 21.9396 27.6227L25.8784 29.5643L25.8818 29.5662C25.9965 29.621 26.1207 29.6502 26.2511 29.6502C26.5715 29.6502 26.8741 29.4718 27.0189 29.1814L27.0192 29.1811C27.1191 28.9795 27.1354 28.7488 27.0639 28.535L27.0328 28.4556C26.9517 28.2758 26.8107 28.1308 26.6325 28.0433L22.6925 26.1024C22.5752 26.0443 22.4478 26.014 22.3166 26.014ZM21.2858 22.9724C20.9618 22.9724 20.6676 23.153 20.5227 23.4437L20.5224 23.4443C20.4221 23.6464 20.405 23.8779 20.4785 24.0931C20.5511 24.3074 20.7046 24.4811 20.9059 24.5811L20.9068 24.5814L24.8475 26.523C24.9651 26.5814 25.0914 26.6088 25.2193 26.6088C25.54 26.6088 25.8418 26.4304 25.9861 26.1407L25.9864 26.141C26.0889 25.9377 26.1032 25.7067 26.0325 25.494L26.0321 25.493L26.001 25.414C25.9201 25.2343 25.7802 25.0903 25.6029 25.0023L25.6023 25.0017L21.661 23.0607L21.6561 23.0583L21.5684 23.0218C21.4789 22.99 21.3847 22.9724 21.2858 22.9724ZM21.5897 18.0417C21.4933 18.0417 21.3943 18.0783 21.3191 18.1531L20.5804 18.8878L20.5807 18.8882C20.4708 18.9962 20.4444 19.15 20.4859 19.2785L20.4865 19.2807L20.4875 19.2828L21.5319 22.3625L21.6372 22.4218C21.7651 22.4939 21.859 22.5347 21.9152 22.5623L24.0343 23.6061C24.069 23.6232 24.0995 23.6305 24.106 23.6321C24.1185 23.635 24.1296 23.637 24.1369 23.6382C24.1519 23.6407 24.1666 23.6424 24.1773 23.6435C24.1944 23.6452 24.2237 23.6478 24.2459 23.6478C24.335 23.6478 24.4231 23.6336 24.5081 23.6052C24.7203 23.5342 24.8918 23.3842 24.9902 23.1858C25.0772 23.0121 25.0991 22.8165 25.0559 22.6302L25.0334 22.5508C24.9194 22.2132 24.5932 21.9854 24.2391 21.9854C24.15 21.9854 24.0619 21.9993 23.9769 22.0277L23.976 22.028C23.8712 22.0634 23.7757 22.1183 23.6931 22.1895L23.6888 22.1932C23.6362 22.2402 23.57 22.2652 23.5013 22.2652C23.476 22.2652 23.4526 22.262 23.4321 22.2562L23.4294 22.2553L23.4266 22.2547C23.3336 22.2303 23.2609 22.1626 23.2305 22.0737L21.9519 18.302C21.9101 18.1784 21.8105 18.0892 21.6913 18.0562L21.6916 18.0559C21.6893 18.0552 21.6868 18.0549 21.6845 18.0543C21.682 18.0537 21.6796 18.0527 21.6771 18.0522L21.6768 18.0528C21.6638 18.0497 21.6512 18.0467 21.6388 18.0451L21.5897 18.0417ZM1.83891 2.84673C1.76344 2.84673 1.68684 2.8692 1.62088 2.91498L1.58197 2.94586C1.49637 3.0232 1.44657 3.13847 1.45659 3.26149C1.96329 9.45338 2.66723 15.7285 3.54858 21.9122L3.54889 21.9147L3.5492 21.9168C3.57116 22.0563 3.66827 22.1756 3.80676 22.2219L3.81603 22.225C3.84546 22.2339 3.88392 22.2417 3.92844 22.2417C4.02577 22.2417 4.12433 22.2039 4.19836 22.1302L7.17453 19.1744L7.26965 19.0802L7.26779 18.9462L7.16866 10.9812V10.9803C7.11732 7.51869 5.09199 4.34103 2.00198 2.88317L1.99981 2.88224L1.96028 2.86649C1.93357 2.85759 1.90644 2.85173 1.87937 2.84889L1.83891 2.84673ZM24.8839 14.7696C24.7866 14.7696 24.688 14.8072 24.614 14.8808L23.119 16.3663L23.1193 16.3666C23.0253 16.4594 22.9871 16.5912 23.0137 16.7168C23.0411 16.8476 23.1331 16.9502 23.2502 16.9957L23.2512 16.996L30.08 19.6229C31.3046 20.0934 32.5912 20.3319 33.9042 20.3319C34.1463 20.3319 34.3894 20.3243 34.6327 20.3072L34.633 20.3075C34.635 20.3074 34.6369 20.307 34.6389 20.3069L34.6386 20.3066C34.7934 20.2964 34.9145 20.1965 34.9668 20.0707L34.969 20.0657L34.9709 20.0611C35.0241 19.9199 34.9891 19.764 34.8881 19.659C33.8201 18.5485 32.4949 17.669 31.0537 17.1152L25.0214 14.7953L25.021 14.7956C24.9835 14.7808 24.9481 14.7735 24.9173 14.7709L24.8839 14.7696ZM11.9178 5.85162C11.4284 5.85162 10.9603 6.06043 10.6322 6.42233L10.6312 6.42357C10.3003 6.79246 10.1473 7.27069 10.202 7.76573L10.2023 7.76666C10.3001 8.63437 11.0852 9.28698 11.9706 9.28702H12.3545C12.4709 9.28698 12.5748 9.23415 12.6442 9.1536C12.7142 9.07224 12.7495 8.96244 12.734 8.85034L12.7334 8.84694L12.7205 8.73391C12.7175 8.69648 12.7161 8.65924 12.7161 8.62211V8.62088C12.7122 7.77474 13.4053 7.05982 14.2621 7.03505L14.3097 7.03474C15.19 7.03521 15.9029 7.74639 15.9029 8.6147C15.9029 8.79349 15.958 8.97006 16.0938 9.10759L16.095 9.10882C16.2112 9.22527 16.3617 9.28702 16.5258 9.28702H17.1005L17.1926 9.19622L19.926 6.50881L19.9282 6.50664C20.035 6.39943 20.071 6.23666 20.0116 6.09096H20.0122C19.9541 5.9473 19.8137 5.85165 19.6573 5.85162H11.9178Z" fill="#432624"/>
<path d="M3.52332 8.08813L4.5172 16.7846" stroke="#432624" stroke-width="0.632479" stroke-linecap="round"/>
<path fill-rule="evenodd" clip-rule="evenodd" d="M24.1712 11.5882L21.3724 8.80825C21.2653 8.70283 21.1106 8.64172 20.9479 8.64172C20.7846 8.64172 20.6299 8.70283 20.5234 8.80892L19.1428 10.1814C18.644 10.6676 18.3688 11.3162 18.3688 12.0085C18.3688 13.4206 19.5258 14.5688 20.9479 14.5688C21.6449 14.5688 22.2978 14.2982 22.7852 13.8054L24.1712 12.4295C24.2837 12.3167 24.3466 12.167 24.346 12.0085C24.346 11.8494 24.2837 11.7003 24.1712 11.5882Z" fill="#B8514B"/>
</svg>
