<svg width="125" height="68" viewBox="0 0 125 68" fill="none" xmlns="http://www.w3.org/2000/svg">
<path d="M34.668 31.1667V25.5C34.668 15.5834 40.3346 11.3334 48.8346 11.3334H77.168C85.668 11.3334 91.3346 15.5834 91.3346 25.5V42.5C91.3346 52.4167 85.668 56.6667 77.168 56.6667H63.0013" stroke="#009FFF" stroke-width="1.5" stroke-miterlimit="10" stroke-linecap="round" stroke-linejoin="round"/>
<path d="M63.0013 41.0833C66.9133 41.0833 70.0846 37.912 70.0846 34C70.0846 30.0879 66.9133 26.9166 63.0013 26.9166C59.0893 26.9166 55.918 30.0879 55.918 34C55.918 37.912 59.0893 41.0833 63.0013 41.0833Z" stroke="#009FFF" stroke-width="1.5" stroke-miterlimit="10" stroke-linecap="round" stroke-linejoin="round"/>
<path d="M81.418 26.9166V41.0833" stroke="#009FFF" stroke-width="1.5" stroke-miterlimit="10" stroke-linecap="round" stroke-linejoin="round"/>
<path d="M34.668 43.9166H49.798C51.6114 43.9166 53.0846 45.3899 53.0846 47.2032V50.83" stroke="#009FFF" stroke-width="1.5" stroke-miterlimit="10" stroke-linecap="round" stroke-linejoin="round"/>
<path d="M38.1246 40.4601L34.668 43.9167L38.1246 47.3733" stroke="#009FFF" stroke-width="1.5" stroke-miterlimit="10" stroke-linecap="round" stroke-linejoin="round"/>
<path d="M53.0846 58.8767H37.9546C36.1412 58.8767 34.668 57.4033 34.668 55.59V51.9634" stroke="#009FFF" stroke-width="1.5" stroke-miterlimit="10" stroke-linecap="round" stroke-linejoin="round"/>
<path d="M49.6328 62.3342L53.0894 58.8777L49.6328 55.4209" stroke="#009FFF" stroke-width="1.5" stroke-miterlimit="10" stroke-linecap="round" stroke-linejoin="round"/>
</svg>
