<svg width="125" height="68" viewBox="0 0 125 68" fill="none" xmlns="http://www.w3.org/2000/svg">
<path d="M81.4154 35.8417V46.325C81.4154 55.165 73.1704 62.3333 62.9987 62.3333C52.827 62.3333 44.582 55.165 44.582 46.325V35.8417C44.582 44.6817 52.827 51 62.9987 51C73.1704 51 81.4154 44.6817 81.4154 35.8417Z" stroke="#009FFF" stroke-width="1.5" stroke-linecap="round" stroke-linejoin="round"/>
<path d="M81.4154 21.675C81.4154 24.2533 80.707 26.6333 79.4604 28.6733C76.4287 33.66 70.1954 36.8333 62.9987 36.8333C55.802 36.8333 49.5687 33.66 46.537 28.6733C45.2904 26.6333 44.582 24.2533 44.582 21.675C44.582 17.255 46.6503 13.26 49.9653 10.37C53.3087 7.45163 57.8987 5.66663 62.9987 5.66663C68.0987 5.66663 72.6887 7.45163 76.032 10.3416C79.347 13.26 81.4154 17.255 81.4154 21.675Z" stroke="#009FFF" stroke-width="1.5" stroke-linecap="round" stroke-linejoin="round"/>
<path d="M81.4154 21.675V35.8416C81.4154 44.6816 73.1704 51 62.9987 51C52.827 51 44.582 44.6816 44.582 35.8416V21.675C44.582 12.835 52.827 5.66663 62.9987 5.66663C68.0987 5.66663 72.6887 7.45163 76.032 10.3416C79.347 13.26 81.4154 17.255 81.4154 21.675Z" stroke="#009FFF" stroke-width="1.5" stroke-linecap="round" stroke-linejoin="round"/>
</svg>
