<svg width="33" height="33" viewBox="0 0 33 33" fill="none" xmlns="http://www.w3.org/2000/svg">
<path fill-rule="evenodd" clip-rule="evenodd" d="M14.9692 18.0704C13.4092 16.5104 12.2332 14.7638 11.4518 12.9918C11.2865 12.6171 11.3838 12.1784 11.6732 11.8891L12.7652 10.7984C13.6598 9.90377 13.6598 8.63843 12.8785 7.8571L11.3132 6.29177C10.2718 5.25043 8.58383 5.25043 7.5425 6.29177L6.67316 7.1611C5.68516 8.1491 5.27316 9.57443 5.53983 10.9878C6.1985 14.4718 8.2225 18.2864 11.4878 21.5518C14.7532 24.8171 18.5678 26.8411 22.0518 27.4998C23.4652 27.7664 24.8905 27.3544 25.8785 26.3664L26.7465 25.4984C27.7878 24.4571 27.7878 22.7691 26.7465 21.7278L25.1825 20.1638C24.4012 19.3824 23.1345 19.3824 22.3545 20.1638L21.1505 21.3691C20.8612 21.6584 20.4225 21.7558 20.0478 21.5904C18.2758 20.8078 16.5292 19.6304 14.9692 18.0704Z" stroke="#009FFF" stroke-width="1.5" stroke-linecap="round" stroke-linejoin="round"/>
</svg>
