<svg width="32" height="32" viewBox="0 0 32 32" fill="none" xmlns="http://www.w3.org/2000/svg">
<path d="M18.5492 6H13.4492C11.6492 6 11.2492 6.90001 11.0192 8.01001L10.1992 11.93H21.7992L20.9792 8.01001C20.7492 6.90001 20.3492 6 18.5492 6Z" stroke="#009FFF" stroke-width="1.5" stroke-linecap="round" stroke-linejoin="round"/>
<path d="M23.2396 18.3199C23.3196 19.1699 22.6396 19.9 21.7696 19.9H20.4096C19.6296 19.9 19.5196 19.57 19.3796 19.15L19.2296 18.7199C19.0296 18.1299 18.8996 17.7299 17.8496 17.7299H14.1396C13.0996 17.7299 12.9396 18.1799 12.7596 18.7199L12.6096 19.15C12.4696 19.56 12.3596 19.9 11.5796 19.9H10.2196C9.34957 19.9 8.66957 19.1699 8.74957 18.3199L9.15957 13.9C9.25957 12.81 9.46956 11.9199 11.3696 11.9199H20.6196C22.5196 11.9199 22.7296 12.81 22.8296 13.9L23.2396 18.3199Z" stroke="#009FFF" stroke-width="1.5" stroke-linecap="round" stroke-linejoin="round"/>
<path d="M10.1997 9.75H9.46973" stroke="#009FFF" stroke-width="1.5" stroke-linecap="round" stroke-linejoin="round"/>
<path d="M22.5298 9.75H21.7998" stroke="#009FFF" stroke-width="1.5" stroke-linecap="round" stroke-linejoin="round"/>
<path d="M11.6494 14.8301H13.8194" stroke="#009FFF" stroke-width="1.5" stroke-linecap="round" stroke-linejoin="round"/>
<path d="M18.1797 14.8301H20.3497" stroke="#009FFF" stroke-width="1.5" stroke-linecap="round" stroke-linejoin="round"/>
<path d="M16 21V22" stroke="#009FFF" stroke-width="1.5" stroke-linecap="round" stroke-linejoin="round"/>
<path d="M16 25V26" stroke="#009FFF" stroke-width="1.5" stroke-linecap="round" stroke-linejoin="round"/>
<path d="M7 22L6 26" stroke="#009FFF" stroke-width="1.5" stroke-linecap="round" stroke-linejoin="round"/>
<path d="M25 22L26 26" stroke="#009FFF" stroke-width="1.5" stroke-linecap="round" stroke-linejoin="round"/>
</svg>
