<svg width="32" height="33" viewBox="0 0 32 33" fill="none" xmlns="http://www.w3.org/2000/svg">
<path d="M7.95865 9.37843L7.06931 5.37843H4.49731" stroke="#009FFF" stroke-width="1.5" stroke-linecap="round" stroke-linejoin="round"/>
<path fill-rule="evenodd" clip-rule="evenodd" d="M10.308 20.3251L7.95862 9.37843H24.836C25.6853 9.37843 26.3173 10.1611 26.14 10.9918L24.1373 20.3251C24.0053 20.9398 23.4626 21.3784 22.8333 21.3784H11.6106C10.9826 21.3784 10.44 20.9398 10.308 20.3251Z" stroke="#009FFF" stroke-width="1.5" stroke-linecap="round" stroke-linejoin="round"/>
<path d="M23.2867 26.2118C23.0107 26.2118 22.7867 26.4358 22.7894 26.7118C22.7894 26.9878 23.0134 27.2118 23.2894 27.2118C23.5654 27.2118 23.7894 26.9878 23.7894 26.7118C23.788 26.4358 23.564 26.2118 23.2867 26.2118" stroke="#009FFF" stroke-width="1.5" stroke-linecap="round" stroke-linejoin="round"/>
<path d="M11.808 26.2118C11.532 26.2118 11.308 26.4358 11.3107 26.7118C11.3093 26.9878 11.5333 27.2118 11.8093 27.2118C12.0853 27.2118 12.3093 26.9878 12.3093 26.7118C12.3093 26.4358 12.0853 26.2118 11.808 26.2118" stroke="#009FFF" stroke-width="1.5" stroke-linecap="round" stroke-linejoin="round"/>
</svg>
