<svg width="24" height="25" viewBox="0 0 24 25" fill="none" xmlns="http://www.w3.org/2000/svg">
<path d="M16 13.6275V17.8275C16 21.3275 14.6 22.7275 11.1 22.7275H6.9C3.4 22.7275 2 21.3275 2 17.8275V13.6275C2 10.1275 3.4 8.72751 6.9 8.72751H11.1C14.6 8.72751 16 10.1275 16 13.6275Z" stroke="#009FFF" stroke-width="1.5" stroke-linecap="round" stroke-linejoin="round"/>
<path d="M22 7.62751V11.8275C22 15.3275 20.6 16.7275 17.1 16.7275H16V13.6275C16 10.1275 14.6 8.72751 11.1 8.72751H8V7.62751C8 4.12751 9.4 2.72751 12.9 2.72751H17.1C20.6 2.72751 22 4.12751 22 7.62751Z" stroke="#009FFF" stroke-width="1.5" stroke-linecap="round" stroke-linejoin="round"/>
</svg>
