<svg width="20" height="20" viewBox="0 0 20 20" fill="none" xmlns="http://www.w3.org/2000/svg">
<path fill-rule="evenodd" clip-rule="evenodd" d="M7.81202 4.29001C7.75869 4.51876 7.5591 4.64022 7.32851 4.58418C7.10557 4.53002 6.97913 4.33126 7.02892 4.11271C7.07974 3.88836 7.30412 3.74918 7.52514 3.80502C7.73328 3.85752 7.86202 4.07521 7.81202 4.29001ZM15.428 13.5083C14.9753 14.4525 14.2172 15.0625 13.2836 15.4831C12.5859 15.7977 11.8514 16.0044 11.1195 16.2192C10.3745 16.4379 9.62764 16.6529 8.93661 17.0189C8.44516 17.2794 8.00972 17.6079 7.68328 18.0667C7.66141 18.0973 7.63139 18.1225 7.601 18.1546C7.22641 17.2062 7.80392 15.4198 9.44911 14.9341C9.01432 14.5192 8.76182 14.0194 8.73682 13.4229C8.71223 12.8348 8.89451 12.301 9.21827 11.7927C9.36346 11.9494 9.50471 12.099 9.64306 12.251C10.112 12.7662 10.622 13.2371 11.1872 13.644C11.5633 13.915 11.967 14.141 12.4255 14.2494C13.1545 14.4214 13.783 14.1642 14.1786 13.531C14.4647 13.0735 14.5884 12.5696 14.6167 12.0356C14.6522 11.3604 14.4593 10.7369 14.193 10.1306C13.8376 9.32085 13.347 8.59458 12.8001 7.90398C12.1757 7.11562 11.4826 6.39312 10.6928 5.73398C10.8172 7.30669 10.9418 8.87957 11.0699 10.4971C11.4264 9.94208 11.7628 9.41835 12.1053 8.885C12.1393 8.9146 12.1663 8.93023 12.1824 8.95375C12.6959 9.70544 13.1438 10.4906 13.3999 11.3715C13.4884 11.6761 13.5411 11.9873 13.4886 12.305C13.3997 12.841 13.0047 13.2119 12.3836 12.9506C11.8682 12.734 11.4374 12.391 11.0289 12.02C9.81868 10.9212 8.78743 9.66272 7.79599 8.36958C7.73785 8.29354 7.68015 8.2169 7.58723 8.14584C7.5112 8.83582 7.43517 9.52604 7.35725 10.2331C6.83057 10.025 6.45371 9.70145 6.40557 9.13582C6.34849 8.4646 6.6714 7.97792 7.28538 7.62647C7.23349 7.56064 7.17851 7.49876 7.13246 7.43063C6.62349 6.67791 6.15955 5.90022 5.80976 5.05877C5.64039 4.6519 5.5031 4.23586 5.45914 3.79461C5.45039 3.70625 5.4383 3.61501 5.45269 3.52919C5.461 3.4794 5.50955 3.41961 5.55602 3.39564C5.9906 3.17168 6.45935 3.10939 6.9408 3.12481C7.49829 3.14272 8.03472 3.26564 8.56243 3.44293C9.23307 3.66855 9.87033 3.96896 10.4649 4.34606C10.9934 4.68085 11.503 5.04878 11.9982 5.43127C12.5909 5.88896 13.1211 6.41812 13.6132 6.98313C14.3528 7.83211 14.9828 8.7521 15.3969 9.80667C15.637 10.4177 15.7991 11.0479 15.8108 11.7085C15.8221 12.3373 15.7012 12.9383 15.428 13.5083ZM9.98077 1.89073e-05C4.45811 0.0106439 -0.0103871 4.49647 1.81351e-05 10.0192C0.0106637 15.5421 4.49623 20.0106 10.0191 20C15.5419 19.9894 20.0103 15.5038 20 9.98085C19.9893 4.45815 15.5036 -0.0106061 9.98077 1.89073e-05Z" fill="white"/>
</svg>
