<svg width="16" height="16" viewBox="0 0 16 16" fill="none" xmlns="http://www.w3.org/2000/svg">
<path fill-rule="evenodd" clip-rule="evenodd" d="M6.85902 4.21751C6.81902 4.38907 6.66933 4.48017 6.49638 4.43813C6.32917 4.39752 6.23434 4.24844 6.27169 4.08453C6.30981 3.91627 6.47809 3.81188 6.64386 3.85376C6.79996 3.89314 6.89652 4.05641 6.85902 4.21751ZM12.571 11.1312C12.2315 11.8394 11.6629 12.2969 10.9627 12.6123C10.4395 12.8483 9.88853 13.0033 9.33963 13.1644C8.78089 13.3284 8.22073 13.4897 7.70246 13.7642C7.33387 13.9595 7.00729 14.2059 6.76246 14.55C6.74605 14.573 6.72354 14.5919 6.70075 14.6159C6.41981 13.9047 6.85294 12.5648 8.08683 12.2006C7.76074 11.8894 7.57136 11.5145 7.55261 11.0672C7.53417 10.6261 7.67088 10.2258 7.9137 9.84453C8.0226 9.96203 8.12853 10.0742 8.2323 10.1883C8.58401 10.5747 8.96651 10.9278 9.39039 11.233C9.67244 11.4362 9.97525 11.6058 10.3191 11.687C10.8658 11.8161 11.3372 11.6231 11.634 11.1483C11.8485 10.8051 11.9413 10.4272 11.9626 10.0267C11.9891 9.52032 11.8444 9.05265 11.6447 8.59796C11.3782 7.99064 11.0102 7.44593 10.6001 6.92799C10.1318 6.33671 9.61197 5.79484 9.01962 5.30049C9.1129 6.48002 9.20634 7.65968 9.30244 8.87282C9.56978 8.45656 9.8221 8.06376 10.079 7.66375C10.1045 7.68595 10.1248 7.69767 10.1368 7.71531C10.522 8.27908 10.8579 8.86798 11.0499 9.52859C11.1163 9.75704 11.1558 9.99047 11.1165 10.2288C11.0498 10.6308 10.7535 10.9089 10.2877 10.713C9.90117 10.5505 9.57805 10.2933 9.27166 10.015C8.36401 9.19093 7.59058 8.24704 6.84699 7.27718C6.80339 7.22016 6.76012 7.16267 6.69042 7.10938C6.6334 7.62687 6.57638 8.14453 6.51794 8.67484C6.12293 8.51876 5.84029 8.27609 5.80418 7.85187C5.76137 7.34845 6.00355 6.98344 6.46403 6.71985C6.42512 6.67048 6.38388 6.62407 6.34934 6.57297C5.96762 6.00843 5.61966 5.42517 5.35732 4.79408C5.23029 4.48892 5.12732 4.17689 5.09436 3.84596C5.08779 3.77969 5.07872 3.71126 5.08952 3.64689C5.09575 3.60955 5.13217 3.56471 5.16701 3.54673C5.49295 3.37876 5.84451 3.33204 6.2056 3.3436C6.62371 3.35704 7.02604 3.44923 7.42182 3.5822C7.9248 3.75141 8.40275 3.97672 8.84868 4.25954C9.24508 4.51064 9.62726 4.78658 9.99868 5.07345C10.4432 5.41672 10.8409 5.81359 11.2099 6.23735C11.7646 6.87408 12.2371 7.56407 12.5477 8.35501C12.7278 8.81328 12.8493 9.28594 12.8581 9.78141C12.8666 10.253 12.7759 10.7037 12.571 11.1312ZM8.48558 1.00001C4.34359 1.00798 0.99221 4.37235 1.00001 8.51438C1.008 12.6566 4.37217 16.008 8.51432 16C12.6564 15.992 16.0077 12.6278 16 8.48564C15.992 4.34361 12.6277 0.992045 8.48558 1.00001Z" fill="#CF301B"/>
</svg>
