<svg width="28" height="28" viewBox="0 0 28 28" fill="none" xmlns="http://www.w3.org/2000/svg">
<path d="M9.48047 20.35L12.5805 22.75C12.9805 23.15 13.8805 23.35 14.4805 23.35H18.2805C19.4805 23.35 20.7805 22.45 21.0805 21.25L23.4805 13.95C23.9805 12.55 23.0805 11.35 21.5805 11.35H17.5805C16.9805 11.35 16.4805 10.85 16.5805 10.15L17.0805 6.94997C17.2805 6.04997 16.6805 5.04997 15.7805 4.74997C14.9805 4.44997 13.9805 4.84997 13.5805 5.44997L9.48047 11.55" stroke="#009FFF" stroke-width="1.5" stroke-miterlimit="10"/>
<path d="M4.37988 20.35V10.55C4.37988 9.15002 4.97988 8.65002 6.37988 8.65002H7.37988C8.77988 8.65002 9.37988 9.15002 9.37988 10.55V20.35C9.37988 21.75 8.77988 22.25 7.37988 22.25H6.37988C4.97988 22.25 4.37988 21.75 4.37988 20.35Z" stroke="#009FFF" stroke-width="1.5" stroke-linecap="round" stroke-linejoin="round"/>
</svg>
