<svg width="24" height="25" viewBox="0 0 24 25" fill="none" xmlns="http://www.w3.org/2000/svg">
<path d="M21.0037 12.5346C21.0037 17.5073 16.9726 21.5384 12 21.5384C7.02737 21.5384 2.99625 17.5073 2.99625 12.5346C2.99625 7.56198 7.02737 3.53087 12 3.53087" stroke="#009FFF" stroke-width="1.5" stroke-linecap="round" stroke-linejoin="round"/>
<path fill-rule="evenodd" clip-rule="evenodd" d="M18.3426 2.92261C18.4745 2.6811 18.7277 2.53087 19.0029 2.53087C19.2781 2.53087 19.5313 2.6811 19.6632 2.92261L20.2464 3.98805C20.3156 4.11479 20.4198 4.21897 20.5466 4.28818L21.612 4.87042C21.854 5.00215 22.0047 5.25565 22.0047 5.5312C22.0047 5.80674 21.854 6.06024 21.612 6.19197L20.5466 6.77521C20.4195 6.84401 20.3152 6.94829 20.2464 7.07534L19.6632 8.13978C19.5313 8.38129 19.2781 8.53152 19.0029 8.53152C18.7277 8.53152 18.4745 8.38129 18.3426 8.13978L17.7594 7.07434C17.6906 6.94729 17.5863 6.84301 17.4593 6.77421L16.3938 6.19197C16.1518 6.06024 16.0012 5.80674 16.0012 5.5312C16.0012 5.25565 16.1518 5.00215 16.3938 4.87042L17.4593 4.28818C17.586 4.21897 17.6902 4.11479 17.7594 3.98805L18.3426 2.92261Z" stroke="#009FFF" stroke-width="1.5"/>
<path d="M8.99875 9.86351V10.8639" stroke="#009FFF" stroke-width="1.5" stroke-linecap="round" stroke-linejoin="round"/>
<path d="M15.0012 9.86351V10.8639" stroke="#009FFF" stroke-width="1.5" stroke-linecap="round" stroke-linejoin="round"/>
<path d="M15.2433 15.1937C13.452 16.9837 10.549 16.9837 8.75765 15.1937" stroke="#009FFF" stroke-width="1.5" stroke-linecap="round" stroke-linejoin="round"/>
</svg>
