<svg width="32" height="32" viewBox="0 0 32 32" fill="none" xmlns="http://www.w3.org/2000/svg">
<path d="M19.0487 19H21.5577C22.4187 19 23.1827 19.551 23.4547 20.368L24.1217 22.368C24.5537 23.663 23.5897 25 22.2247 25H9.77473C8.40973 25 7.44573 23.663 7.87773 22.368L8.54473 20.368C8.81573 19.551 9.58073 19 10.4417 19H12.9517" stroke="#009FFF" stroke-width="1.5" stroke-linecap="round" stroke-linejoin="round"/>
<path fill-rule="evenodd" clip-rule="evenodd" d="M16 22C16 22 10 17.208 10 12.833C10 9.612 12.686 7 16 7C19.314 7 22 9.612 22 12.833C22 17.208 16 22 16 22Z" stroke="#009FFF" stroke-width="1.5" stroke-linecap="round" stroke-linejoin="round"/>
<path d="M17.4142 11.5858C18.1953 12.3668 18.1953 13.6332 17.4142 14.4142C16.6332 15.1953 15.3668 15.1953 14.5858 14.4142C13.8047 13.6332 13.8047 12.3668 14.5858 11.5858C15.3668 10.8047 16.6332 10.8047 17.4142 11.5858" stroke="#009FFF" stroke-width="1.5" stroke-linecap="round" stroke-linejoin="round"/>
</svg>
