<svg width="24" height="25" viewBox="0 0 24 25" fill="none" xmlns="http://www.w3.org/2000/svg">
<path d="M15.049 15.0105H17.558C18.419 15.0105 19.183 15.5615 19.455 16.3785L20.122 18.3785C20.554 19.6735 19.59 21.0105 18.225 21.0105H5.77497C4.40997 21.0105 3.44597 19.6735 3.87797 18.3785L4.54497 16.3785C4.81597 15.5615 5.58097 15.0105 6.44197 15.0105H8.95197" stroke="white" stroke-width="1.5" stroke-linecap="round" stroke-linejoin="round"/>
<path fill-rule="evenodd" clip-rule="evenodd" d="M12 18.0105C12 18.0105 6 13.2185 6 8.8435C6 5.6225 8.686 3.0105 12 3.0105C15.314 3.0105 18 5.6225 18 8.8435C18 13.2185 12 18.0105 12 18.0105Z" stroke="white" stroke-width="1.5" stroke-linecap="round" stroke-linejoin="round"/>
<path d="M13.4142 7.59628C14.1953 8.37733 14.1953 9.64366 13.4142 10.4247C12.6332 11.2058 11.3668 11.2058 10.5858 10.4247C9.80474 9.64367 9.80474 8.37733 10.5858 7.59628C11.3668 6.81524 12.6332 6.81524 13.4142 7.59628" stroke="white" stroke-width="1.5" stroke-linecap="round" stroke-linejoin="round"/>
</svg>
