<svg width="25" height="25" viewBox="0 0 25 25" fill="none" xmlns="http://www.w3.org/2000/svg">
<path fill-rule="evenodd" clip-rule="evenodd" d="M9.02822 20.2446H6.69322C5.48922 20.2446 4.51222 19.2686 4.51222 18.0636V16.6316C4.51222 16.0536 4.28222 15.4986 3.87322 15.0896L2.86022 14.0766C2.00822 13.2246 2.00822 11.8446 2.86022 10.9926L3.87322 9.97962C4.28222 9.57062 4.51222 9.01661 4.51222 8.43761V7.00562C4.51222 5.80162 5.48822 4.82462 6.69322 4.82462H8.12522C8.70322 4.82462 9.25822 4.59462 9.66722 4.18562L10.6802 3.17262C11.5322 2.32062 12.9122 2.32062 13.7642 3.17262L14.7772 4.18562C15.1862 4.59462 15.7412 4.82462 16.3192 4.82462H17.7512C18.9552 4.82462 19.9322 5.80062 19.9322 7.00562V8.43761C19.9322 9.01561 20.1622 9.57062 20.5712 9.97962L21.5842 10.9926C22.4362 11.8446 22.4362 13.2246 21.5842 14.0766L20.5712 15.0896C20.1622 15.4986 19.9322 16.0536 19.9322 16.6316V18.0636C19.9322 19.2676 18.9562 20.2446 17.7512 20.2446H16.3192C15.7412 20.2446 15.1862 20.4746 14.7772 20.8836L13.7642 21.8966C12.9122 22.7486 11.5322 22.7486 10.6802 21.8966L9.02822 20.2446Z" stroke="#CF301B" stroke-width="1.5" stroke-linecap="round" stroke-linejoin="round"/>
<path d="M9.22223 15.5346L15.2222 9.53462" stroke="#CF301B" stroke-width="1.5" stroke-linecap="round" stroke-linejoin="round"/>
<path d="M9.47123 9.53462C9.33323 9.53462 9.22123 9.64662 9.22223 9.78462C9.22223 9.92262 9.33423 10.0346 9.47223 10.0346C9.61023 10.0346 9.72223 9.92262 9.72223 9.78462C9.72223 9.64662 9.61023 9.53462 9.47123 9.53462" stroke="#CF301B" stroke-width="1.5" stroke-linecap="round" stroke-linejoin="round"/>
<path d="M14.9712 15.0346C14.8332 15.0346 14.7212 15.1466 14.7222 15.2846C14.7222 15.4226 14.8342 15.5346 14.9722 15.5346C15.1102 15.5346 15.2222 15.4226 15.2222 15.2846C15.2222 15.1466 15.1102 15.0346 14.9712 15.0346" stroke="#CF301B" stroke-width="1.5" stroke-linecap="round" stroke-linejoin="round"/>
</svg>
