<svg width="76" height="71" viewBox="0 0 76 71" fill="none" xmlns="http://www.w3.org/2000/svg">
<path d="M17.2559 34.2921C12.3849 34.2921 8.32567 32.9282 5.07831 30.2005C1.89589 27.4727 0.304688 23.1212 0.304688 17.1461C0.304688 11.1709 1.89589 6.81946 5.07831 4.09167C8.32567 1.36389 12.3849 0 17.2559 0C22.1269 0 26.1537 1.36389 29.3361 4.09167C32.5185 6.81946 34.1097 11.1709 34.1097 17.1461C34.1097 23.1212 32.5185 27.4727 29.3361 30.2005C26.1537 32.9282 22.1269 34.2921 17.2559 34.2921ZM17.2559 25.9139C18.9445 25.9139 20.211 25.232 21.0553 23.8681C21.8996 22.4393 22.3218 20.1986 22.3218 17.1461C22.3218 14.0935 21.8996 11.8853 21.0553 10.5215C20.211 9.09261 18.9445 8.37819 17.2559 8.37819C15.6322 8.37819 14.3658 9.09261 13.4565 10.5215C12.6122 11.8853 12.19 14.0935 12.19 17.1461C12.19 20.1986 12.6122 22.4393 13.4565 23.8681C14.3658 25.232 15.6322 25.9139 17.2559 25.9139ZM59.1469 70.7275C54.2758 70.7275 50.2166 69.3636 46.9693 66.6358C43.7868 63.9081 42.1956 59.5566 42.1956 53.5814C42.1956 47.6063 43.7868 43.2548 46.9693 40.5271C50.2166 37.7993 54.2758 36.4354 59.1469 36.4354C64.0179 36.4354 68.0446 37.7993 71.227 40.5271C74.4094 43.2548 76.0006 47.6063 76.0006 53.5814C76.0006 59.5566 74.4094 63.9081 71.227 66.6358C68.0446 69.3636 64.0179 70.7275 59.1469 70.7275ZM59.1469 62.3493C60.8355 62.3493 62.102 61.6674 62.9463 60.3035C63.7906 58.8746 64.2127 56.634 64.2127 53.5814C64.2127 50.5289 63.7906 48.3207 62.9463 46.9568C62.102 45.528 60.8355 44.8136 59.1469 44.8136C57.5232 44.8136 56.2567 45.528 55.3474 46.9568C54.5031 48.3207 54.081 50.5289 54.081 53.5814C54.081 56.634 54.5031 58.8746 55.3474 60.3035C56.2567 61.6674 57.5232 62.3493 59.1469 62.3493ZM10.9236 69.9481L55.7371 0.779368H65.4792L20.6656 69.9481H10.9236Z" fill="#EDE8E8"/>
</svg>
