<svg width="124" height="68" viewBox="0 0 124 68" fill="none" xmlns="http://www.w3.org/2000/svg">
<path d="M36.9844 21.08L62.0027 35.5583L86.851 21.1649" stroke="#009FFF" stroke-width="1.5" stroke-linecap="round" stroke-linejoin="round"/>
<path d="M62.0039 61.2283V35.53" stroke="#009FFF" stroke-width="1.5" stroke-linecap="round" stroke-linejoin="round"/>
<path d="M56.1367 7.02669L41.0067 15.4418C37.5784 17.3401 34.7734 22.1001 34.7734 26.0101V42.0185C34.7734 45.9285 37.5784 50.6884 41.0067 52.5867L56.1367 61.0018C59.3667 62.7868 64.665 62.7868 67.895 61.0018L83.0251 52.5867C86.4534 50.6884 89.2584 45.9285 89.2584 42.0185V26.0101C89.2584 22.1001 86.4534 17.3401 83.0251 15.4418L67.895 7.02669C64.6367 5.21335 59.3667 5.21335 56.1367 7.02669Z" stroke="#009FFF" stroke-width="1.5" stroke-linecap="round" stroke-linejoin="round"/>
<path d="M76.1656 37.5133V27.1434L49.2773 11.6166" stroke="#009FFF" stroke-width="1.5" stroke-linecap="round" stroke-linejoin="round"/>
</svg>
