<svg width="37" height="36" viewBox="0 0 37 36" fill="none" xmlns="http://www.w3.org/2000/svg">
<g clip-path="url(#clip0_1250_55545)">
<circle cx="13.048" cy="4.15272" r="2.6371" stroke="#432624" stroke-width="0.632479" stroke-linecap="round"/>
<path d="M13.0874 6.8512L13.0874 26.5672M21.904 20.0934C21.904 20.0934 21.904 27.4143 21.904 29.1462C21.904 30.878 21.5576 33.7119 17.6531 33.7119C14.9689 33.7119 13.7678 32.2733 13.3134 30.8796" stroke="#432624" stroke-width="0.632479" stroke-linecap="round"/>
<path d="M23.6075 0.967238C24.7829 0.873205 25.812 1.74981 25.906 2.92521C25.9657 3.67109 25.8942 5.49843 25.4134 8.19093C24.7395 11.9648 22.2884 15.9421 19.3557 18.0101C18.0603 18.9235 16.3124 19.7284 14.8383 20.3738C13.2248 21.0802 12.002 21.574 11.3178 21.965C10.2388 22.5816 9.73597 23.4145 9.82711 24.5083C9.90901 25.4911 10.5586 26.371 12.1385 26.6407C12.7434 26.744 13.3528 26.5993 13.9836 26.3011C14.2962 26.1533 14.5844 25.9821 14.8644 25.8066C15.0393 25.697 15.8183 25.2492 15.8183 25.2492C15.8183 25.2492 16.8481 24.6335 18.0247 24.3191C19.3533 23.964 21.064 23.8587 23.2353 24.3888C25.5528 24.9547 27.3967 26.3222 28.7237 27.7345C30.0435 29.1391 30.9786 30.7211 31.4344 31.962C31.841 33.0688 31.2733 34.2957 30.1665 34.7023C29.0596 35.1089 27.8327 34.5412 27.4261 33.4343C27.1827 32.7716 26.5675 31.6757 25.6117 30.6584C24.663 29.6488 23.5058 28.8505 22.2224 28.5371C20.7143 28.1689 19.732 28.2828 19.1271 28.4444C18.3704 28.6466 17.5853 29.1365 17.5853 29.1365C17.5853 29.1365 17.5668 29.1524 17.132 29.4249C16.8022 29.6315 16.3477 29.9066 15.8085 30.1616C14.7355 30.6688 13.2041 31.1546 11.4199 30.85C8.22133 30.3039 5.83947 28.0758 5.57172 24.863C5.31323 21.7611 7.01489 19.5056 9.19917 18.2575C10.1465 17.7161 11.7615 17.0594 13.1258 16.4621C14.6293 15.8039 15.9991 15.152 16.8949 14.5203C18.8398 13.1489 20.7182 10.193 21.2098 7.44025C21.4314 6.19924 21.5484 5.2094 21.6057 4.48925C21.6344 4.12895 21.6478 3.84076 21.6523 3.62613C21.6545 3.5189 21.6545 3.43356 21.6533 3.36946C21.6528 3.3376 21.6519 3.31266 21.6511 3.29426C21.6507 3.28516 21.6503 3.27818 21.65 3.2732C21.6499 3.27074 21.6498 3.26885 21.6497 3.26757C21.6496 3.26647 21.6495 3.26576 21.6495 3.26576C21.5555 2.09037 22.4321 1.06129 23.6075 0.967238Z" stroke="#432624" stroke-width="0.632479" stroke-linecap="round"/>
<path d="M20.025 18.0022C19.3726 18.1395 15.4079 15.2965 16.0762 14.6543C16.2348 14.5019 16.7792 14.0201 16.7792 14.0201C16.7792 14.0201 17.7072 13.2379 18.6515 12.079C19.5958 10.9201 20.0264 9.50371 20.2839 8.98866C20.5414 8.4736 20.8834 8.51652 21.5702 8.98866C22.2569 9.46079 25.1144 10.9051 25.0285 11.1626C24.9427 11.4201 24.4888 12.5941 23.5446 14.2251C22.6003 15.8561 20.8405 17.8305 20.025 18.0022Z" fill="#B8514B"/>
<path d="M20.1125 21.7779L21.904 19.9865L23.6955 21.7779" stroke="#432624" stroke-width="0.632479" stroke-linecap="square"/>
</g>
<defs>
<clipPath id="clip0_1250_55545">
<rect width="37" height="35.8438" fill="white"/>
</clipPath>
</defs>
</svg>
