<svg width="28" height="28" viewBox="0 0 28 28" fill="none" xmlns="http://www.w3.org/2000/svg">
<path d="M20.7458 8.93404L19.7559 7.7824C18.9166 6.90083 17.9066 6.19925 16.7875 5.72037C15.6684 5.24149 14.4636 4.99532 13.2464 4.99683C8.27802 4.99683 4.24707 9.02778 4.24707 13.9962C4.24707 18.9645 8.27802 22.9955 13.2464 22.9955C15.1077 22.9954 16.9231 22.4184 18.443 21.344C19.9629 20.2696 21.1124 18.7505 21.7334 16.9959" stroke="#009FFF" stroke-width="1.5" stroke-linecap="round" stroke-linejoin="round"/>
<path d="M24.6847 6.75118V11.9342C24.6847 12.1331 24.6057 12.3239 24.4651 12.4645C24.3244 12.6052 24.1337 12.6842 23.9348 12.6842H18.7517C18.0833 12.6842 17.7487 11.8766 18.2212 11.4041L23.4047 6.22059C23.8771 5.74719 24.6847 6.08279 24.6847 6.75118Z" stroke="#009FFF" stroke-width="1.5" stroke-linecap="round" stroke-linejoin="round"/>
</svg>
