<svg width="124" height="68" viewBox="0 0 124 68" fill="none" xmlns="http://www.w3.org/2000/svg">
<path d="M70.5013 5.66669V34C70.5013 37.1167 67.9513 39.6667 64.8346 39.6667H33.668V21.59C35.7363 24.055 38.9097 25.585 42.423 25.5C45.2847 25.4434 47.863 24.3384 49.7896 22.4967C50.668 21.76 51.4047 20.825 51.9714 19.805C52.9914 18.0767 53.558 16.0366 53.5013 13.9116C53.4163 10.5966 51.943 7.67835 49.648 5.66669H70.5013Z" stroke="#009FFF" stroke-width="1.5" stroke-linecap="round" stroke-linejoin="round"/>
<path d="M90.3346 39.6667V48.1667C90.3346 52.87 86.538 56.6667 81.8346 56.6667H79.0013C79.0013 53.55 76.4513 51 73.3346 51C70.218 51 67.668 53.55 67.668 56.6667H56.3346C56.3346 53.55 53.7846 51 50.668 51C47.5513 51 45.0013 53.55 45.0013 56.6667H42.168C37.4646 56.6667 33.668 52.87 33.668 48.1667V39.6667H64.8346C67.9513 39.6667 70.5013 37.1167 70.5013 34V14.1667H75.7147C77.7547 14.1667 79.6247 15.2717 80.6447 17.0284L85.4896 25.5H81.8346C80.2763 25.5 79.0013 26.775 79.0013 28.3334V36.8334C79.0013 38.3917 80.2763 39.6667 81.8346 39.6667H90.3346Z" stroke="#009FFF" stroke-width="1.5" stroke-linecap="round" stroke-linejoin="round"/>
<path d="M50.6667 62.3333C53.7963 62.3333 56.3333 59.7963 56.3333 56.6667C56.3333 53.5371 53.7963 51 50.6667 51C47.5371 51 45 53.5371 45 56.6667C45 59.7963 47.5371 62.3333 50.6667 62.3333Z" stroke="#009FFF" stroke-width="1.5" stroke-linecap="round" stroke-linejoin="round"/>
<path d="M73.3346 62.3333C76.4642 62.3333 79.0013 59.7963 79.0013 56.6667C79.0013 53.5371 76.4642 51 73.3346 51C70.205 51 67.668 53.5371 67.668 56.6667C67.668 59.7963 70.205 62.3333 73.3346 62.3333Z" stroke="#009FFF" stroke-width="1.5" stroke-linecap="round" stroke-linejoin="round"/>
<path d="M90.3333 34V39.6667H81.8333C80.275 39.6667 79 38.3917 79 36.8333V28.3333C79 26.775 80.275 25.5 81.8333 25.5H85.4883L90.3333 34Z" stroke="#009FFF" stroke-width="1.5" stroke-linecap="round" stroke-linejoin="round"/>
<path d="M53.498 13.9116C53.5547 16.0366 52.9881 18.0767 51.9681 19.805C51.4014 20.825 50.6647 21.76 49.7864 22.4967C47.8597 24.3384 45.2815 25.4434 42.4198 25.5C38.9065 25.585 35.733 24.055 33.6647 21.59C33.268 21.165 32.9281 20.6834 32.6164 20.2017C31.5114 18.53 30.888 16.5468 30.8314 14.4218C30.7464 10.8518 32.333 7.59335 34.883 5.46835C36.8097 3.88168 39.2463 2.89004 41.9096 2.83337C44.8846 2.7767 47.6048 3.85337 49.6448 5.6667C51.9398 7.67837 53.413 10.5966 53.498 13.9116Z" stroke="#009FFF" stroke-width="1.5" stroke-miterlimit="10" stroke-linecap="round" stroke-linejoin="round"/>
<path d="M37.7461 14.2517L40.6078 16.9716L46.5294 11.2482" stroke="#009FFF" stroke-width="1.5" stroke-linecap="round" stroke-linejoin="round"/>
</svg>
