<svg width="32" height="33" viewBox="0 0 32 33" fill="none" xmlns="http://www.w3.org/2000/svg">
<path d="M7.95865 9.37793L7.06931 5.37793H4.49731" stroke="#009FFF" stroke-width="1.5" stroke-linecap="round" stroke-linejoin="round"/>
<path fill-rule="evenodd" clip-rule="evenodd" d="M10.308 20.3246L7.95862 9.37793H24.836C25.6853 9.37793 26.3173 10.1606 26.14 10.9913L24.1373 20.3246C24.0053 20.9393 23.4626 21.3779 22.8333 21.3779H11.6106C10.9826 21.3779 10.44 20.9393 10.308 20.3246Z" stroke="#009FFF" stroke-width="1.5" stroke-linecap="round" stroke-linejoin="round"/>
<path d="M23.2867 26.2116C23.0107 26.2116 22.7867 26.4356 22.7894 26.7116C22.7894 26.9876 23.0134 27.2116 23.2894 27.2116C23.5654 27.2116 23.7894 26.9876 23.7894 26.7116C23.788 26.4356 23.564 26.2116 23.2867 26.2116" stroke="#009FFF" stroke-width="1.5" stroke-linecap="round" stroke-linejoin="round"/>
<path d="M11.808 26.2116C11.532 26.2116 11.308 26.4356 11.3107 26.7116C11.3093 26.9876 11.5333 27.2116 11.8093 27.2116C12.0853 27.2116 12.3093 26.9876 12.3093 26.7116C12.3093 26.4356 12.0853 26.2116 11.808 26.2116" stroke="#009FFF" stroke-width="1.5" stroke-linecap="round" stroke-linejoin="round"/>
</svg>
