<svg width="25" height="25" viewBox="0 0 25 25" fill="none" xmlns="http://www.w3.org/2000/svg">
<path fill-rule="evenodd" clip-rule="evenodd" d="M12.4445 17.5367V17.5367C12.6033 17.5366 12.7376 17.419 12.7586 17.2616L12.9067 16.1551C13.126 14.5102 14.4201 13.2162 16.065 12.9968L17.1714 12.8487C17.3289 12.8277 17.4464 12.6934 17.4465 12.5346V12.5346C17.4464 12.3758 17.3289 12.2415 17.1714 12.2205L16.065 12.0724C14.4201 11.8531 13.126 10.559 12.9067 8.91411L12.7586 7.80765C12.7376 7.65022 12.6033 7.53263 12.4445 7.53253V7.53253C12.2856 7.53263 12.1514 7.65022 12.1303 7.80765L11.9823 8.91411C11.7629 10.559 10.4689 11.8531 8.82396 12.0724L7.7175 12.2205C7.56007 12.2415 7.44249 12.3758 7.44238 12.5346V12.5346C7.44249 12.6934 7.56007 12.8277 7.7175 12.8487L8.82396 12.9968C10.4689 13.2162 11.7629 14.5102 11.9823 16.1551L12.1303 17.2616C12.1514 17.419 12.2856 17.5366 12.4445 17.5367V17.5367Z" stroke="#336B46" stroke-width="1.5" stroke-linecap="round" stroke-linejoin="round"/>
<path d="M19.1652 5.81382C22.8764 9.52549 22.8761 15.5428 19.1646 19.2541C15.4531 22.9654 9.43579 22.9654 5.7243 19.2541C2.01281 15.5428 2.01252 9.52549 5.72365 5.81382C7.50603 4.03119 9.9236 3.02969 12.4444 3.02969C14.9653 3.02969 17.3829 4.03119 19.1652 5.81382" stroke="#336B46" stroke-width="1.5" stroke-linecap="round" stroke-linejoin="round"/>
</svg>
