<svg width="73" height="73" viewBox="0 0 73 73" fill="none" xmlns="http://www.w3.org/2000/svg">
<path d="M32.5022 3.57219C34.7791 1.53767 38.2209 1.53767 40.4978 3.5722L45.9694 8.46133C46.9828 9.36683 48.2736 9.90148 49.6304 9.97776L56.9566 10.3897C60.0053 10.5611 62.4389 12.9947 62.6103 16.0434L63.0222 23.3696C63.0985 24.7264 63.6332 26.0172 64.5387 27.0306L69.4278 32.5022C71.4623 34.7791 71.4623 38.2209 69.4278 40.4978L64.5387 45.9694C63.6332 46.9828 63.0985 48.2736 63.0222 49.6304L62.6103 56.9566C62.4389 60.0053 60.0053 62.4389 56.9566 62.6103L49.6304 63.0222C48.2736 63.0985 46.9828 63.6332 45.9694 64.5387L40.4978 69.4278C38.2209 71.4623 34.7791 71.4623 32.5022 69.4278L27.0306 64.5387C26.0172 63.6332 24.7264 63.0985 23.3696 63.0222L16.0434 62.6103C12.9947 62.4389 10.5611 60.0053 10.3897 56.9566L9.97776 49.6304C9.90148 48.2736 9.36683 46.9828 8.46133 45.9694L3.57219 40.4978C1.53767 38.2209 1.53767 34.7791 3.5722 32.5022L8.46133 27.0306C9.36683 26.0172 9.90148 24.7264 9.97776 23.3696L10.3897 16.0434C10.5611 12.9947 12.9947 10.5611 16.0434 10.3897L23.3696 9.97776C24.7264 9.90148 26.0172 9.36683 27.0306 8.46133L32.5022 3.57219Z" fill="#93BA26"/>
<path d="M33.002 7.39917C34.9943 5.61896 38.0057 5.61896 39.998 7.39917L44.4824 11.405C45.6224 12.4236 47.0742 13.0252 48.6006 13.1111L54.6045 13.449C57.2721 13.599 59.4018 15.7287 59.5518 18.3962L59.8887 24.3992C59.9745 25.9256 60.5761 27.3783 61.5947 28.5183L65.6016 33.0017C67.3817 34.994 67.3816 38.0055 65.6016 39.9978L61.5947 44.4822C60.5762 45.6221 59.9745 47.0741 59.8887 48.6003L59.5518 54.6042C59.4018 57.2718 57.2721 59.4015 54.6045 59.5515L48.6006 59.8884C47.0743 59.9743 45.6224 60.576 44.4824 61.5945L39.998 65.6013C38.0057 67.3814 34.9942 67.3815 33.002 65.6013L28.5186 61.5945C27.3785 60.5758 25.9259 59.9742 24.3994 59.8884L18.3965 59.5515C15.7289 59.4015 13.5992 57.2718 13.4492 54.6042L13.1113 48.6003C13.0254 47.074 12.4239 45.6222 11.4053 44.4822L7.39941 39.9978C5.6192 38.0055 5.6192 34.994 7.39941 33.0017L11.4053 28.5183C12.424 27.3783 13.0255 25.9256 13.1113 24.3992L13.4492 18.3962C13.5992 15.7287 15.7289 13.599 18.3965 13.449L24.3994 13.1111C25.9259 13.0253 27.3785 12.4237 28.5186 11.405L33.002 7.39917Z" stroke="white" stroke-opacity="0.25" stroke-width="1.5"/>
<rect x="24.0254" y="24.65" width="24.9499" height="24.7714" rx="7.25" stroke="white" stroke-width="1.5"/>
<path d="M42.9652 32.6768L35.786 39.856L31.4785 35.5485" stroke="white" stroke-width="1.5" stroke-linecap="round" stroke-linejoin="round"/>
</svg>
