<svg width="32" height="32" viewBox="0 0 32 32" fill="none" xmlns="http://www.w3.org/2000/svg">
<path fill-rule="evenodd" clip-rule="evenodd" d="M8 24.7787C10.092 22.7453 12.9227 21.4947 16.0307 21.4947C19.108 21.4947 21.908 22.72 24 24.716C21.908 26.7493 19.0773 28 15.9693 28C12.892 28 10.092 26.7747 8 24.7787Z" stroke="#009FFF" stroke-width="1.5" stroke-linecap="round" stroke-linejoin="round"/>
<path d="M5.3 21.3667C4.48667 19.748 4 17.936 4 16C4 9.368 9.368 4 16 4C22.632 4 28 9.368 28 16C28 17.9333 27.516 19.7467 26.6973 21.364" stroke="#009FFF" stroke-width="1.5" stroke-linecap="round" stroke-linejoin="round"/>
<path d="M18.8284 10.5049C20.3905 12.067 20.3905 14.5997 18.8284 16.1618C17.2663 17.7239 14.7337 17.7239 13.1716 16.1618C11.6095 14.5997 11.6095 12.067 13.1716 10.5049C14.7337 8.94282 17.2663 8.94282 18.8284 10.5049" stroke="#009FFF" stroke-width="1.5" stroke-linecap="round" stroke-linejoin="round"/>
</svg>
