<svg width="24" height="25" viewBox="0 0 24 25" fill="none" xmlns="http://www.w3.org/2000/svg">
<path fill-rule="evenodd" clip-rule="evenodd" d="M6 18.5945C7.569 17.0695 9.692 16.1315 12.023 16.1315C14.331 16.1315 16.431 17.0505 18 18.5475C16.431 20.0725 14.308 21.0105 11.977 21.0105C9.669 21.0105 7.569 20.0915 6 18.5945Z" stroke="white" stroke-width="1.5" stroke-linecap="round" stroke-linejoin="round"/>
<path d="M3.975 16.0355C3.365 14.8215 3 13.4625 3 12.0105C3 7.03649 7.026 3.01049 12 3.01049C16.974 3.01049 21 7.03649 21 12.0105C21 13.4605 20.637 14.8205 20.023 16.0335" stroke="white" stroke-width="1.5" stroke-linecap="round" stroke-linejoin="round"/>
<path d="M14.1213 7.88917C15.2929 9.06074 15.2929 10.9602 14.1213 12.1318C12.9497 13.3034 11.0502 13.3034 9.87868 12.1318C8.70711 10.9602 8.70711 9.06074 9.87868 7.88917C11.0502 6.7176 12.9497 6.7176 14.1213 7.88917" stroke="white" stroke-width="1.5" stroke-linecap="round" stroke-linejoin="round"/>
</svg>
