<svg width="24" height="24" viewBox="0 0 24 24" fill="none" xmlns="http://www.w3.org/2000/svg">
<path fill-rule="evenodd" clip-rule="evenodd" d="M12 20.4999C16.9706 20.4999 21 16.3389 21 13.4999C21 10.6609 16.9706 6.49994 12 6.49994C7.02945 6.49994 3 10.6638 3 13.4999C3 16.336 7.02945 20.4999 12 20.4999Z" stroke="#6E6E6E" stroke-width="1.5" stroke-linecap="round" stroke-linejoin="round"/>
<path d="M12 16.4999C13.6568 16.4999 15 15.1568 15 13.4999C15 11.8431 13.6568 10.4999 12 10.4999C10.3432 10.4999 9 11.8431 9 13.4999C9 15.1568 10.3432 16.4999 12 16.4999Z" stroke="#6E6E6E" stroke-width="1.5" stroke-linecap="round" stroke-linejoin="round"/>
<path d="M6.63281 5.633L7.93006 7.4431" stroke="#6E6E6E" stroke-width="1.5" stroke-linecap="round" stroke-linejoin="round"/>
<path d="M17.8129 5.85516L16.5156 7.66526" stroke="#6E6E6E" stroke-width="1.5" stroke-linecap="round" stroke-linejoin="round"/>
<path d="M12.0039 3.49994V6.49995" stroke="#6E6E6E" stroke-width="1.5" stroke-linecap="round" stroke-linejoin="round"/>
</svg>
