<svg width="32" height="32" viewBox="0 0 32 32" fill="none" xmlns="http://www.w3.org/2000/svg">
<path d="M13 26H19C24 26 26 24 26 19V13C26 8 24 6 19 6H13C8 6 6 8 6 13V19C6 24 8 26 13 26Z" stroke="#009FFF" stroke-width="1.5" stroke-linecap="round" stroke-linejoin="round"/>
<path d="M10.7002 13.26L16.0002 16.33L21.2602 13.28" stroke="#009FFF" stroke-width="1.5" stroke-linecap="round" stroke-linejoin="round"/>
<path d="M16 21.7701V16.3201" stroke="#009FFF" stroke-width="1.5" stroke-linecap="round" stroke-linejoin="round"/>
<path d="M14.7603 10.29L11.5602 12.07C10.8402 12.47 10.2402 13.48 10.2402 14.31V17.7C10.2402 18.53 10.8302 19.54 11.5602 19.94L14.7603 21.72C15.4403 22.1 16.5602 22.1 17.2502 21.72L20.4503 19.94C21.1703 19.54 21.7702 18.53 21.7702 17.7V14.3C21.7702 13.47 21.1803 12.46 20.4503 12.06L17.2502 10.28C16.5602 9.89998 15.4403 9.89998 14.7603 10.29Z" stroke="#009FFF" stroke-width="1.5" stroke-linecap="round" stroke-linejoin="round"/>
</svg>
