<svg width="36" height="36" viewBox="0 0 36 36" fill="none" xmlns="http://www.w3.org/2000/svg">
<path fill-rule="evenodd" clip-rule="evenodd" d="M34.2891 0.648713C34.1602 0.73012 33.2654 1.58988 32.3007 2.55934L30.5467 4.32199L29.7617 3.55879C28.8674 2.68949 28.3403 2.38317 27.6334 2.32184C27.0574 2.27192 20.0449 3.24184 19.2735 3.47809C18.5118 3.71137 17.6638 4.17254 16.9446 4.74457C16.6013 5.0177 12.9187 8.41254 8.76112 12.2886C0.93659 19.5834 0.893309 19.6269 0.637684 20.4611C0.585027 20.633 0.542606 21.1076 0.543387 21.5158C0.546043 22.8732 0.155027 22.4038 6.91464 29.1654C13.3424 35.595 13.0628 35.3497 14.159 35.5194C14.5776 35.5843 14.8055 35.5754 15.2977 35.475C16.1064 35.31 16.6293 34.9872 17.3131 34.2307C17.6141 33.8977 17.9027 33.6252 17.9544 33.6252C18.0061 33.6252 18.9428 33.9593 20.036 34.3676C21.1291 34.776 22.2435 35.1512 22.5125 35.2016C23.7032 35.4244 25.1467 34.7407 25.785 33.6517C25.8914 33.47 26.9574 30.3855 28.1536 26.7973L30.3286 20.2732L30.8904 19.6357C31.9371 18.4479 32.541 17.2978 32.7589 16.0775C32.8417 15.6132 33.65 9.81918 33.7451 9.00809C33.8045 8.50082 33.6399 7.74317 33.3746 7.30348C33.2817 7.14957 32.8707 6.67988 32.4611 6.25973L31.7165 5.49582L33.6278 3.5834L35.5391 1.6709V1.31348C35.5391 1.00856 35.5017 0.922698 35.2839 0.728166C34.9814 0.457854 34.6353 0.430198 34.2891 0.648713ZM26.5547 4.05465C26.168 4.10871 24.6739 4.31582 23.2344 4.51489C20.1235 4.9452 19.6007 5.04879 18.9555 5.36285C18.3007 5.6816 18.0854 5.87238 12.4875 11.0945C9.82096 13.5821 6.47753 16.6986 5.05784 18.0201C2.47714 20.4222 2.31776 20.5998 2.18448 21.2204C2.1594 21.3372 2.17589 21.6009 2.22104 21.8064C2.30003 22.1654 2.52526 22.4022 8.02268 27.9075C11.1685 31.0578 13.8371 33.6857 13.9532 33.7474C14.2853 33.924 15.0271 33.8914 15.4029 33.6838C15.6126 33.5679 18.0882 30.9662 22.6696 26.0471C26.4913 21.9436 29.7985 18.3752 30.0189 18.1174C30.5156 17.5365 30.8389 16.939 31.0049 16.2952C31.1768 15.6283 32.0614 9.25082 32.0621 8.67324L32.0625 8.21356L31.345 7.48184C30.9503 7.07942 30.5895 6.7502 30.543 6.7502C30.4965 6.7502 30.0469 7.16324 29.5438 7.66817L28.6291 8.58613L28.7408 8.89863C28.893 9.32426 28.8868 10.0055 28.7261 10.5107C28.5387 11.1002 27.8171 11.825 27.2188 12.0247C25.8039 12.4968 24.3934 11.7502 23.9738 10.3068C23.6651 9.24489 24.1889 8.0434 25.2007 7.49278C25.716 7.21231 26.6882 7.12574 27.151 7.3191L27.4328 7.43684L28.3986 6.46879L29.3644 5.50067L28.6627 4.79559C28.0162 4.14606 27.6495 3.9116 27.336 3.94754C27.293 3.95246 26.9414 4.00067 26.5547 4.05465ZM25.9967 8.93707C25.736 9.04223 25.5782 9.33121 25.5782 9.70324C25.5782 10.1775 25.8953 10.5002 26.3612 10.5002C26.6305 10.5002 26.7357 10.452 26.9632 10.2246C27.2141 9.97363 27.2348 9.91949 27.1946 9.6191C27.1156 9.03004 26.5559 8.71137 25.9967 8.93707ZM11.8577 18.1125C11.5273 18.2563 11.3594 18.5196 11.3594 18.8942C11.3594 19.2004 11.4124 19.2597 14.0788 21.9291C16.5987 24.452 16.8212 24.6547 17.1131 24.6939C17.3858 24.7305 17.4653 24.7035 17.705 24.4931C18.0079 24.2271 18.1029 23.9376 17.9885 23.6292C17.8854 23.3511 12.7839 18.2439 12.4752 18.1096C12.1733 17.9782 12.166 17.9782 11.8577 18.1125ZM9.35768 20.6125C9.02698 20.7564 8.8594 21.0197 8.8594 21.3953C8.8594 21.7031 8.90878 21.7581 11.6146 24.4638C14.3399 27.1891 14.3732 27.2189 14.6899 27.2189C15.2298 27.2189 15.6628 26.714 15.5428 26.2243C15.4754 25.9493 10.3354 20.7653 9.97518 20.6092C9.67323 20.4783 9.66589 20.4783 9.35768 20.6125ZM23.5422 27.5392C21.3749 29.8617 19.506 31.8767 19.3892 32.017L19.1767 32.2721L20.8735 32.905C21.8068 33.2531 22.6623 33.5601 22.7747 33.5874C23.2234 33.6961 23.9803 33.3344 24.3015 32.8579C24.471 32.6064 27.5784 23.4118 27.5153 23.3487C27.4974 23.331 25.7096 25.2167 23.5422 27.5392Z" fill="#009FFF"/>
</svg>
