<svg width="40" height="30" viewBox="0 0 40 30" fill="none" xmlns="http://www.w3.org/2000/svg">
<path fill-rule="evenodd" clip-rule="evenodd" d="M1.58847 0.300398C0.803623 0.572663 0.246904 1.19235 0.0769823 1.98274C0.0161229 2.26594 -0.00192394 5.45415 0.0150292 12.8907L0.0390917 23.3985L0.25706 23.8424C0.504014 24.3453 0.882529 24.7123 1.40229 24.9527C1.71534 25.0976 1.9312 25.1203 3.20761 25.1427L4.65745 25.1681L4.74511 25.7695C4.8594 26.5541 5.09276 27.1631 5.51565 27.7807L5.85839 28.2813H3.24534C0.433232 28.2813 0.311123 28.297 0.111357 28.6833C-0.0700489 29.0341 -0.0266114 29.2859 0.265654 29.5782L0.531279 29.8438H20.0043H39.4774L39.7778 29.5281C39.9947 29.2999 40.0782 29.1445 40.0782 28.9681C40.0782 28.8339 40.0594 28.7428 40.0365 28.7657C40.0135 28.7886 39.8764 28.689 39.7318 28.5444L39.4688 28.2813H38.3606H37.2524L37.5329 27.8991C38.0503 27.1942 38.4324 26.0961 38.4362 25.3025C38.4374 25.0592 38.4721 25.0047 38.6817 24.9179C39.0679 24.7579 39.6545 24.119 39.8035 23.6959C39.8762 23.4894 39.9678 23.2594 40.007 23.1848C40.0491 23.1045 40.0703 18.7466 40.059 12.5207C40.0405 2.3397 40.0392 2.25594 40.0196 9.98219L39.9993 17.9721L37.7415 13.4532C35.61 9.18704 35.4611 8.91391 35.0781 8.56954C34.414 7.97243 34.386 7.96884 30.4581 7.96884H27.0382L27.0152 4.94149C26.9932 2.03454 26.9856 1.89969 26.8243 1.55094C26.6097 1.08665 26.101 0.577898 25.6367 0.363288L25.2735 0.195398L13.6328 0.177898C2.61753 0.161335 1.9705 0.167898 1.58847 0.300398ZM1.96175 1.8279C1.55347 2.05415 1.56823 1.75524 1.56526 9.8243L1.56253 17.3438H2.8594H4.15628L4.4219 17.6095L4.68753 17.8751V19.6876V21.5001L4.4219 21.7657L4.15628 22.0313H2.8594H1.56253V22.504C1.56253 23.0496 1.69909 23.368 1.99003 23.5005C2.1255 23.5623 2.66308 23.5924 3.57792 23.5895L4.96097 23.585L5.22698 23.0231C5.59112 22.2536 6.46433 21.3839 7.27151 20.9866C8.64073 20.3128 10.1093 20.3128 11.4785 20.9866C12.2857 21.3839 13.1589 22.2536 13.5231 23.0231L13.7891 23.585L19.6289 23.5895L25.4688 23.5938V12.9725C25.4688 4.90415 25.4464 2.30196 25.3754 2.14634C25.1696 1.69454 25.8424 1.7186 13.5 1.72157C4.22769 1.72384 2.11425 1.74329 1.96175 1.8279ZM0.0379979 12.6563C0.0379979 18.4786 0.0472948 20.8605 0.0586229 17.9493C0.0699511 15.0382 0.0699511 10.2745 0.0586229 7.36337C0.0472948 4.45227 0.0379979 6.83407 0.0379979 12.6563ZM8.07815 5.10946C7.79847 5.38915 7.74714 5.63048 7.89729 5.96008C8.00323 6.19251 8.35581 6.40634 8.63315 6.40634C8.9405 6.40634 9.37503 5.94876 9.37503 5.62509C9.37503 5.27774 8.94112 4.84383 8.59378 4.84383C8.41362 4.84383 8.26956 4.91805 8.07815 5.10946ZM11.3146 4.97758C10.8072 5.29235 10.8367 6.07227 11.365 6.31298C11.5172 6.38235 12.887 6.40634 16.6912 6.40634H21.8125L22.0782 6.14071C22.4385 5.78032 22.4385 5.46985 22.0782 5.10946L21.8125 4.84383L16.668 4.84594C12.0144 4.84782 11.5035 4.8604 11.3146 4.97758ZM14.4396 8.10259C14.0756 8.32845 13.9702 8.73555 14.1739 9.12938C14.3791 9.52618 14.4311 9.53134 18.2537 9.53134H21.8125L22.0782 9.26571C22.2696 9.0743 22.3438 8.93024 22.3438 8.75009C22.3438 8.56993 22.2696 8.42587 22.0782 8.23446L21.8125 7.96884L18.2305 7.97094C15.0323 7.97274 14.626 7.98688 14.4396 8.10259ZM27.0313 16.5626V23.5938L28.1836 23.5895L29.336 23.585L29.602 23.0231C29.9661 22.2536 30.8393 21.3839 31.6465 20.9866C33.0162 20.3126 34.4782 20.3128 35.8594 20.9873C36.5853 21.3417 37.4917 22.2238 37.8757 22.9493C38.0178 23.2179 38.1488 23.4376 38.1667 23.4376C38.1846 23.4376 38.2528 23.3338 38.3183 23.2071C38.4162 23.0178 38.4375 22.6129 38.4375 20.9415V18.9063H33.8242C28.8185 18.9063 28.8844 18.9118 28.6871 18.4788C28.5393 18.1545 28.5557 11.7846 28.7051 11.4958C28.9063 11.1068 29.0137 11.0938 32.0358 11.0938H34.8455L34.5354 10.4771C34.0201 9.4522 34.3646 9.53134 30.4192 9.53134H27.0313V16.5626ZM30.1563 15.0001V17.3438H34.0628H37.9692L36.7969 15.0001L35.6246 12.6563H32.8904H30.1563V15.0001ZM1.56253 19.6876V20.4688H2.34378H3.12503V19.6876V18.9063H2.34378H1.56253V19.6876ZM8.47558 22.1673C6.5619 22.8515 5.7337 24.7777 6.59878 26.532C6.93112 27.2059 7.39714 27.6569 8.11097 27.995C8.58292 28.2186 8.70386 28.2423 9.37503 28.2423C10.0462 28.2423 10.1671 28.2186 10.6391 27.995C11.3654 27.6509 11.8178 27.2081 12.1692 26.497C12.4449 25.9391 12.461 25.8653 12.461 25.1563C12.461 24.4474 12.4449 24.3735 12.1692 23.8157C11.8174 23.1038 11.3632 22.6595 10.6426 22.3224C9.98058 22.0125 9.08714 21.9486 8.47558 22.1673ZM32.8506 22.1673C31.63 22.6037 30.8849 23.4611 30.6773 24.6681C30.4455 26.0153 31.1321 27.3193 32.4045 27.9481C32.9671 28.2262 33.0406 28.2423 33.746 28.2423C34.4217 28.2423 34.5415 28.2189 35.0141 27.995C35.7404 27.6509 36.1928 27.2081 36.5442 26.497C36.8199 25.9391 36.836 25.8653 36.836 25.1563C36.836 24.4474 36.8199 24.3735 36.5442 23.8157C36.1924 23.1038 35.7382 22.6595 35.0176 22.3224C34.3556 22.0125 33.4621 21.9486 32.8506 22.1673ZM8.83183 23.6958C8.22237 23.8901 7.73144 24.7044 7.83581 25.3478C7.9469 26.032 8.34456 26.4756 9.00534 26.6523C10.1576 26.9606 11.1837 25.8849 10.8555 24.7127C10.6199 23.8713 9.71222 23.4151 8.83183 23.6958ZM33.2068 23.6958C32.5974 23.8901 32.1064 24.7044 32.2108 25.3478C32.3219 26.032 32.7196 26.4756 33.3803 26.6523C33.8158 26.7688 34.3154 26.6691 34.6924 26.3904C34.9677 26.1869 35.3125 25.5297 35.3125 25.2087C35.3125 24.1006 34.2751 23.3552 33.2068 23.6958ZM14.0058 25.7637C13.8907 26.5539 13.6582 27.1617 13.2344 27.7807L12.8917 28.2813H21.5625H30.2334L29.8907 27.7807C29.4669 27.1617 29.2344 26.5539 29.1192 25.7637L29.0307 25.1563H21.5625H14.0943L14.0058 25.7637ZM0.0181542 29.0626C0.0181542 29.213 0.0342479 29.2745 0.0538573 29.1993C0.0735448 29.1241 0.0735448 29.001 0.0538573 28.9259C0.0342479 28.8507 0.0181542 28.9122 0.0181542 29.0626Z" fill="#009FFF"/>
</svg>
