<svg width="40" height="36" viewBox="0 0 40 36" fill="none" xmlns="http://www.w3.org/2000/svg">
<path fill-rule="evenodd" clip-rule="evenodd" d="M24.6959 0.120609C21.3096 0.474594 18.1055 2.03678 15.9342 4.39241C14.4406 6.0128 13.3796 8.19413 13.1053 10.2087C13.0413 10.6786 12.972 10.9244 12.892 10.9652C12.8268 10.9985 12.4922 11.0484 12.1485 11.0762C10.597 11.2012 8.6669 11.7545 7.07034 12.532C3.34315 14.347 0.937294 17.2394 0.182528 20.8126C-0.0251282 21.7956 -0.00590947 23.7083 0.222216 24.7762C0.601669 26.5516 1.34026 28.0704 2.56401 29.5913C2.99573 30.1279 3.06854 30.2669 3.13722 30.6851C3.32917 31.8539 2.87432 33.415 2.08479 34.2975C1.54518 34.9006 1.46714 35.127 1.65589 35.5413C1.85487 35.9781 2.36901 36.0591 3.63737 35.8534C5.26651 35.5892 6.49964 35.0341 7.82761 33.9674C8.3087 33.581 8.368 33.5541 8.56979 33.6312C8.95526 33.7784 10.3246 34.0792 11.1919 34.2072C13.7323 34.5819 16.1702 34.3849 18.4716 33.6187C22.7667 32.1887 25.9852 28.7801 26.7957 24.803C26.8823 24.378 26.9532 23.9061 26.9532 23.7543C26.9532 23.4455 26.9131 23.459 28.1641 23.3472C28.9585 23.2762 30.2621 23.0322 31.0195 22.8128L31.6778 22.6222L32.0693 22.9565C33.2754 23.9862 34.7337 24.6517 36.3627 24.9159C37.6252 25.1207 38.1086 25.0501 38.3262 24.6294C38.5418 24.2124 38.4646 23.974 37.9153 23.36C37.3047 22.6776 36.7969 21.3143 36.7969 20.3578C36.7969 19.6333 36.9275 19.2858 37.4388 18.6505C38.6596 17.133 39.3987 15.6126 39.7778 13.8387C39.9792 12.8959 40.0203 10.8729 39.8547 10.0425C39.1285 6.39905 36.6801 3.41084 32.9297 1.59069C30.3757 0.351078 27.464 -0.168766 24.6959 0.120609ZM24.4532 1.70631C20.9288 2.2167 17.8975 4.01405 16.1295 6.6417C15.3608 7.7842 14.7907 9.23155 14.6264 10.4581C14.5471 11.0495 14.4878 11.0032 15.4297 11.0845C16.6846 11.193 18.3645 11.6408 19.7184 12.228L20.4176 12.5313H26.8182H33.2188L33.4844 12.7969C33.6758 12.9883 33.75 13.1324 33.75 13.3126C33.75 13.4927 33.6758 13.6368 33.4844 13.8282L33.2188 14.0938H28.0092H22.7996L23.4318 14.6886C25.1778 16.3312 26.3488 18.3791 26.7957 20.5722C26.8823 20.9972 26.9532 21.4515 26.9532 21.5819C26.9532 21.7123 26.9823 21.837 27.0179 21.859C27.2403 21.9965 30.0653 21.5161 31.0879 21.1669C31.9684 20.8662 32.0885 20.8868 32.7111 21.4444C33.3505 22.0171 33.94 22.4292 34.5703 22.7441C35.083 23.0003 35.849 23.2708 35.9045 23.2154C35.9237 23.1962 35.8675 23.018 35.7796 22.8193C35.4503 22.0747 35.2946 21.2863 35.2907 20.3438C35.2857 19.1641 35.4371 18.5663 35.856 18.1119C38.5415 15.1984 39.1749 11.2409 37.4902 7.90217C35.9833 4.91608 32.8014 2.66389 28.958 1.86295C27.7598 1.61319 25.6116 1.5385 24.4532 1.70631ZM19.4844 8.10944C19.124 8.46983 19.124 8.7803 19.4844 9.14069C19.6758 9.33209 19.8199 9.40631 20 9.40631C20.1802 9.40631 20.3242 9.33209 20.5157 9.14069C20.7071 8.94928 20.7813 8.80522 20.7813 8.62506C20.7813 8.44491 20.7071 8.30084 20.5157 8.10944C20.3242 7.91803 20.1802 7.84381 20 7.84381C19.8199 7.84381 19.6758 7.91803 19.4844 8.10944ZM22.6094 8.10944C22.418 8.30084 22.3438 8.44491 22.3438 8.62506C22.3438 8.80522 22.418 8.94928 22.6094 9.14069L22.875 9.40631H28.0469H33.2188L33.4844 9.14069C33.8448 8.7803 33.8448 8.46983 33.4844 8.10944L33.2188 7.84381H28.0469H22.875L22.6094 8.10944ZM12.1599 12.614C8.97276 12.9842 5.94292 14.5102 3.94823 16.7501C0.780809 20.3067 0.782294 25.1797 3.95182 28.8234C4.48886 29.4408 4.56597 29.6257 4.69182 30.5977C4.82167 31.6008 4.58706 33.0665 4.16526 33.8862C4.10245 34.0084 4.06893 34.1262 4.09073 34.1481C4.15979 34.2171 4.9369 33.9305 5.58597 33.5967C6.20917 33.2762 6.74112 32.888 7.43808 32.2454C7.88104 31.8369 8.07464 31.8184 8.91214 32.1044C10.1696 32.5337 12.2395 32.8452 13.8169 32.8423C17.7052 32.8351 21.4045 31.0788 23.561 28.2159C27.2228 23.3548 25.4196 16.8162 19.6131 13.9004C17.4249 12.8015 14.6576 12.324 12.1599 12.614ZM6.51565 20.6094C6.15526 20.9698 6.15526 21.2803 6.51565 21.6407C6.70706 21.8321 6.85112 21.9063 7.03128 21.9063C7.37862 21.9063 7.81253 21.4724 7.81253 21.1251C7.81253 20.7777 7.37862 20.3438 7.03128 20.3438C6.85112 20.3438 6.70706 20.418 6.51565 20.6094ZM9.64065 20.6094C9.28026 20.9698 9.28026 21.2803 9.64065 21.6407L9.90628 21.9063H15.0782H20.25L20.5157 21.6407C20.876 21.2803 20.876 20.9698 20.5157 20.6094L20.25 20.3438H15.0782H9.90628L9.64065 20.6094ZM6.51565 25.2969C6.15526 25.6573 6.15526 25.9678 6.51565 26.3282L6.78128 26.5938H13.5157H20.25L20.5157 26.3282C20.876 25.9678 20.876 25.6573 20.5157 25.2969L20.25 25.0313H13.5157H6.78128L6.51565 25.2969Z" fill="#009FFF"/>
</svg>
