<svg width="28" height="26" viewBox="0 0 28 26" fill="none" xmlns="http://www.w3.org/2000/svg">
<path fill-rule="evenodd" clip-rule="evenodd" d="M11.6585 0.0672209C7.42511 0.606711 4.17243 2.54352 2.08086 5.77013C0.604191 8.04809 -0.176389 11.1316 0.0338051 13.8563C0.45973 19.3779 3.63298 23.5783 8.63983 25.2478C11.2268 26.1105 13.8151 26.2328 16.2187 25.6061C18.8714 24.9144 21.3417 23.2967 23.0789 21.1138C24.5345 19.2848 25.4763 17.119 25.835 14.7756C25.9536 14.0009 25.9702 12.2085 25.8656 11.4778C25.7732 10.832 25.6571 10.6107 25.3194 10.4367C24.9798 10.2616 24.6581 10.3018 24.3699 10.5552C24.1055 10.7877 24.0379 11.0576 24.1077 11.6022C24.3197 13.2568 24.1656 14.8595 23.6406 16.4608C23.0607 18.2295 22.0996 19.7461 20.6943 21.1095C19.0954 22.6609 17.3235 23.5979 15.1083 24.0635C14.4347 24.2051 14.2216 24.2232 13.1852 24.2265C11.8806 24.2307 11.2731 24.1541 9.98013 23.8219C7.29073 23.1311 5.07748 21.5708 3.59843 19.3231C2.55288 17.7342 1.95271 15.9228 1.78028 13.8357C1.59386 11.5789 2.17835 9.01092 3.3091 7.11882C5.25003 3.87114 8.63179 1.93609 12.6899 1.75124C14.9767 1.64705 17.2724 2.33065 19.3529 3.73515C20.1713 4.28771 20.3368 4.33616 20.7305 4.138C21.1808 3.91147 21.343 3.3069 21.0651 2.89185C20.8887 2.62856 19.6338 1.78719 18.7813 1.3607C17.5755 0.757474 16.4469 0.385673 15.1083 0.150686C14.1931 -0.00994103 12.5719 -0.0492221 11.6585 0.0672209ZM26.7048 2.00957C26.6086 2.07039 23.4892 5.18534 19.7727 8.93166L13.0155 15.7433L10.7111 13.4415C9.44372 12.1756 8.34945 11.1108 8.27946 11.0754C8.10319 10.9861 7.77137 10.9948 7.53204 11.0949C7.16934 11.2467 6.95495 11.7756 7.1032 12.1529C7.19254 12.3804 12.1495 17.4586 12.5254 17.7078C12.7139 17.8326 12.7952 17.8504 13.0731 17.8273L13.3994 17.8002L19.3425 11.852C26.9636 4.22421 27.9355 3.22145 27.9902 2.92915C28.0423 2.65103 27.8792 2.23038 27.6541 2.06251C27.4274 1.89336 26.9323 1.86575 26.7048 2.00957Z" fill="#009FFF"/>
</svg>
