<svg width="40" height="38" viewBox="0 0 40 38" fill="none" xmlns="http://www.w3.org/2000/svg">
<path fill-rule="evenodd" clip-rule="evenodd" d="M16.4942 0.230469C16.1692 0.40125 10.8325 4.1057 9.43065 5.13352C9.24979 5.26617 9.02308 5.53758 8.9105 5.75641L8.71089 6.14414L8.68964 11.0877L8.66847 16.0312H8.41323C8.27292 16.0312 8.01112 16.1103 7.83151 16.207C7.26815 16.5103 0.914716 20.9926 0.574481 21.3268C-0.033878 21.9245 -0.00598738 21.5161 0.0178407 29.4743C0.0383095 36.3138 0.0439345 36.5489 0.192294 36.8482C0.276591 37.0182 0.48081 37.2885 0.646044 37.4489C1.22878 38.0145 0.825575 37.9899 9.14589 37.9664L16.6015 37.9453L16.9585 37.7355L17.3155 37.5255L17.7703 37.755L18.2251 37.9844L25.6555 37.9827C32.9395 37.981 33.0928 37.9778 33.4375 37.8232C33.7 37.7054 34.5278 36.9288 36.7045 34.7585C39.3892 32.0816 39.8899 31.5204 39.9398 31.132C39.9496 31.0551 39.9794 32.1699 40.0058 33.6094C40.0323 35.0488 40.0442 32.0781 40.0323 27.0078C40.0086 16.8941 40.0314 17.3659 39.5378 16.7427C39.4034 16.573 39.1115 16.3435 38.8892 16.2327L38.4849 16.0312H34.9921H31.4993L31.7457 15.582L31.9921 15.1328V8.33594C31.9921 0.802344 32.0264 1.30898 31.4751 0.681172C31.3304 0.516328 31.036 0.299531 30.8208 0.199297L30.4296 0.0171875L23.6663 0.0164063L16.903 0.015625L16.4942 0.230469ZM14.8261 2.96484C13.551 3.85648 12.5059 4.61234 12.5038 4.64453C12.5017 4.67672 13.6753 4.70312 15.1119 4.70312H17.7239L19.8873 3.02344L22.0507 1.34375H19.5977H17.1447L14.8261 2.96484ZM22.7343 2.48539C21.9394 3.10844 20.9902 3.85359 20.625 4.14117L19.9609 4.66406L22.6171 4.70719C24.0781 4.73086 25.3437 4.77625 25.4296 4.80813C25.5571 4.85531 25.9092 4.58375 27.3437 3.33188C28.3105 2.48813 29.2063 1.69562 29.3344 1.57078L29.5673 1.34375L26.8735 1.34812L24.1796 1.3525L22.7343 2.48539ZM28.5937 4.00203C27.1408 5.27437 26.5339 5.85305 26.5585 5.94266C26.5778 6.01289 26.6129 8.96281 26.6366 12.4982L26.6796 18.926L28.6464 16.9513C30.2842 15.3068 30.621 14.9309 30.6608 14.7031C30.6871 14.5527 30.6985 11.6755 30.6863 8.30938L30.664 2.18906L28.5937 4.00203ZM10.1917 6.22305L9.99995 6.41477V13.3359V20.2571L10.1917 20.4488L10.3835 20.6406H17.6562H24.9289L25.1207 20.4488L25.3125 20.2571V13.35C25.3125 6.48062 25.3116 6.4418 25.1505 6.23711L24.9886 6.03125H17.686H10.3835L10.1917 6.22305ZM12.2339 15.4095C11.914 15.5052 11.4968 15.9348 11.4059 16.2622C11.3635 16.4145 11.3288 16.9234 11.3285 17.3933C11.328 18.447 11.4696 18.8152 11.9942 19.1225L12.3327 19.3209L14.0828 19.2972L15.8328 19.2734L16.1278 19.0483C16.5657 18.714 16.6408 18.4581 16.6393 17.3033C16.6378 16.1139 16.5217 15.8141 15.9447 15.5098C15.616 15.3363 15.5295 15.3284 14.0307 15.3348C13.1673 15.3385 12.3587 15.3721 12.2339 15.4095ZM21.0402 15.4068C20.6639 15.5584 20.5823 16.1519 20.8949 16.4645C21.0825 16.6522 21.1132 16.6562 22.3437 16.6562C23.5742 16.6562 23.6049 16.6522 23.7925 16.4645C24.115 16.1421 24.031 15.6388 23.6184 15.419C23.4166 15.3116 21.3015 15.3015 21.0402 15.4068ZM12.6562 17.3203V17.9844H13.9843H15.3124V17.3203V16.6562H13.9843H12.6562V17.3203ZM6.12128 18.9883L3.84417 20.6016L6.26987 20.6222C7.60401 20.6336 8.69901 20.6336 8.70323 20.6222C8.70745 20.6109 8.70011 19.8721 8.6869 18.9805C8.66518 17.5152 8.65018 17.3602 8.53065 17.3672C8.45792 17.3716 7.3737 18.101 6.12128 18.9883ZM28.4765 19L26.8373 20.6406H29.7688C32.0459 20.6406 32.7956 20.6653 33.1272 20.7514C33.455 20.8364 33.5812 20.8409 33.6707 20.7709C33.7347 20.7207 34.6418 19.9327 35.6864 19.0195L37.5857 17.3594H33.8507H30.1157L28.4765 19ZM21.0546 18.0746C20.801 18.2134 20.7031 18.3866 20.7031 18.6968C20.7031 18.9191 20.7521 19.0273 20.9089 19.1505C21.0976 19.299 21.2185 19.3125 22.3578 19.3125C23.5734 19.3125 23.605 19.3083 23.7925 19.1207C24.0614 18.852 24.0474 18.5041 23.756 18.2127L23.5276 17.9844L22.3692 17.9867C21.6827 17.9881 21.1472 18.0239 21.0546 18.0746ZM36.5812 19.9961C34.7132 21.618 34.5387 21.7905 34.5857 21.9688C34.6139 22.0762 34.6572 25.0215 34.6818 28.5138L34.7265 34.8635L36.6992 32.8853L38.6718 30.907V24.5629C38.6718 21.0736 38.662 18.2188 38.65 18.2188C38.6379 18.2188 37.707 19.0186 36.5812 19.9961ZM1.74659 22.0455C1.30808 22.2242 1.32808 21.8772 1.32808 29.2959C1.32808 36.3246 1.32792 36.3212 1.63378 36.5561C1.72917 36.6293 3.43175 36.6519 9.00737 36.6537L16.2571 36.6562L16.4488 36.4645L16.6406 36.2727V29.3297V22.3866L16.439 22.1972L16.2374 22.0078L9.07573 21.9926C5.13542 21.9842 1.8387 22.008 1.74659 22.0455ZM18.3837 22.0832C18.1999 22.1631 18.112 22.2698 18.0479 22.4902C17.9864 22.702 17.9679 24.7554 17.9844 29.5341L18.0078 36.2792L18.227 36.4677L18.4462 36.6562H25.664H32.8818L33.101 36.4677L33.3203 36.2792L33.3411 29.456C33.3565 24.4229 33.3382 22.5755 33.2715 22.4143C33.0795 21.9503 33.3903 21.9684 25.6875 21.9718C19.8506 21.9744 18.5898 21.9936 18.3837 22.0832ZM0.037372 29.3125C0.037372 33.2012 0.0469032 34.792 0.0585439 32.8477C0.0701845 30.9034 0.0701845 27.7217 0.0585439 25.7773C0.0469032 23.833 0.037372 25.4238 0.037372 29.3125ZM3.47651 31.4545C3.15378 31.5985 2.82448 31.967 2.73276 32.2866C2.6337 32.632 2.63456 34.0361 2.73401 34.3941C2.82128 34.7082 3.21307 35.1219 3.54018 35.2452C3.6694 35.2939 4.41081 35.3274 5.33706 35.3264C7.11565 35.3245 7.39284 35.2605 7.74206 34.7709C7.92026 34.5209 7.92964 34.4487 7.92964 33.3221C7.92964 31.9815 7.88612 31.8575 7.29729 31.5208C7.00784 31.3553 6.90784 31.3464 5.35151 31.3481C4.15284 31.3494 3.64776 31.378 3.47651 31.4545ZM12.223 31.5355C11.9068 31.8516 11.9699 32.3613 12.3493 32.5576C12.6294 32.7024 14.6837 32.7209 14.9465 32.581C15.3592 32.3612 15.4431 31.8579 15.1207 31.5355C14.933 31.3478 14.9024 31.3438 13.6718 31.3438C12.4413 31.3438 12.4107 31.3478 12.223 31.5355ZM20.1173 31.4668C19.4627 31.8082 19.375 32.0318 19.375 33.3595C19.375 34.3607 19.3889 34.4663 19.5531 34.7099C19.651 34.8552 19.8707 35.0532 20.0414 35.1498C20.3352 35.3163 20.4369 35.3256 21.9751 35.3269C23.7684 35.3283 23.9612 35.2905 24.317 34.8676C24.5989 34.5327 24.6866 34.169 24.6866 33.3359C24.6866 32.5029 24.5989 32.1392 24.317 31.8043C23.9614 31.3816 23.7682 31.3437 21.9751 31.3442C20.6554 31.3446 20.3077 31.3676 20.1173 31.4668ZM28.9775 31.4439C28.6192 31.7191 28.5873 32.1306 28.9002 32.4435L29.1285 32.6719H30.2623C30.8858 32.6719 31.4878 32.637 31.6 32.5944C31.8346 32.5052 32.0238 32.1216 31.9706 31.8432C31.9506 31.7384 31.8458 31.5832 31.7378 31.4982C31.5608 31.3591 31.4207 31.344 30.3214 31.3463C29.4859 31.348 29.0625 31.3787 28.9775 31.4439ZM3.98432 33.3359V34H5.31245H6.64058V33.3359V32.6719H5.31245H3.98432V33.3359ZM20.625 33.3359V34H21.9921H23.3593V33.3359V32.6719H21.9921H20.625V33.3359ZM12.223 34.1918C12.0906 34.3241 12.0312 34.4704 12.0312 34.6641C12.0312 34.8577 12.0906 35.004 12.223 35.1363C12.4107 35.3241 12.4413 35.3281 13.6718 35.3281C14.9024 35.3281 14.933 35.3241 15.1207 35.1363C15.238 35.0191 15.3124 34.8548 15.3124 34.713C15.3124 34.0898 15.0962 34 13.594 34C12.4461 34 12.4096 34.0051 12.223 34.1918ZM28.9002 34.2284C28.656 34.4726 28.6199 34.66 28.7585 34.9643C28.8996 35.2738 29.1435 35.3281 30.3899 35.3281C31.4894 35.3281 31.5652 35.3183 31.7612 35.1497C31.9203 35.0128 31.9687 34.8996 31.9687 34.6641C31.9687 34.4285 31.9203 34.3153 31.7612 34.1784C31.5644 34.0091 31.4914 34 30.3411 34H29.1285L28.9002 34.2284Z" fill="#009FFF"/>
</svg>
