<svg width="40" height="40" viewBox="0 0 40 40" fill="none" xmlns="http://www.w3.org/2000/svg">
<g opacity="0.5">
<path d="M9.94776 11.0417L8.83609 6.04175H5.62109" stroke="#212121" stroke-width="4" stroke-linecap="round" stroke-linejoin="round"/>
<path fill-rule="evenodd" clip-rule="evenodd" d="M12.8859 24.7251L9.94922 11.0417H31.0459C32.1075 11.0417 32.8975 12.0201 32.6759 13.0584L30.1725 24.7251C30.0075 25.4934 29.3292 26.0417 28.5426 26.0417H14.5142C13.7292 26.0417 13.0509 25.4934 12.8859 24.7251Z" stroke="#212121" stroke-width="4" stroke-linecap="round" stroke-linejoin="round"/>
<path d="M29.1074 32.0833C28.7624 32.0833 28.4824 32.3633 28.4857 32.7083C28.4857 33.0533 28.7657 33.3333 29.1107 33.3333C29.4557 33.3333 29.7357 33.0533 29.7357 32.7083C29.734 32.3633 29.454 32.0833 29.1074 32.0833" stroke="#212121" stroke-width="4" stroke-linecap="round" stroke-linejoin="round"/>
<path d="M14.7605 32.0833C14.4155 32.0833 14.1355 32.3633 14.1389 32.7083C14.1372 33.0533 14.4172 33.3333 14.7622 33.3333C15.1072 33.3333 15.3872 33.0533 15.3872 32.7083C15.3872 32.3633 15.1072 32.0833 14.7605 32.0833" stroke="#212121" stroke-width="4" stroke-linecap="round" stroke-linejoin="round"/>
</g>
</svg>
