<svg width="148" height="36" viewBox="0 0 148 36" fill="none" xmlns="http://www.w3.org/2000/svg">
<path fill-rule="evenodd" clip-rule="evenodd" d="M14.115 7.72203C14.0187 8.13377 13.658 8.3524 13.2414 8.25152C12.8386 8.15404 12.6101 7.79626 12.7001 7.40288C12.7919 6.99905 13.1973 6.74852 13.5967 6.84903C13.9728 6.94354 14.2054 7.33538 14.115 7.72203ZM27.8758 24.315C27.0579 26.0145 25.6881 27.1125 24.0014 27.8696C22.7407 28.4358 21.4135 28.8079 20.0911 29.1945C18.745 29.5882 17.3956 29.9752 16.147 30.6341C15.259 31.1028 14.4722 31.6942 13.8824 32.52C13.8429 32.5751 13.7887 32.6205 13.7337 32.6782C13.0569 30.9712 14.1004 27.7556 17.073 26.8815C16.2874 26.1345 15.8312 25.2349 15.786 24.1612C15.7416 23.1026 16.0709 22.1418 16.6559 21.2269C16.9182 21.5089 17.1734 21.7781 17.4234 22.0518C18.2707 22.9792 19.1922 23.8268 20.2134 24.5591C20.8929 25.047 21.6224 25.4539 22.4508 25.6488C23.7679 25.9586 24.9036 25.4955 25.6184 24.3559C26.1352 23.5323 26.3589 22.6252 26.41 21.6642C26.474 20.4488 26.1255 19.3264 25.6444 18.2351C25.0022 16.7775 24.1158 15.4702 23.1277 14.2272C21.9995 12.8081 20.7472 11.5076 19.3202 10.3212C19.5449 13.152 19.77 15.9832 20.0015 18.8948C20.6456 17.8957 21.2534 16.953 21.8723 15.993C21.9337 16.0463 21.9826 16.0744 22.0116 16.1167C22.9395 17.4698 23.7488 18.8832 24.2114 20.4686C24.3713 21.0169 24.4666 21.5771 24.3717 22.149C24.211 23.1139 23.4973 23.7814 22.3752 23.3111C21.4439 22.9211 20.6655 22.3039 19.9274 21.636C17.7407 19.6582 15.8774 17.3929 14.0861 15.0652C13.981 14.9284 13.8768 14.7904 13.7089 14.6625C13.5715 15.9045 13.4341 17.1469 13.2933 18.4196C12.3417 18.045 11.6608 17.4626 11.5738 16.4445C11.4707 15.2363 12.0541 14.3603 13.1635 13.7277C13.0697 13.6092 12.9704 13.4978 12.8872 13.3751C11.9676 12.0202 11.1293 10.6204 10.4973 9.10579C10.1913 8.37342 9.94319 7.62455 9.86377 6.8303C9.84794 6.67126 9.8261 6.50702 9.8521 6.35254C9.86712 6.26291 9.95485 6.1553 10.0388 6.11215C10.824 5.70903 11.671 5.5969 12.5409 5.62465C13.5482 5.6569 14.5174 5.87815 15.4709 6.19727C16.6826 6.60338 17.8341 7.14413 18.9083 7.82291C19.8633 8.42553 20.7841 9.0878 21.6788 9.77628C22.7497 10.6001 23.7077 11.5526 24.5968 12.5696C25.9331 14.0978 27.0714 15.7538 27.8197 17.652C28.2535 18.7519 28.5464 19.8863 28.5674 21.0754C28.5879 22.2071 28.3695 23.289 27.8758 24.315ZM18.0336 3.40332e-05C8.05507 0.019159 -0.0187677 8.09365 3.2767e-05 18.0345C0.0192676 27.9758 8.12395 36.0191 18.1028 36C28.0816 35.9809 36.1553 27.9068 36.1367 17.9655C36.1174 8.02466 28.0125 -0.0190909 18.0336 3.40332e-05Z" fill="white"/>
<path fill-rule="evenodd" clip-rule="evenodd" d="M49.7924 11.2798V12.4429C52.5727 13.0915 54.7466 15.0459 54.7466 17.9969C54.7465 21.0015 52.5721 22.8702 49.7924 23.5983V24.7436L48.1919 24.7202V23.5983C45.3487 23.0112 43.1485 20.9723 43.1484 17.9969C43.1484 14.8802 45.4093 13.2163 48.1919 12.3961V11.2564L49.7924 11.2798ZM49.7924 22.0506C51.5049 21.2067 53.0068 20.1158 53.0069 18.0314C53.0068 15.9474 51.4968 14.8305 49.7924 13.9623V22.0506ZM48.1919 13.926C46.4475 14.8074 44.8883 15.8859 44.8882 18.0314C44.8883 20.1483 46.3992 21.2749 48.1919 22.0444V13.926Z" fill="white"/>
<path d="M65.3978 23.1392L63.5366 23.1429L63.5239 16.1882L57.1855 23.0992L57.1646 12.2952L59.0252 12.2915L59.0385 18.7188L65.3763 11.9598L65.3978 23.1392Z" fill="white"/>
<path d="M138.278 23.3472L136.417 23.3509L136.404 16.3962L130.066 23.3072L130.045 12.5032L131.906 12.4995L131.919 18.9268L138.257 12.1678L138.278 23.3472Z" fill="white"/>
<path d="M81.0942 23.0764L68.3984 23.0998L68.3775 12.3881L70.2153 12.3844L70.2343 21.4942L73.8341 21.4881L73.8151 12.3783L75.6346 12.3752L75.6535 21.4844L79.2539 21.4782L79.2349 12.3684L81.0734 12.3654L81.0942 23.0764Z" fill="white"/>
<path d="M90.6066 13.9697L85.8397 13.9789L85.8454 16.976L89.0832 16.9698L89.0864 18.4886L85.8485 18.4942L85.8549 21.4918L90.6212 21.4825L90.625 23.0875L84.0955 23.0998L84.074 12.3771L90.6035 12.3647L90.6066 13.9697Z" fill="white"/>
<path d="M104.641 23.0967L102.875 23.0998L102.863 16.5556L99.1226 20.2173L95.3824 16.5556L95.3692 23.0998L93.6047 23.0967L93.6256 12.1869L99.1226 17.4904L104.62 12.1869L104.641 23.0967Z" fill="white"/>
<path fill-rule="evenodd" clip-rule="evenodd" d="M115.292 23.0857L113.479 23.0887L113.477 21.9829L113.475 21.3527L109.437 21.3607L109.44 23.0961L107.626 23.0998L107.62 20.0142C107.614 17.2992 108.496 15.4204 109.913 14.2097C111.219 13.0939 113.055 12.4829 115.271 12.3807L115.292 23.0857ZM112.583 14.6067C110.607 15.345 109.666 16.9748 109.471 19.0671L109.407 19.7557L113.473 19.7483L113.461 14.2786L112.583 14.6067Z" fill="white"/>
<path d="M127.065 23.0838L125.191 23.0875L125.182 18.4868L120.159 18.496L120.167 23.0961L118.294 23.0998L118.272 12.3807L120.146 12.3771L120.155 16.979L125.179 16.9692L125.17 12.3684L127.043 12.3654L127.065 23.0838Z" fill="white"/>
<path fill-rule="evenodd" clip-rule="evenodd" d="M147.809 23.0857L146.095 23.0894L146.089 19.8776L145.441 19.8788C143.622 19.8817 142.407 21.3053 142.41 22.9447V23.0961L140.696 23.0998V22.9484C140.693 21.4067 141.243 20.3451 142.161 19.6856L142.903 19.1508L142.134 18.6535C141.327 18.1318 140.837 17.3594 140.778 16.3046L140.771 16.0892C140.768 14.1124 142.218 12.6758 144.338 12.4386C144.683 12.4055 145.051 12.3708 146.488 12.3678L147.787 12.3647L147.809 23.0857ZM145.429 13.8879C144.749 13.8891 144.033 14.007 143.467 14.3593C142.859 14.7374 142.483 15.3518 142.484 16.1735C142.486 17.001 142.872 17.6 143.495 17.9526C144.064 18.2743 144.778 18.3618 145.438 18.3606L146.086 18.3594L146.077 13.8866L145.429 13.8879Z" fill="white"/>
</svg>
