<svg width="106" height="102" viewBox="0 0 106 102" fill="none" xmlns="http://www.w3.org/2000/svg">
<path d="M44.4887 65.4579V54.8236C44.4887 51.6731 41.8834 49.0968 38.6984 49.0968C35.5135 49.0968 32.9082 51.6731 32.9082 54.8236V76.0939C32.9082 79.2427 35.5135 81.8207 38.6984 81.8207C42.8785 81.8207 44.535 78.5474 44.535 77.3228H47.8475H54.4725C58.0865 80.3828 63.3467 83.456 68.4778 83.456C79.8993 83.456 89.1577 74.3007 89.1577 63.0033C89.1577 56.3108 85.9082 50.3685 80.8831 46.6373C80.8831 46.6373 74.268 40.9154 70.9589 36.0062C67.6513 31.0971 64.3421 22.9157 64.3421 22.9157L62.1483 6.48804" stroke="#323232" stroke-width="2" stroke-linejoin="round"/>
<path d="M18.0347 69.0969V75.6775C18.0347 77.4947 16.5517 78.9678 14.7222 78.9678C12.8928 78.9678 11.4097 77.4947 11.4097 75.6775V55.9356C11.4097 54.1184 12.8928 52.6453 14.7222 52.6453C16.5517 52.6453 18.0347 54.1184 18.0347 55.9356V57.5807" stroke="#323232" stroke-width="2"/>
<path d="M68.5504 72.3873C73.5813 72.3873 77.6597 68.3362 77.6597 63.3389C77.6597 58.3416 73.5813 54.2905 68.5504 54.2905C63.5194 54.2905 59.441 58.3416 59.441 63.3389C59.441 68.3362 63.5194 72.3873 68.5504 72.3873Z" fill="#B8514B"/>
<path d="M67.651 62.186L90.812 86.7285" stroke="#323232" stroke-width="2" stroke-linejoin="round"/>
<path fill-rule="evenodd" clip-rule="evenodd" d="M102.712 98.1008C100.781 100.009 97.6225 100.009 95.693 98.1008L91.0141 93.473C89.0829 91.563 89.0829 88.4388 91.0141 86.5304C92.9436 84.622 96.1021 84.622 98.0332 86.5304L102.712 91.1582C104.643 93.0666 104.643 96.1908 102.712 98.1008Z" stroke="#323232" stroke-width="2" stroke-linejoin="round"/>
<path d="M18.0347 55.9355H32.941V74.0323H18.0347" stroke="#323232" stroke-width="2" stroke-linejoin="round"/>
<path d="M79.231 1.64526H45.316C43.9512 1.64526 42.8349 2.74917 42.8349 4.09984V5.22842C42.8349 6.85713 44.1814 8.19136 45.8294 8.19136H56.07V8.22591L59.3792 27.8247L64.3413 37.6414L64.343 42.9602C59.3792 45.5651 57.4402 48.1112 54.4722 52.6453H44.5342" stroke="#323232" stroke-width="2" stroke-linecap="round" stroke-linejoin="round"/>
<path d="M11.4008 73.6394C6.83284 73.6394 3.12781 69.9756 3.12781 65.458C3.12781 60.9404 6.83284 57.2766 11.4008 57.2766" stroke="#323232" stroke-width="2" stroke-linejoin="round"/>
<path d="M54.4156 78.5476L54.4156 85.0937C54.4156 85.0937 54.4653 92.1284 47.8469 92.1284H29.6281L29.6 86.729" stroke="#323232" stroke-width="2" stroke-linecap="round" stroke-linejoin="round"/>
<path d="M29.5993 40.9146V36.0071H47.7982C47.7982 36.0071 54.4149 36.0071 54.4149 44.1868V57.2774" stroke="#323232" stroke-width="2" stroke-linecap="round" stroke-linejoin="round"/>
</svg>
