<svg width="47" height="112" viewBox="0 0 47 112" fill="none" xmlns="http://www.w3.org/2000/svg">
<path d="M32.7411 27.7714C30.003 27.8921 26.9514 27.9586 23.738 27.9586C16.9352 27.9586 13.9794 27.7381 14.8481 27.7749" stroke="#323232" stroke-width="2"/>
<path d="M9.47737 25.9033C5.99589 25.9033 2.5144 23.8558 2.5144 22.4033C2.5144 19.2848 12.0206 16.4568 23.4033 16.4568C34.786 16.4568 44.2922 19.2848 44.2922 22.4033C44.2922 23.826 40.8107 25.9033 37.3292 25.9033" stroke="#323232" stroke-width="2"/>
<path d="M11.4272 22.6171V4.90356L23.4035 19.2798L35.1013 4.90356V22.6171" stroke="#323232" stroke-width="2" stroke-linecap="round"/>
<path d="M2.5144 22.4033C2.5144 22.4033 5.29959 35.4531 5.29959 43.6676C5.29959 51.8838 3.62848 66.7501 3.62848 72.4218C3.62848 79.0963 6.9707 89.8798 6.9707 89.8798H15.8833C15.8833 89.8798 19.7826 82.1763 19.2255 72.4218C19.1089 70.3708 20.3396 51.8838 23.1248 51.8838H23.6818C26.467 51.8838 27.6977 70.3708 27.5811 72.4218C27.024 82.1763 30.9233 89.8798 30.9233 89.8798H39.8359C39.8359 89.8798 43.1781 79.0963 43.1781 72.4218C43.1781 66.7501 41.507 51.8838 41.507 43.6676C41.507 35.4531 44.2922 22.6168 44.2922 22.6168" stroke="#323232" stroke-width="2"/>
<path d="M36.4164 34.3799V36.9471C36.4164 38.4994 35.0377 39.7716 33.3527 39.7716H14.9704C13.2854 39.7716 11.9067 38.4994 11.9067 36.9471V34.3799" stroke="#323232" stroke-width="2"/>
<path d="M15.1313 39.6821C15.7406 40.6306 16.0852 41.7086 16.0852 42.8514C16.0852 45.3696 14.4107 47.5764 11.9075 48.7891" stroke="#323232" stroke-width="2"/>
<path d="M31.8001 39.6821C31.1909 40.6306 30.8462 41.7086 30.8462 42.8514C30.8462 45.3696 32.5208 47.5764 35.024 48.7891" stroke="#323232" stroke-width="2"/>
<path fill-rule="evenodd" clip-rule="evenodd" d="M16.7192 109.903C16.7192 105.366 13.9758 101.689 10.5918 101.689C7.20776 101.689 4.46436 105.366 4.46436 109.903H16.7192Z" stroke="#323232" stroke-width="2"/>
<path d="M6.13534 103.999L4.46423 89.8799H17.8331L15.0479 103.999" stroke="#323232" stroke-width="2"/>
<path fill-rule="evenodd" clip-rule="evenodd" d="M29.5307 109.903C29.5307 105.366 32.2741 101.689 35.6581 101.689C39.0421 101.689 41.7855 105.366 41.7855 109.903H29.5307Z" stroke="#323232" stroke-width="2"/>
<path d="M40.1146 103.999L41.7857 89.8799H28.4168L31.202 103.999" stroke="#323232" stroke-width="2"/>
<path fill-rule="evenodd" clip-rule="evenodd" d="M14.9086 28.4507C14.9086 30.0554 13.4725 31.3679 11.7179 31.3679H11.1365C9.38179 31.3679 7.94568 30.0554 7.94568 28.4507V22.6179H14.9086V28.4507Z" fill="#CF301B"/>
<path fill-rule="evenodd" clip-rule="evenodd" d="M39.279 28.4507C39.279 30.0554 37.8429 31.3679 36.0882 31.3679H35.5068C33.7522 31.3679 32.316 30.0554 32.316 28.4507V22.6179H39.279V28.4507Z" fill="#CF301B"/>
</svg>
