<svg width="117" height="111" viewBox="0 0 117 111" fill="none" xmlns="http://www.w3.org/2000/svg">
<path fill-rule="evenodd" clip-rule="evenodd" d="M37.7045 55.8473L2.2121 92.1759C0.993361 93.4233 1.20089 95.6826 2.67809 97.1927C4.1534 98.7047 6.36071 98.9191 7.57945 97.6697L43.0719 61.3411C44.2925 60.0937 44.0831 57.8344 42.6059 56.3243C41.1306 54.8123 38.9232 54.5999 37.7045 55.8473Z" stroke="#323232" stroke-width="2"/>
<path d="M42.923 56.9656L90.0877 4.8277C90.0877 4.8277 91.9743 1.93115 94.8042 1.93115C101.407 1.93115 101.407 6.75874 101.407 9.65529V31.8622" stroke="#323232" stroke-width="2"/>
<path d="M101.407 37.6552C101.407 42.9868 97.1832 47.3103 91.9743 47.3103C86.7655 47.3103 82.5414 42.9868 82.5414 37.6552C82.5414 32.3236 86.7655 28 91.9743 28C96.6908 28 110.84 28.9655 110.84 57.931V97.5172C110.84 105.383 105.18 109.103 101.407 109.103C97.6341 109.103 91.9743 105.383 91.9743 97.5858V91.7241L95.7475 97.5172H93.8609" stroke="#323232" stroke-width="2" stroke-linejoin="round"/>
<path fill-rule="evenodd" clip-rule="evenodd" d="M105.18 78.207C105.18 73.9414 107.714 70.4829 110.84 70.4829C113.966 70.4829 116.5 73.9414 116.5 78.207C116.5 82.4727 113.966 85.9312 110.84 85.9312C107.714 85.9312 105.18 82.4727 105.18 78.207Z" fill="#B8514B"/>
<path d="M50.4694 47.3105L56.1291 53.1037" stroke="#323232" stroke-width="2"/>
<path fill-rule="evenodd" clip-rule="evenodd" d="M57.3773 65.3704L53.191 61.0198C52.2797 60.0736 52.3514 58.4515 53.3532 57.4145L59.9034 50.6231C61.1146 49.3679 63.0088 49.2791 64.1143 50.4261L67.9498 54.4118C68.861 55.358 68.7874 56.982 67.7894 58.017L60.8505 65.2082C59.8525 66.2432 58.2885 66.3166 57.3773 65.3704Z" stroke="#323232" stroke-width="2"/>
</svg>
