<svg width="75" height="103" viewBox="0 0 75 103" fill="none" xmlns="http://www.w3.org/2000/svg">
<path d="M20.7061 38.7734C25.7568 38.7734 30.308 40.2871 33.6904 43.4365C36.853 46.3812 39.0392 50.7983 39.626 56.8691C39.2982 56.6757 38.9079 56.4941 38.4668 56.3262C37.3627 55.9059 35.8788 55.5365 34.1172 55.2305C30.5889 54.6175 25.8768 54.2451 20.7061 54.2451C15.529 54.2451 10.8145 54.6623 7.28613 55.3008C5.52417 55.6196 4.04201 55.9961 2.94141 56.4111C2.4976 56.5785 2.10571 56.7566 1.77832 56.9443C2.35449 50.8395 4.54424 46.4003 7.71582 43.4434C11.0988 40.2894 15.6521 38.7735 20.7061 38.7734Z" fill="#CF301B" stroke="#323232"/>
<path fill-rule="evenodd" clip-rule="evenodd" d="M1.11035 60.236C1.11035 45.0744 9.88493 38.2747 20.7074 38.2747C31.5281 38.2747 40.3026 45.0744 40.3026 60.236C40.3026 75.3976 26.0509 93.178 20.7074 93.178C15.3621 93.178 1.11035 75.3976 1.11035 60.236Z" stroke="#323232" stroke-width="2"/>
<path d="M1.11035 58.4052C1.11035 56.5754 9.88493 54.7456 20.7074 54.7456C31.5281 54.7456 40.3026 56.3831 40.3026 58.4052" stroke="#323232" stroke-width="2"/>
<path d="M21.1035 17.0679C23.1757 8.23342 30.9194 1.6709 40.1539 1.6709C47.5157 1.6709 53.9283 5.841 57.2778 12.0063" stroke="#323232" stroke-width="2" stroke-linecap="round"/>
<path d="M66.8042 54.7073C71.2192 50.6846 73.9994 44.8123 73.9994 38.2731C73.9994 26.1439 64.43 16.3118 52.6236 16.3118C43.7726 16.3118 33.1411 23.232 37.5995 33.7004C39.5415 38.2569 44.3419 40.9154 49.0468 39.2545C55.7561 36.8819 59.7494 28.7268 59.7494 21.803C59.7494 20.2913 59.5863 18.8174 59.2791 17.401" stroke="#323232" stroke-width="2" stroke-linecap="round"/>
<path fill-rule="evenodd" clip-rule="evenodd" d="M20.4091 38.2742H15.3623V21.8023C15.3623 19.2859 17.3668 17.2278 19.8155 17.2278H21.5979C24.0466 17.2278 26.0494 19.2859 26.0494 21.8023L25.9019 38.2742H20.4091Z" stroke="#323232" stroke-width="2"/>
<mask id="path-7-inside-1_134_2709" fill="white">
<path fill-rule="evenodd" clip-rule="evenodd" d="M24.1207 98.6692C24.1207 100.691 22.5258 102.329 20.5578 102.329C18.5898 102.329 16.9949 100.691 16.9949 98.6692"/>
</mask>
<path fill-rule="evenodd" clip-rule="evenodd" d="M24.1207 98.6692C24.1207 100.691 22.5258 102.329 20.5578 102.329C18.5898 102.329 16.9949 100.691 16.9949 98.6692" fill="#B8514B"/>
<path d="M24.1207 98.6692H23.1207C23.1207 100.164 21.9486 101.329 20.5578 101.329V102.329V103.329C23.1031 103.329 25.1207 101.218 25.1207 98.6692H24.1207ZM20.5578 102.329V101.329C19.167 101.329 17.9949 100.164 17.9949 98.6692H16.9949H15.9949C15.9949 101.218 18.0125 103.329 20.5578 103.329V102.329Z" fill="#323232" mask="url(#path-7-inside-1_134_2709)"/>
<path d="M25.9021 89.5176V93.179C25.9021 96.1969 23.4967 98.6684 20.5585 98.6684C17.6186 98.6684 15.2133 96.1969 15.2133 93.179V89.5176" stroke="#323232" stroke-width="2"/>
</svg>
