<svg width="104" height="112" viewBox="0 0 104 112" fill="none" xmlns="http://www.w3.org/2000/svg">
<path d="M1.59302 47.4722L46.1556 4.63604C46.1556 4.63604 48.4123 1.93066 49.9395 1.93066C53.5016 1.93066 53.5016 4.45646 53.5016 5.97232V17.4523" stroke="#323232" stroke-width="2" stroke-linecap="round" stroke-linejoin="round"/>
<path d="M58.2762 41.5564V54.7956C58.2762 57.3214 55.2237 59.3412 53.1868 59.3412C51.15 59.3412 48.0975 57.3214 48.0975 54.7956V50.248L50.1325 53.2797H49.115" stroke="#323232" stroke-width="2"/>
<path d="M52.2366 24.8976C51.3125 26.1759 49.8047 27.0101 48.0966 27.0101C45.2854 27.0101 43.0073 24.747 43.0073 21.9585C43.0073 19.1682 45.2854 16.905 48.0966 16.905C50.1335 16.905 58.2753 16.905 58.2753 32.0617V41.5566" stroke="#323232" stroke-width="2" stroke-linecap="round" stroke-linejoin="round"/>
<path d="M58.2759 37.2297C60.0521 37.2297 61.6673 39.0623 61.6675 41.5569C61.6675 44.0535 60.0523 45.885 58.2759 45.885C56.4996 45.8848 54.8853 44.0533 54.8853 41.5569C54.8854 39.0624 56.4998 37.2299 58.2759 37.2297Z" fill="#CF301B" stroke="#323232"/>
<path d="M74.8013 31.427V27.3081" stroke="#323232" stroke-width="2" stroke-linecap="round" stroke-linejoin="round"/>
<path d="M78.6913 30.259L74.8003 31.4273L70.9114 30.259" stroke="#323232" stroke-width="2" stroke-linecap="round" stroke-linejoin="round"/>
<path d="M77.2054 35.0318L74.8008 31.4265L72.3962 35.0318" stroke="#323232" stroke-width="2" stroke-linecap="round" stroke-linejoin="round"/>
<path d="M98.0792 61.4016V57.2827" stroke="#323232" stroke-width="2" stroke-linecap="round" stroke-linejoin="round"/>
<path d="M101.969 60.2332L98.0782 61.4014L94.1873 60.2332" stroke="#323232" stroke-width="2" stroke-linecap="round" stroke-linejoin="round"/>
<path d="M100.483 65.0061L98.0788 61.4009L95.6742 65.0061" stroke="#323232" stroke-width="2" stroke-linecap="round" stroke-linejoin="round"/>
<path d="M25.4618 51.5906V47.4736" stroke="#323232" stroke-width="2" stroke-linecap="round" stroke-linejoin="round"/>
<path d="M29.3519 50.4226L25.461 51.5909L21.5701 50.4226" stroke="#323232" stroke-width="2" stroke-linecap="round" stroke-linejoin="round"/>
<path d="M27.8662 55.1953L25.4616 51.5901L23.057 55.1953" stroke="#323232" stroke-width="2" stroke-linecap="round" stroke-linejoin="round"/>
<path d="M64.4841 71.4131C85.8802 72.8131 102.757 81.1629 102.757 90.484C102.757 101.278 81.6022 110.028 55.5058 110.028C29.4076 110.028 8.25269 101.278 8.25269 90.484C8.25269 82.4161 17.7971 75.4895 34.67 72.506" stroke="#323232" stroke-width="2" stroke-linecap="round" stroke-linejoin="round"/>
<path d="M12.29 96.3836C20.5018 90.1502 36.6724 85.9116 55.2787 85.9116C74.7352 85.9116 91.5284 90.548 99.3433 97.2507" stroke="#323232" stroke-width="2" stroke-linecap="round" stroke-linejoin="round"/>
<path d="M37.5769 64.6057C39.3028 64.4817 41.1169 64.517 42.7146 64.8821C44.092 65.1969 45.2705 65.7491 46.1072 66.6213L37.5095 71.2502L35.6638 71.4875C35.4886 71.1813 35.2987 70.8895 35.0945 70.6116L35.0935 70.6106L34.7478 70.136C33.9451 69.0155 33.17 67.8207 32.5701 66.8625C32.2417 66.3381 31.9664 65.8862 31.7693 65.5579C32.0948 65.4759 32.5348 65.3702 33.0613 65.259C34.2437 65.0094 35.8549 64.7295 37.5769 64.6057Z" fill="#CF301B" stroke="#323232"/>
<path d="M60.5085 86.0522C65.6601 78.1273 62.6563 65.9077 62.6563 65.9077C62.6563 65.9077 45.0286 64.0751 35.2974 73.7361C29.961 79.031 26.0954 83.4859 24.932 88.7479" stroke="#323232" stroke-width="2" stroke-linecap="round" stroke-linejoin="round"/>
<path fill-rule="evenodd" clip-rule="evenodd" d="M49.6699 75.7081C49.6699 74.1092 50.9753 72.8115 52.5881 72.8115C54.1989 72.8115 55.5063 74.1092 55.5063 75.7081C55.5063 77.3089 54.1989 78.6046 52.5881 78.6046C50.9753 78.6046 49.6699 77.3089 49.6699 75.7081Z" stroke="#323232" stroke-width="2" stroke-linecap="round" stroke-linejoin="round"/>
</svg>
