<svg width="476" height="405" viewBox="0 0 476 405" fill="none" xmlns="http://www.w3.org/2000/svg">
<path opacity="0.5" fill-rule="evenodd" clip-rule="evenodd" d="M133.518 119.906C132.019 126.299 126.411 129.694 119.931 128.128C113.666 126.614 110.113 121.059 111.513 114.95C112.941 108.68 119.246 104.79 125.456 106.35C131.305 107.818 134.923 113.902 133.518 119.906ZM347.526 377.557C334.806 403.947 313.502 420.996 287.27 432.753C267.665 441.545 247.024 447.323 226.458 453.325C205.524 459.439 184.537 465.449 165.119 475.68C151.309 482.958 139.073 492.141 129.9 504.963C129.285 505.819 128.442 506.524 127.588 507.42C117.062 480.915 133.29 430.983 179.52 417.409C167.302 405.811 160.207 391.842 159.505 375.17C158.814 358.732 163.936 343.814 173.033 329.606C177.113 333.985 181.082 338.166 184.97 342.416C198.148 356.816 212.479 369.977 228.36 381.349C238.927 388.924 250.273 395.242 263.157 398.27C283.64 403.079 301.302 395.888 312.42 378.193C320.457 365.405 323.935 351.32 324.731 336.396C325.726 317.524 320.305 300.095 312.823 283.151C302.836 260.518 289.05 240.218 273.683 220.916C256.138 198.882 236.662 178.688 214.468 160.265C217.963 204.222 221.464 248.184 225.065 293.394C235.081 277.881 244.535 263.243 254.159 248.336C255.114 249.163 255.874 249.6 256.326 250.257C270.756 271.267 283.342 293.213 290.537 317.832C293.025 326.346 294.506 335.045 293.03 343.925C290.531 358.907 279.431 369.272 261.981 361.97C247.497 355.914 235.391 346.329 223.911 335.959C189.905 305.249 160.927 270.073 133.067 233.93C131.434 231.805 129.812 229.662 127.201 227.676C125.065 246.961 122.928 266.253 120.739 286.016C105.939 280.199 95.3494 271.156 93.9965 255.346C92.3927 236.586 101.466 222.983 118.719 213.16C117.261 211.32 115.716 209.59 114.422 207.686C100.12 186.648 87.0834 164.911 77.2542 141.393C72.495 130.021 68.6371 118.392 67.4019 106.059C67.1558 103.59 66.8162 101.04 67.2205 98.6409C67.454 97.2491 68.8185 95.5781 70.1241 94.9081C82.3358 88.6485 95.5076 86.9074 109.037 87.3383C124.702 87.8391 139.776 91.2746 154.604 96.2298C173.449 102.536 191.356 110.932 208.064 121.472C222.916 130.83 237.235 141.113 251.151 151.804C267.805 164.596 282.704 179.386 296.531 195.179C317.314 218.907 335.016 244.621 346.654 274.097C353.4 291.175 357.955 308.79 358.283 327.254C358.601 344.827 355.204 361.626 347.526 377.557ZM194.46 0.00052846C39.273 0.297496 -86.2919 125.676 -85.9995 280.036C-85.7003 434.401 40.3442 559.297 195.537 559C350.727 558.703 476.289 433.33 476 278.965C475.7 124.605 349.652 -0.29644 194.46 0.00052846Z" fill="#243532"/>
</svg>
