<svg width="48" height="47" viewBox="0 0 48 47" fill="none" xmlns="http://www.w3.org/2000/svg">
<path fill-rule="evenodd" clip-rule="evenodd" d="M25.3305 13.728C25.1598 14.46 24.5212 14.8487 23.7833 14.6694C23.0698 14.4961 22.6652 13.86 22.8246 13.1607C22.9872 12.4428 23.7052 11.9974 24.4125 12.1761C25.0785 12.3441 25.4905 13.0407 25.3305 13.728ZM49.7016 43.2266C48.253 46.2479 45.827 48.1999 42.8397 49.546C40.6071 50.5526 38.2564 51.214 35.9144 51.9013C33.5305 52.6013 31.1405 53.2893 28.9292 54.4606C27.3565 55.2939 25.9631 56.3453 24.9185 57.8133C24.8485 57.9113 24.7525 57.992 24.6552 58.0946C23.4566 55.06 25.3046 49.3433 30.5692 47.7893C29.1779 46.4614 28.3698 44.862 28.2898 42.9533C28.2112 41.0713 28.7945 39.3633 29.8305 37.7367C30.2951 38.238 30.7471 38.7167 31.1898 39.2033C32.6905 40.852 34.3225 42.3587 36.131 43.6607C37.3344 44.5279 38.6264 45.2513 40.0937 45.5979C42.4263 46.1486 44.4376 45.3253 45.7037 43.2994C46.6189 41.8353 47.015 40.2226 47.1056 38.514C47.2189 36.3534 46.6017 34.358 45.7496 32.418C44.6123 29.8267 43.0423 27.5026 41.2923 25.2927C39.2943 22.77 37.0764 20.458 34.5491 18.3487C34.9471 23.3814 35.3458 28.4146 35.7558 33.5907C36.8964 31.8147 37.973 30.1387 39.069 28.432C39.1777 28.5267 39.2643 28.5767 39.3158 28.652C40.959 31.0574 42.3923 33.5701 43.2117 36.3886C43.495 37.3634 43.6637 38.3593 43.4956 39.376C43.211 41.0913 41.947 42.278 39.9597 41.442C38.3104 40.7487 36.9317 39.6513 35.6244 38.464C31.7518 34.948 28.4518 30.9207 25.2792 26.7826C25.0931 26.5393 24.9085 26.2941 24.6112 26.0667C24.3679 28.2746 24.1246 30.4833 23.8752 32.746C22.1898 32.08 20.9839 31.0447 20.8299 29.2346C20.6472 27.0867 21.6805 25.5293 23.6452 24.4047C23.4792 24.1941 23.3033 23.996 23.1559 23.778C21.5272 21.3693 20.0426 18.8807 18.9233 16.1881C18.3813 14.8861 17.9419 13.5547 17.8013 12.1428C17.7733 11.86 17.7346 11.568 17.7806 11.2934C17.8072 11.1341 17.9626 10.9427 18.1113 10.866C19.5019 10.1494 21.0019 9.95004 22.5426 9.99938C24.3265 10.0567 26.0431 10.45 27.7318 11.0174C29.8779 11.7393 31.9171 12.7007 33.8197 13.9074C35.511 14.9787 37.1417 16.1561 38.7264 17.38C40.623 18.8447 42.3197 20.538 43.8943 22.346C46.261 25.0627 48.2769 28.0067 49.6022 31.3814C50.3705 33.3366 50.8891 35.3534 50.9265 37.4673C50.9628 39.4793 50.576 41.4026 49.7016 43.2266ZM32.2705 6.05035e-05C14.598 0.0340604 0.298793 14.3887 0.332089 32.0614C0.366155 49.7347 14.72 64.034 32.3931 63.9999C50.0661 63.966 64.3649 49.612 64.332 31.9387C64.2979 14.2661 49.9436 -0.0339394 32.2705 6.05035e-05Z" fill="#009FFF"/>
</svg>
