<svg width="48" height="47" viewBox="0 0 48 47" fill="none" xmlns="http://www.w3.org/2000/svg">
<path fill-rule="evenodd" clip-rule="evenodd" d="M24.9985 13.728C24.8278 14.46 24.1891 14.8487 23.4512 14.6694C22.7378 14.4961 22.3332 13.86 22.4925 13.1607C22.6552 12.4428 23.3732 11.9974 24.0805 12.1761C24.7465 12.3441 25.1585 13.0407 24.9985 13.728ZM49.3695 43.2266C47.921 46.2479 45.4949 48.1999 42.5077 49.546C40.275 50.5526 37.9244 51.214 35.5824 51.9013C33.1985 52.6013 30.8085 53.2893 28.5971 54.4606C27.0245 55.2939 25.6311 56.3453 24.5865 57.8133C24.5165 57.9113 24.4205 57.992 24.3232 58.0946C23.1245 55.06 24.9725 49.3433 30.2371 47.7893C28.8458 46.4614 28.0378 44.862 27.9578 42.9533C27.8791 41.0713 28.4624 39.3633 29.4985 37.7367C29.9631 38.238 30.4151 38.7167 30.8578 39.2033C32.3585 40.852 33.9904 42.3587 35.799 43.6607C37.0024 44.5279 38.2944 45.2513 39.7616 45.5979C42.0943 46.1486 44.1056 45.3253 45.3716 43.2994C46.2869 41.8353 46.6829 40.2226 46.7736 38.514C46.8869 36.3534 46.2696 34.358 45.4176 32.418C44.2803 29.8267 42.7103 27.5026 40.9603 25.2927C38.9623 22.77 36.7444 20.458 34.217 18.3487C34.6151 23.3814 35.0137 28.4146 35.4237 33.5907C36.5644 31.8147 37.641 30.1387 38.737 28.432C38.8457 28.5267 38.9323 28.5767 38.9837 28.652C40.627 31.0574 42.0603 33.5701 42.8796 36.3886C43.1629 37.3634 43.3316 38.3593 43.1636 39.376C42.879 41.0913 41.6149 42.278 39.6277 41.442C37.9783 40.7487 36.5997 39.6513 35.2924 38.464C31.4198 34.948 28.1198 30.9207 24.9472 26.7826C24.7611 26.5393 24.5765 26.2941 24.2791 26.0667C24.0358 28.2746 23.7925 30.4833 23.5432 32.746C21.8578 32.08 20.6519 31.0447 20.4978 29.2346C20.3152 27.0867 21.3485 25.5293 23.3132 24.4047C23.1472 24.1941 22.9712 23.996 22.8239 23.778C21.1952 21.3693 19.7106 18.8807 18.5912 16.1881C18.0493 14.8861 17.6099 13.5547 17.4693 12.1428C17.4412 11.86 17.4026 11.568 17.4486 11.2934C17.4752 11.1341 17.6306 10.9427 17.7793 10.866C19.1699 10.1494 20.6699 9.95004 22.2106 9.99938C23.9945 10.0567 25.7111 10.45 27.3998 11.0174C29.5458 11.7393 31.5851 12.7007 33.4877 13.9074C35.179 14.9787 36.8097 16.1561 38.3944 17.38C40.291 18.8447 41.9877 20.538 43.5623 22.346C45.929 25.0627 47.9449 28.0067 49.2702 31.3814C50.0384 33.3366 50.5571 35.3534 50.5945 37.4673C50.6307 39.4793 50.2439 41.4026 49.3695 43.2266ZM31.9385 6.05035e-05C14.266 0.0340604 -0.0332386 14.3887 5.80322e-05 32.0614C0.0341239 49.7347 14.3879 64.034 32.0611 63.9999C49.734 63.966 64.0329 49.612 63.9999 31.9387C63.9659 14.2661 49.6116 -0.0339394 31.9385 6.05035e-05Z" fill="#CF301B"/>
</svg>
