<svg width="48" height="48" viewBox="0 0 48 48" fill="none" xmlns="http://www.w3.org/2000/svg">
<path fill-rule="evenodd" clip-rule="evenodd" d="M18.7489 10.296C18.6209 10.845 18.1418 11.1365 17.5884 11.002C17.0534 10.8721 16.7499 10.395 16.8694 9.87051C16.9914 9.33207 17.5299 8.99803 18.0603 9.13204C18.5599 9.25806 18.8689 9.78051 18.7489 10.296ZM37.0271 32.42C35.9407 34.686 34.1212 36.15 31.8808 37.1595C30.2063 37.9144 28.4433 38.4105 26.6868 38.926C24.8988 39.451 23.1063 39.967 21.4479 40.8455C20.2684 41.4705 19.2233 42.259 18.4399 43.36C18.3874 43.4335 18.3153 43.494 18.2424 43.571C17.3434 41.295 18.7294 37.0075 22.6779 35.842C21.6344 34.846 21.0284 33.6465 20.9684 32.215C20.9093 30.8035 21.3468 29.5225 22.1239 28.3025C22.4723 28.6785 22.8113 29.0375 23.1434 29.4025C24.2688 30.639 25.4928 31.769 26.8493 32.7455C27.7518 33.396 28.7208 33.9385 29.8212 34.1985C31.5707 34.6115 33.0792 33.994 34.0287 32.4745C34.7152 31.3765 35.0122 30.167 35.0802 28.8855C35.1652 27.265 34.7022 25.7685 34.0632 24.3135C33.2102 22.37 32.0327 20.627 30.7202 18.9696C29.2217 17.0775 27.5583 15.3435 25.6628 13.7616C25.9613 17.5361 26.2603 21.311 26.5678 25.193C27.4233 23.861 28.2307 22.604 29.0528 21.324C29.1343 21.395 29.1992 21.4325 29.2378 21.489C30.4703 23.293 31.5452 25.1775 32.1597 27.2915C32.3722 28.0225 32.4987 28.7695 32.3727 29.532C32.1592 30.8185 31.2112 31.7085 29.7208 31.0815C28.4838 30.5615 27.4497 29.7385 26.4693 28.848C23.5648 26.211 21.0898 23.1905 18.7104 20.087C18.5708 19.9045 18.4324 19.7206 18.2094 19.55C18.0269 21.206 17.8444 22.8625 17.6574 24.5595C16.3934 24.06 15.4889 23.2835 15.3734 21.926C15.2364 20.315 16.0114 19.147 17.4849 18.3035C17.3604 18.1455 17.2284 17.997 17.1179 17.8335C15.8964 16.027 14.7829 14.1605 13.9434 12.141C13.5369 11.1646 13.2074 10.1661 13.1019 9.10707C13.0809 8.89501 13.0519 8.67602 13.0864 8.47006C13.1064 8.35055 13.2229 8.20706 13.3344 8.14954C14.3774 7.61204 15.5024 7.46253 16.6579 7.49954C17.9959 7.54253 19.2833 7.83753 20.5498 8.26302C22.1594 8.80451 23.6888 9.52551 25.1158 10.4305C26.3843 11.234 27.6072 12.1171 28.7958 13.035C30.2182 14.1335 31.4908 15.4035 32.6717 16.7595C34.4467 18.7971 35.9587 21.005 36.9526 23.536C37.5288 25.0025 37.9178 26.515 37.9459 28.1005C37.973 29.6095 37.6829 31.052 37.0271 32.42ZM23.9538 4.53776e-05C10.6995 0.0255453 -0.024929 10.7915 4.35241e-05 24.046C0.0255929 37.301 10.791 48.0255 24.0458 48C37.3005 47.9745 48.0247 37.209 48 23.954C47.9744 10.6996 37.2087 -0.0254546 23.9538 4.53776e-05Z" fill="#C7C7C7"/>
</svg>
