<svg width="40" height="30" viewBox="0 0 40 30" fill="none" xmlns="http://www.w3.org/2000/svg">
<path fill-rule="evenodd" clip-rule="evenodd" d="M10.2727 0.260621C10.0815 0.451984 10.0072 0.596151 10.0072 0.776184C10.0072 0.913708 10.3911 2.08634 10.8604 3.38212C11.6301 5.50735 12.2723 7.47951 12.2723 7.71767C12.2723 7.76722 11.8065 8.0407 11.2374 8.32544C10.0419 8.92336 9.35468 9.30914 8.50012 9.86174C8.16004 10.0817 7.86488 10.2242 7.83137 10.1847C7.79841 10.1458 7.58034 9.87275 7.34672 9.57801C6.11647 8.02554 4.02212 6.9791 1.59911 6.7064C0.700106 6.60513 0.437513 6.66061 0.163126 7.0095C-0.241621 7.52428 0.153909 10.884 0.832497 12.6947C1.16421 13.5798 1.72947 14.5809 2.25341 15.2115C2.5228 15.5357 2.74329 15.8139 2.74329 15.8297C2.74329 15.8456 2.54123 16.0995 2.29418 16.3941C0.899668 18.0574 0.00956854 20.9012 0.00956854 23.6935V24.4681L0.27513 24.7338C0.521399 24.9802 0.576698 24.9995 1.03667 24.9994C1.98652 24.9992 3.59168 24.6189 4.65002 24.1433C5.93034 23.568 6.92065 22.7289 7.86667 21.418C7.87706 21.4035 8.14325 21.5641 8.45825 21.7747C9.5872 22.5297 11.4871 23.5114 13.3657 24.3105C13.7739 24.4842 14.117 24.6345 14.1283 24.6446C14.1396 24.6547 14.0622 24.8588 13.9563 25.0984C13.5954 25.9148 13.387 27.0784 13.3583 28.4376C13.3362 29.48 13.3385 29.4923 13.6061 29.76C13.8327 29.9867 13.8804 30.0004 14.4457 30C15.2024 29.9996 16.914 29.7499 17.8911 29.4975C19.7922 29.0064 21.4611 28.1289 22.5015 27.0734C22.9254 26.6434 22.9317 26.6404 23.3998 26.6397C23.9098 26.639 25.4589 26.4662 26.2142 26.3258C29.202 25.7706 31.974 24.5331 34.4731 22.6389C35.2578 22.0442 36.8154 20.5396 37.5364 19.6797C38.7542 18.2278 40 16.2849 40 15.8379C40 15.3429 38.713 13.3632 37.3766 11.8024C34.8476 8.84874 31.697 6.83251 27.907 5.74232C27.0801 5.50446 25.2901 5.15213 24.9086 5.15213C24.8232 5.15213 24.4312 4.84864 24.0256 4.46841C21.8535 2.43242 17.5808 0.889173 11.9767 0.116455C10.6883 -0.0611557 10.5857 -0.0524821 10.2727 0.260621ZM12.1942 1.92897C12.1942 1.96124 12.4564 2.73021 12.7767 3.6378C13.0971 4.5453 13.4707 5.67051 13.6068 6.13817C13.7428 6.60576 13.8774 7.01442 13.9059 7.04615C13.9344 7.07787 14.4659 6.90823 15.0871 6.66913C17.1073 5.89156 19.1719 5.33349 20.8616 5.10845C21.314 5.04821 21.7544 4.9971 21.8403 4.99492C21.9578 4.99195 21.9192 4.94217 21.6841 4.79386C19.977 3.71679 17.1172 2.76232 13.7331 2.14018C12.0705 1.83458 12.1942 1.85153 12.1942 1.92897ZM21.2154 6.76297C19.1231 7.07764 17.2104 7.62195 14.8498 8.57424C12.3504 9.58254 9.64797 11.0055 8.60728 11.8615C8.0421 12.3262 7.87347 12.418 7.58377 12.4185C7.20511 12.4192 6.99618 12.2499 6.73343 11.7292C6.08772 10.4495 5.06828 9.54855 3.59605 8.95649C3.04939 8.73661 1.98769 8.43398 1.76313 8.43398C1.6987 8.43398 1.78657 9.36235 1.93333 10.2312C2.27364 12.2469 3.1742 14.0097 4.31041 14.8843C4.92628 15.3584 5.03985 15.5389 4.98541 15.9565C4.95198 16.213 4.88411 16.3307 4.68244 16.4823C4.5395 16.5898 4.15553 16.9449 3.8292 17.2715C3.33104 17.77 3.16491 18.0082 2.79343 18.7562C2.49062 19.3657 2.27996 19.9306 2.12602 20.5455C1.89701 21.46 1.6712 23.0934 1.76134 23.1836C1.84194 23.2642 3.18756 22.9061 3.77812 22.6468C5.06211 22.0829 6.06968 21.1832 6.63416 20.0962C6.86449 19.6527 7.03968 19.4149 7.19543 19.3343C7.62368 19.1128 7.81098 19.1725 8.56893 19.772C10.6643 21.4291 16.046 23.8118 19.384 24.56C20.7819 24.8734 21.3567 24.9388 22.6995 24.9378C28.7538 24.9331 34.1277 21.9735 37.6071 16.7275L38.1946 15.8419L37.7664 15.1778C35.1755 11.1599 31.4945 8.41468 27.1938 7.29299C25.7321 6.91167 24.75 6.78423 23.0509 6.75508C22.1703 6.74 21.3443 6.74352 21.2154 6.76297ZM21.9742 8.54908C21.5487 8.90727 20.8385 10.5161 20.4736 11.9485C19.8687 14.3225 19.8554 17.1956 20.4381 19.5297C20.6598 20.4173 20.9016 21.1363 21.0595 21.3775C21.2228 21.6267 21.677 21.7394 21.9875 21.6078C22.5497 21.3697 22.6517 21.0102 22.3923 20.1792C21.9163 18.654 21.7231 17.3942 21.7231 15.8152C21.7231 13.697 22.1211 11.8824 22.9821 10.0749C23.4296 9.13567 23.4393 8.89007 23.0423 8.55587C22.7234 8.28747 22.2883 8.28465 21.9742 8.54908ZM25.3029 8.50563C25.073 8.68652 24.4843 9.86096 24.1572 10.7914C23.2314 13.4241 23.081 16.6114 23.7481 19.4636C24.0808 20.8861 24.8506 22.7234 25.2849 23.1316C25.3794 23.2205 25.5999 23.3125 25.7748 23.3359C26.061 23.3743 26.1202 23.3511 26.3683 23.1029C26.744 22.727 26.738 22.4209 26.3399 21.6454C25.7888 20.5722 25.3683 19.1715 25.1536 17.6935C25.0239 16.8005 25.0455 14.7261 25.1948 13.7474C25.4143 12.3082 25.9288 10.6956 26.4552 9.79712C26.8763 9.07816 26.5682 8.35584 25.8403 8.35584C25.6166 8.35584 25.4257 8.40905 25.3029 8.50563ZM29.4273 11.7522C29.2614 11.8113 29.021 11.9592 28.8931 12.0808C28.0626 12.8705 28.1663 14.0941 29.1195 14.7532C29.3757 14.9303 29.4973 14.9586 30.0024 14.9586C30.5075 14.9586 30.6291 14.9303 30.8853 14.7532C31.8613 14.0784 31.944 12.8181 31.0629 12.0442C30.6163 11.6519 30.0113 11.5439 29.4273 11.7522ZM15.6757 25.4878C15.3771 25.9446 15.0841 27.1529 15.0841 27.9279V28.2572L15.8314 28.1537C17.2827 27.9527 18.5037 27.5893 19.6143 27.0277C20.5839 26.5373 20.5932 26.5206 19.9601 26.413C19.2885 26.2989 17.6064 25.8627 16.6256 25.5484C16.22 25.4184 15.8662 25.312 15.8394 25.312C15.8126 25.312 15.7389 25.3911 15.6757 25.4878Z" fill="white"/>
</svg>
