<svg width="40" height="40" viewBox="0 0 40 40" fill="none" xmlns="http://www.w3.org/2000/svg">
<path d="M28.3359 35.4166H11.6693C10.9859 35.4166 10.4193 34.85 10.4193 34.1666C10.4193 33.4833 10.9859 32.9166 11.6693 32.9166H28.3359C33.1026 32.9166 35.4193 30.6 35.4193 25.8333V14.1666C35.4193 9.39998 33.1026 7.08331 28.3359 7.08331H11.6693C6.9026 7.08331 4.58594 9.39998 4.58594 14.1666C4.58594 14.85 4.01927 15.4166 3.33594 15.4166C2.6526 15.4166 2.08594 14.85 2.08594 14.1666C2.08594 8.08331 5.58594 4.58331 11.6693 4.58331H28.3359C34.4193 4.58331 37.9193 8.08331 37.9193 14.1666V25.8333C37.9193 31.9166 34.4193 35.4166 28.3359 35.4166Z" fill="white"/>
<path d="M20.0019 21.4499C18.6019 21.4499 17.1852 21.0166 16.1019 20.1333L10.8852 15.9666C10.3519 15.5333 10.2519 14.7499 10.6852 14.2166C11.1186 13.6833 11.9019 13.5833 12.4352 14.0166L17.6519 18.1833C18.9186 19.2 21.0686 19.2 22.3352 18.1833L27.5519 14.0166C28.0852 13.5833 28.8852 13.6666 29.3019 14.2166C29.7352 14.7499 29.6519 15.55 29.1019 15.9666L23.8852 20.1333C22.8186 21.0166 21.4019 21.4499 20.0019 21.4499Z" fill="white"/>
<path d="M13.3359 28.75H3.33594C2.6526 28.75 2.08594 28.1833 2.08594 27.5C2.08594 26.8167 2.6526 26.25 3.33594 26.25H13.3359C14.0193 26.25 14.5859 26.8167 14.5859 27.5C14.5859 28.1833 14.0193 28.75 13.3359 28.75Z" fill="white"/>
<path d="M8.33594 22.0833H3.33594C2.6526 22.0833 2.08594 21.5166 2.08594 20.8333C2.08594 20.15 2.6526 19.5833 3.33594 19.5833H8.33594C9.01927 19.5833 9.58594 20.15 9.58594 20.8333C9.58594 21.5166 9.01927 22.0833 8.33594 22.0833Z" fill="white"/>
</svg>
