<svg width="40" height="40" viewBox="0 0 40 40" fill="none" xmlns="http://www.w3.org/2000/svg">
<path d="M8.33073 39.5833C5.56406 39.5833 2.96406 38.1167 1.56406 35.7333C0.81406 34.5333 0.414062 33.1167 0.414062 31.6667C0.414062 27.3 3.96406 23.75 8.33073 23.75C12.6974 23.75 16.2474 27.3 16.2474 31.6667C16.2474 33.1167 15.8474 34.5334 15.0974 35.75C13.6974 38.1167 11.0974 39.5833 8.33073 39.5833ZM8.33073 26.25C5.3474 26.25 2.91406 28.6833 2.91406 31.6667C2.91406 32.65 3.18073 33.6166 3.6974 34.45C4.68073 36.1166 6.41406 37.0833 8.33073 37.0833C10.2474 37.0833 11.9807 36.1 12.9641 34.4667C13.4807 33.6167 13.7474 32.6667 13.7474 31.6667C13.7474 28.6833 11.3141 26.25 8.33073 26.25Z" fill="white"/>
<path d="M7.38021 34.5668C7.06354 34.5668 6.74688 34.4501 6.49688 34.2001L4.84687 32.5502C4.36354 32.0668 4.36354 31.2667 4.84687 30.7834C5.33021 30.3001 6.13021 30.3001 6.61354 30.7834L7.41354 31.5835L10.0802 29.1167C10.5802 28.6501 11.3802 28.6835 11.8469 29.1835C12.3135 29.6835 12.2802 30.4835 11.7802 30.9501L8.23021 34.2334C7.98021 34.4501 7.68021 34.5668 7.38021 34.5668Z" fill="white"/>
<path d="M10.32 13.0166C9.92 13.0166 9.55333 12.8333 9.30333 12.4999C9.02 12.1166 8.98667 11.6165 9.20333 11.1999C9.48667 10.6332 9.88667 10.0833 10.4033 9.58325L15.82 4.1499C18.5867 1.3999 23.0867 1.3999 25.8533 4.1499L28.77 7.11662C30.0033 8.33328 30.7533 9.96662 30.8367 11.7C30.8533 12.0833 30.7033 12.4499 30.42 12.6999C30.1367 12.9499 29.7533 13.0666 29.3867 12.9999C29.0533 12.9499 28.7033 12.9333 28.3367 12.9333H11.67C11.27 12.9333 10.8867 12.9666 10.5033 13.0166C10.4533 13.0166 10.3867 13.0166 10.32 13.0166ZM13.1033 10.4166H28.0367C27.82 9.84992 27.47 9.33326 27.0033 8.8666L24.07 5.89988C22.2867 4.13322 19.37 4.13322 17.57 5.89988L13.1033 10.4166Z" fill="white"/>
<path d="M28.3302 37.9166H12.7135C12.1802 37.9166 11.7135 37.5833 11.5302 37.1C11.3469 36.6 11.4969 36.0499 11.8969 35.7166C12.2969 35.3833 12.6635 34.95 12.9302 34.4833C13.4635 33.6333 13.7302 32.6666 13.7302 31.6833C13.7302 28.7 11.2969 26.2666 8.31355 26.2666C6.76355 26.2666 5.28021 26.9333 4.24687 28.1166C3.89687 28.5 3.34688 28.65 2.86354 28.4667C2.38021 28.2833 2.04688 27.8166 2.04688 27.3V20C2.04688 14.8666 5.21355 11.15 10.1302 10.5333C10.5802 10.4666 11.0969 10.4166 11.6302 10.4166H28.2969C28.6969 10.4166 29.2135 10.4333 29.7469 10.5166C34.6635 11.0833 37.8802 14.8166 37.8802 20V28.3333C37.9136 34.0666 34.0635 37.9166 28.3302 37.9166ZM15.2969 35.4166H28.3302C32.6302 35.4166 35.4135 32.6333 35.4135 28.3333V20C35.4135 16.1 33.1302 13.4166 29.4302 12.9833C29.0302 12.9166 28.6802 12.9166 28.3302 12.9166H11.6635C11.2635 12.9166 10.8802 12.9499 10.4969 12.9999C6.83021 13.4666 4.58021 16.1333 4.58021 20V24.7C5.71354 24.0833 7.01354 23.75 8.33021 23.75C12.6969 23.75 16.2469 27.3 16.2469 31.6666C16.2469 32.9833 15.9135 34.2833 15.2969 35.4166Z" fill="white"/>
<path d="M36.6693 28.75H31.6693C29.1359 28.75 27.0859 26.7 27.0859 24.1667C27.0859 21.6334 29.1359 19.5834 31.6693 19.5834H36.6693C37.3526 19.5834 37.9193 20.15 37.9193 20.8334C37.9193 21.5167 37.3526 22.0834 36.6693 22.0834H31.6693C30.5193 22.0834 29.5859 23.0167 29.5859 24.1667C29.5859 25.3167 30.5193 26.25 31.6693 26.25H36.6693C37.3526 26.25 37.9193 26.8167 37.9193 27.5C37.9193 28.1834 37.3526 28.75 36.6693 28.75Z" fill="white"/>
</svg>
