<svg width="40" height="40" viewBox="0 0 40 40" fill="none" xmlns="http://www.w3.org/2000/svg">
<path d="M31.6693 22.2666H3.33594C2.6526 22.2666 2.08594 21.6999 2.08594 21.0166C2.08594 20.3333 2.6526 19.7666 3.33594 19.7666H31.6693C32.3526 19.7666 32.9193 20.3333 32.9193 21.0166C32.9193 21.6999 32.3526 22.2666 31.6693 22.2666Z" fill="white"/>
<path d="M25.3692 36.25H9.63599C3.91932 36.25 2.08594 34.4333 2.08594 28.7833V17.1333C2.08594 12.65 3.10264 9.99996 8.26931 9.69996C8.70264 9.68329 9.15265 9.66663 9.63599 9.66663H25.3692C31.0859 9.66663 32.9193 11.4833 32.9193 17.1333V29.05C32.8526 34.5 31.0192 36.25 25.3692 36.25ZM9.63599 12.1666C9.18599 12.1666 8.76932 12.1833 8.38599 12.2C5.40265 12.3833 4.58594 13.0166 4.58594 17.1333V28.7833C4.58594 33.05 5.28599 33.75 9.63599 33.75H25.3692C29.6692 33.75 30.3693 33.0833 30.4193 29.0333V17.1333C30.4193 12.8666 29.7192 12.1666 25.3692 12.1666H9.63599Z" fill="white"/>
<path d="M31.6693 30.3C31.3526 30.3 31.0359 30.1833 30.8193 29.9667C30.5693 29.7333 30.4193 29.4 30.4193 29.05V17.1333C30.4193 12.8667 29.7192 12.1667 25.3692 12.1667H9.63599C9.18599 12.1667 8.76932 12.1833 8.38599 12.2C8.05265 12.2167 7.71924 12.0833 7.46924 11.85C7.21924 11.6167 7.08594 11.2833 7.08594 10.9333C7.1526 5.5 8.98599 3.75 14.636 3.75H30.3692C36.0859 3.75 37.9193 5.56667 37.9193 11.2167V22.8667C37.9193 27.35 36.9026 30 31.7359 30.3C31.7192 30.3 31.6859 30.3 31.6693 30.3ZM9.63599 9.66667H25.3692C31.0859 9.66667 32.9193 11.4833 32.9193 17.1333V27.6667C34.8526 27.3167 35.4193 26.3167 35.4193 22.8667V11.2167C35.4193 6.95 34.7192 6.25 30.3692 6.25H14.636C10.836 6.25 9.85265 6.76667 9.63599 9.66667Z" fill="white"/>
<path d="M11.6011 30.9333H8.73438C8.05104 30.9333 7.48438 30.3667 7.48438 29.6833C7.48438 29 8.05104 28.4333 8.73438 28.4333H11.6011C12.2844 28.4333 12.8511 29 12.8511 29.6833C12.8511 30.3667 12.3011 30.9333 11.6011 30.9333Z" fill="white"/>
<path d="M20.913 30.9333H15.1797C14.4964 30.9333 13.9297 30.3667 13.9297 29.6833C13.9297 29 14.4964 28.4333 15.1797 28.4333H20.913C21.5964 28.4333 22.163 29 22.163 29.6833C22.163 30.3667 21.613 30.9333 20.913 30.9333Z" fill="white"/>
</svg>
