<svg width="40" height="40" viewBox="0 0 40 40" fill="none" xmlns="http://www.w3.org/2000/svg">
<path d="M9.18229 10.8333C8.26562 10.8333 7.51562 10.0833 7.51562 9.16667C7.51562 8.25 8.24896 7.5 9.18229 7.5H9.19896C10.1156 7.5 10.8656 8.25 10.8656 9.16667C10.8656 10.0833 10.1156 10.8333 9.18229 10.8333Z" fill="white"/>
<path d="M30.8464 32.5C29.9297 32.5 29.1797 31.75 29.1797 30.8333C29.1797 29.9166 29.913 29.1666 30.8464 29.1666H30.863C31.7797 29.1666 32.5297 29.9166 32.5297 30.8333C32.5297 31.75 31.7797 32.5 30.8464 32.5Z" fill="white"/>
<path d="M9.11458 16.25C5.21458 16.25 2.03125 13.0667 2.03125 9.16671C2.03125 5.26671 5.21458 2.08337 9.11458 2.08337C13.0146 2.08337 16.1979 5.26671 16.1979 9.16671C16.1979 13.0667 13.0312 16.25 9.11458 16.25ZM9.11458 4.58337C6.58125 4.58337 4.53125 6.63337 4.53125 9.16671C4.53125 11.7 6.58125 13.75 9.11458 13.75C11.6479 13.75 13.6979 11.7 13.6979 9.16671C13.6979 6.63337 11.6479 4.58337 9.11458 4.58337Z" fill="white"/>
<path d="M33.2865 37.9167H28.2865C25.7531 37.9167 23.7031 35.8667 23.7031 33.3333V28.3333C23.7031 25.8 25.7531 23.75 28.2865 23.75H33.2865C35.8198 23.75 37.8698 25.8 37.8698 28.3333V33.3333C37.8698 35.8667 35.8198 37.9167 33.2865 37.9167ZM28.2865 26.25C27.1365 26.25 26.2031 27.1833 26.2031 28.3333V33.3333C26.2031 34.4833 27.1365 35.4167 28.2865 35.4167H33.2865C34.4365 35.4167 35.3698 34.4833 35.3698 33.3333V28.3333C35.3698 27.1833 34.4365 26.25 33.2865 26.25H28.2865Z" fill="white"/>
<path d="M19.9971 32.9167H15.5305C13.5971 32.9167 11.9138 31.75 11.2471 29.95C10.5638 28.15 11.0638 26.1667 12.5138 24.8834L25.8305 13.2334C26.6305 12.5334 26.6471 11.5834 26.4138 10.9334C26.1638 10.2834 25.5305 9.58337 24.4638 9.58337H19.9971C19.3138 9.58337 18.7471 9.01671 18.7471 8.33337C18.7471 7.65004 19.3138 7.08337 19.9971 7.08337H24.4638C26.3971 7.08337 28.0805 8.25004 28.7471 10.05C29.4305 11.85 28.9305 13.8334 27.4805 15.1167L14.1638 26.7667C13.3638 27.4667 13.3471 28.4167 13.5805 29.0667C13.8305 29.7167 14.4638 30.4167 15.5305 30.4167H19.9971C20.6805 30.4167 21.2471 30.9834 21.2471 31.6667C21.2471 32.35 20.6805 32.9167 19.9971 32.9167Z" fill="white"/>
</svg>
