<svg width="40" height="40" viewBox="0 0 40 40" fill="none" xmlns="http://www.w3.org/2000/svg">
<path d="M27.4867 37.9166H12.5033C9.63664 37.9166 7.48665 37.15 6.15331 35.6333C4.81998 34.1167 4.3033 31.9167 4.6533 29.0667L6.15331 16.5667C6.58665 12.8833 7.51998 9.58331 14.02 9.58331H26.02C32.5033 9.58331 33.4366 12.8833 33.8866 16.5667L35.3866 29.0667C35.72 31.9167 35.22 34.1333 33.8866 35.6333C32.5033 37.15 30.37 37.9166 27.4867 37.9166ZM14.0033 12.0833C9.2033 12.0833 8.96997 13.9833 8.61997 16.85L7.11998 29.35C6.86998 31.4666 7.16997 33.0167 8.01997 33.9667C8.86997 34.9167 10.37 35.4 12.5033 35.4H27.4867C29.62 35.4 31.12 34.9167 31.97 33.9667C32.82 33.0167 33.12 31.4666 32.87 29.35L31.37 16.85C31.02 13.9666 30.8033 12.0833 25.9866 12.0833H14.0033Z" fill="white"/>
<path d="M26.6693 14.5833C25.9859 14.5833 25.4193 14.0166 25.4193 13.3333V7.49998C25.4193 5.69998 24.3026 4.58331 22.5026 4.58331H17.5026C15.7026 4.58331 14.5859 5.69998 14.5859 7.49998V13.3333C14.5859 14.0166 14.0193 14.5833 13.3359 14.5833C12.6526 14.5833 12.0859 14.0166 12.0859 13.3333V7.49998C12.0859 4.31665 14.3193 2.08331 17.5026 2.08331H22.5026C25.6859 2.08331 27.9193 4.31665 27.9193 7.49998V13.3333C27.9193 14.0166 27.3526 14.5833 26.6693 14.5833Z" fill="white"/>
<path d="M34.0193 29.6334H13.3359C12.6526 29.6334 12.0859 29.0667 12.0859 28.3834C12.0859 27.7 12.6526 27.1334 13.3359 27.1334H34.0193C34.7026 27.1334 35.2693 27.7 35.2693 28.3834C35.2693 29.0667 34.7026 29.6334 34.0193 29.6334Z" fill="white"/>
</svg>
