<svg width="40" height="40" viewBox="0 0 40 40" fill="none" xmlns="http://www.w3.org/2000/svg">
<path d="M13.3359 9.58337C12.6526 9.58337 12.0859 9.01671 12.0859 8.33337V3.33337C12.0859 2.65004 12.6526 2.08337 13.3359 2.08337C14.0193 2.08337 14.5859 2.65004 14.5859 3.33337V8.33337C14.5859 9.01671 14.0193 9.58337 13.3359 9.58337Z" fill="white"/>
<path d="M26.6641 9.58337C25.9807 9.58337 25.4141 9.01671 25.4141 8.33337V3.33337C25.4141 2.65004 25.9807 2.08337 26.6641 2.08337C27.3474 2.08337 27.9141 2.65004 27.9141 3.33337V8.33337C27.9141 9.01671 27.3474 9.58337 26.6641 9.58337Z" fill="white"/>
<path d="M14.1667 24.1666C13.95 24.1666 13.7333 24.1166 13.5333 24.0333C13.3167 23.95 13.15 23.8333 12.9833 23.6833C12.6833 23.3666 12.5 22.9499 12.5 22.4999C12.5 22.2833 12.55 22.0666 12.6333 21.8666C12.7167 21.6666 12.8333 21.4833 12.9833 21.3166C13.15 21.1666 13.3167 21.0499 13.5333 20.9666C14.1333 20.7166 14.8833 20.85 15.35 21.3166C15.65 21.6333 15.8333 22.0666 15.8333 22.4999C15.8333 22.5999 15.8167 22.7166 15.8 22.8333C15.7833 22.9333 15.75 23.0333 15.7 23.1333C15.6667 23.2333 15.6167 23.3333 15.55 23.4333C15.5 23.5166 15.4167 23.5999 15.35 23.6833C15.0333 23.9833 14.6 24.1666 14.1667 24.1666Z" fill="white"/>
<path d="M20.0026 24.1667C19.7859 24.1667 19.5693 24.1167 19.3693 24.0334C19.1526 23.9501 18.9859 23.8334 18.8193 23.6834C18.5193 23.3667 18.3359 22.95 18.3359 22.5C18.3359 22.2834 18.3859 22.0667 18.4693 21.8667C18.5526 21.6667 18.6693 21.4834 18.8193 21.3167C18.9859 21.1667 19.1526 21.05 19.3693 20.9667C19.9693 20.7 20.7193 20.85 21.1859 21.3167C21.4859 21.6334 21.6693 22.0667 21.6693 22.5C21.6693 22.6 21.6526 22.7167 21.6359 22.8334C21.6193 22.9334 21.5859 23.0334 21.5359 23.1334C21.5026 23.2334 21.4526 23.3334 21.3859 23.4334C21.3359 23.5167 21.2526 23.6 21.1859 23.6834C20.8693 23.9834 20.4359 24.1667 20.0026 24.1667Z" fill="white"/>
<path d="M25.8307 24.1667C25.6141 24.1667 25.3974 24.1167 25.1974 24.0334C24.9807 23.9501 24.8141 23.8334 24.6474 23.6834C24.5807 23.6 24.5141 23.5167 24.4474 23.4334C24.3807 23.3334 24.3307 23.2334 24.2974 23.1334C24.2474 23.0334 24.2141 22.9334 24.1974 22.8334C24.1807 22.7167 24.1641 22.6 24.1641 22.5C24.1641 22.0667 24.3474 21.6334 24.6474 21.3167C24.8141 21.1667 24.9807 21.05 25.1974 20.9667C25.8141 20.7 26.5474 20.85 27.0141 21.3167C27.3141 21.6334 27.4974 22.0667 27.4974 22.5C27.4974 22.6 27.4807 22.7167 27.4641 22.8334C27.4474 22.9334 27.4141 23.0334 27.3641 23.1334C27.3307 23.2334 27.2807 23.3334 27.2141 23.4334C27.1641 23.5167 27.0807 23.6 27.0141 23.6834C26.6974 23.9834 26.2641 24.1667 25.8307 24.1667Z" fill="white"/>
<path d="M14.1667 30C13.95 30 13.7333 29.95 13.5333 29.8667C13.3333 29.7833 13.15 29.6666 12.9833 29.5166C12.6833 29.2 12.5 28.7667 12.5 28.3333C12.5 28.1167 12.55 27.9 12.6333 27.7C12.7167 27.4833 12.8333 27.3 12.9833 27.15C13.6 26.5333 14.7333 26.5333 15.35 27.15C15.65 27.4667 15.8333 27.9 15.8333 28.3333C15.8333 28.7667 15.65 29.2 15.35 29.5166C15.0333 29.8166 14.6 30 14.1667 30Z" fill="white"/>
<path d="M20.0026 30C19.5693 30 19.1359 29.8166 18.8193 29.5166C18.5193 29.2 18.3359 28.7667 18.3359 28.3333C18.3359 28.1167 18.3859 27.9 18.4693 27.7C18.5526 27.4833 18.6693 27.3 18.8193 27.15C19.4359 26.5333 20.5693 26.5333 21.1859 27.15C21.3359 27.3 21.4526 27.4833 21.5359 27.7C21.6193 27.9 21.6693 28.1167 21.6693 28.3333C21.6693 28.7667 21.4859 29.2 21.1859 29.5166C20.8693 29.8166 20.4359 30 20.0026 30Z" fill="white"/>
<path d="M25.8307 30.0001C25.3974 30.0001 24.9641 29.8168 24.6474 29.5168C24.4974 29.3668 24.3807 29.1834 24.2974 28.9668C24.2141 28.7668 24.1641 28.5501 24.1641 28.3334C24.1641 28.1168 24.2141 27.9001 24.2974 27.7001C24.3807 27.4834 24.4974 27.3001 24.6474 27.1501C25.0307 26.7668 25.6141 26.5834 26.1474 26.7001C26.2641 26.7167 26.3641 26.7501 26.4641 26.8001C26.5641 26.8334 26.6641 26.8835 26.7641 26.9501C26.8474 27.0001 26.9307 27.0834 27.0141 27.1501C27.3141 27.4668 27.4974 27.9001 27.4974 28.3334C27.4974 28.7668 27.3141 29.2001 27.0141 29.5168C26.6974 29.8168 26.2641 30.0001 25.8307 30.0001Z" fill="white"/>
<path d="M34.1693 16.3999H5.83594C5.1526 16.3999 4.58594 15.8332 4.58594 15.1499C4.58594 14.4666 5.1526 13.8999 5.83594 13.8999H34.1693C34.8526 13.8999 35.4193 14.4666 35.4193 15.1499C35.4193 15.8332 34.8526 16.3999 34.1693 16.3999Z" fill="white"/>
<path d="M26.6667 37.9167H13.3333C7.25 37.9167 3.75 34.4167 3.75 28.3334V14.1667C3.75 8.08337 7.25 4.58337 13.3333 4.58337H26.6667C32.75 4.58337 36.25 8.08337 36.25 14.1667V28.3334C36.25 34.4167 32.75 37.9167 26.6667 37.9167ZM13.3333 7.08337C8.56667 7.08337 6.25 9.40004 6.25 14.1667V28.3334C6.25 33.1 8.56667 35.4167 13.3333 35.4167H26.6667C31.4333 35.4167 33.75 33.1 33.75 28.3334V14.1667C33.75 9.40004 31.4333 7.08337 26.6667 7.08337H13.3333Z" fill="white"/>
</svg>
