<svg width="24" height="24" viewBox="0 0 24 24" fill="none" xmlns="http://www.w3.org/2000/svg">
<g clip-path="url(#clip0_149_9130)">
<path d="M18.7448 6.93495L17.7549 5.78332C16.9156 4.90174 15.9056 4.20017 14.7866 3.72129C13.6675 3.24241 12.4627 2.99623 11.2454 2.99775C6.27704 2.99775 2.24609 7.0287 2.24609 11.9971C2.24609 16.9654 6.27704 20.9964 11.2454 20.9964C13.1067 20.9963 14.9222 20.4193 16.442 19.3449C17.9619 18.2705 19.1114 16.7515 19.7324 14.9968" stroke="#6E6E6E" stroke-width="1.5" stroke-linecap="round" stroke-linejoin="round"/>
<path d="M22.6847 4.75215V9.9352C22.6847 10.1341 22.6057 10.3248 22.4651 10.4655C22.3244 10.6061 22.1337 10.6851 21.9348 10.6851H16.7517C16.0833 10.6851 15.7487 9.87755 16.2212 9.40508L21.4047 4.22157C21.8771 3.74817 22.6847 4.08377 22.6847 4.75215Z" stroke="#6E6E6E" stroke-width="1.5" stroke-linecap="round" stroke-linejoin="round"/>
</g>
<defs>
<clipPath id="clip0_149_9130">
<rect width="23.9982" height="23.9982" fill="white" transform="translate(0 0.000915527)"/>
</clipPath>
</defs>
</svg>
