<svg width="307" height="91" viewBox="0 0 307 91" fill="none" xmlns="http://www.w3.org/2000/svg">
<g clip-path="url(#clip0_512_1762)">
<circle cx="36.5" cy="45.5" r="36.5" fill="white"/>
<path fill-rule="evenodd" clip-rule="evenodd" d="M29.3317 25.9026C29.1519 26.6707 28.4792 27.0785 27.7019 26.8903C26.9505 26.7085 26.5243 26.0411 26.6921 25.3072C26.8634 24.5539 27.6197 24.0865 28.3647 24.274C29.0663 24.4503 29.5002 25.1813 29.3317 25.9026ZM55.0025 56.8568C53.4767 60.0272 50.9212 62.0756 47.7747 63.488C45.423 64.5443 42.947 65.2384 40.4801 65.9596C37.969 66.6941 35.4515 67.4161 33.1223 68.6452C31.4658 69.5196 29.9981 70.6228 28.8977 72.1633C28.824 72.2662 28.7228 72.3508 28.6204 72.4585C27.3578 69.2741 29.3044 63.2754 34.8497 61.6446C33.3842 60.2512 32.5331 58.5729 32.4488 56.57C32.366 54.5952 32.9804 52.8028 34.0717 51.096C34.5611 51.622 35.0371 52.1243 35.5035 52.6349C37.0842 54.365 38.8032 55.9461 40.7082 57.3123C41.9758 58.2223 43.3367 58.9815 44.8822 59.3452C47.3392 59.923 49.4578 59.0591 50.7914 56.9331C51.7555 55.3968 52.1726 53.7046 52.2681 51.9117C52.3875 49.6444 51.7373 47.5505 50.8398 45.5148C49.6418 42.7957 47.9881 40.3569 46.1448 38.0379C44.0402 35.3907 41.704 32.9646 39.0419 30.7513C39.4611 36.0323 39.8811 41.3139 40.3129 46.7454C41.5144 44.8817 42.6484 43.1231 43.8029 41.3321C43.9174 41.4315 44.0086 41.484 44.0628 41.563C45.7937 44.0871 47.3035 46.7237 48.1665 49.6814C48.4649 50.7042 48.6426 51.7493 48.4656 52.8162C48.1658 54.6161 46.8343 55.8614 44.7411 54.9841C43.0038 54.2566 41.5516 53.1051 40.1746 51.8592C36.0955 48.1696 32.6195 43.9436 29.2776 39.6014C29.0817 39.3461 28.8872 39.0887 28.574 38.8501C28.3177 41.167 28.0614 43.4847 27.7988 45.859C26.0235 45.1602 24.7533 44.0737 24.591 42.1744C24.3986 39.9204 25.487 38.2862 27.5565 37.1061C27.3816 36.885 27.1963 36.6772 27.0411 36.4485C25.3256 33.9209 23.7618 31.3095 22.5827 28.484C22.0118 27.1177 21.5491 25.7207 21.4009 24.239C21.3714 23.9423 21.3307 23.636 21.3792 23.3478C21.4072 23.1806 21.5708 22.9798 21.7275 22.8993C23.1923 22.1473 24.7723 21.9381 26.3951 21.9899C28.2742 22.0501 30.0823 22.4628 31.8611 23.0581C34.1216 23.8157 36.2695 24.8245 38.2736 26.0908C40.0552 27.2149 41.7728 28.4504 43.442 29.7348C45.4398 31.2717 47.2269 33.0486 48.8855 34.9458C51.3785 37.7966 53.5019 40.8858 54.8978 44.427C55.7071 46.4788 56.2534 48.595 56.2928 50.8133C56.331 52.9246 55.9235 54.9428 55.0025 56.8568ZM36.6418 11.4971C18.0268 11.5328 2.96499 26.5958 3.00006 45.1406C3.03594 63.686 18.1553 78.691 36.771 78.6553C55.3864 78.6196 70.4479 63.5573 70.4132 45.0119C70.3773 26.4671 55.2575 11.4615 36.6418 11.4971Z" fill="#CF301B"/>
<path fill-rule="evenodd" clip-rule="evenodd" d="M99.9853 31.0133V33.5207C105.838 34.9189 110.414 39.1321 110.414 45.4937C110.413 51.9709 105.836 55.9994 99.9853 57.5689V60.0378L96.6161 59.9874V57.5689C90.6314 56.3033 86.0002 51.9079 86 45.4937C86 38.775 90.7589 35.1879 96.6161 33.4198V30.9629L99.9853 31.0133ZM99.9853 54.2323C103.59 52.4132 106.751 50.0614 106.752 45.568C106.751 41.0755 103.573 38.6676 99.9853 36.7962V54.2323ZM96.6161 36.7179C92.9443 38.6179 89.6624 40.9429 89.6621 45.568C89.6622 50.1315 92.8428 52.5602 96.6161 54.2191V36.7179Z" fill="white"/>
<path d="M132.834 56.5792L128.916 56.5872L128.889 41.5947L115.547 56.493L115.503 33.2023L119.42 33.1943L119.448 47.0499L132.788 32.4793L132.834 56.5792Z" fill="white"/>
<path d="M286.243 57.0276L282.326 57.0356L282.299 42.0431L268.957 56.9414L268.913 33.6507L272.829 33.6427L272.857 47.4983L286.198 32.9277L286.243 57.0276Z" fill="white"/>
<path d="M165.874 56.4439L139.15 56.4943L139.106 33.4026L142.974 33.3946L143.014 53.0331L150.592 53.0198L150.552 33.3814L154.382 33.3747L154.422 53.0118L162 52.9986L161.96 33.3601L165.83 33.3535L165.874 56.4439Z" fill="white"/>
<path d="M185.897 36.8121L175.863 36.832L175.875 43.2928L182.69 43.2795L182.697 46.5537L175.881 46.5656L175.895 53.0278L185.928 53.0078L185.936 56.4678L172.191 56.4943L172.146 33.3787L185.89 33.3522L185.897 36.8121Z" fill="white"/>
<path d="M215.438 56.4877L211.722 56.4943L211.697 42.3867L203.823 50.2803L195.95 42.3867L195.922 56.4943L192.208 56.4877L192.252 32.9688L203.823 44.4019L215.395 32.9688L215.438 56.4877Z" fill="white"/>
<path fill-rule="evenodd" clip-rule="evenodd" d="M237.859 56.4638L234.041 56.4704L234.037 54.0864L234.033 52.7279L225.533 52.7452L225.54 56.4863L221.722 56.4943L221.708 49.8425C221.697 43.9896 223.553 39.9393 226.536 37.3295C229.285 34.9241 233.15 33.6069 237.814 33.3867L237.859 56.4638ZM232.155 38.1852C227.997 39.7768 226.015 43.2904 225.605 47.8007L225.47 49.2853L234.029 49.2693L234.004 37.4781L232.155 38.1852Z" fill="white"/>
<path d="M262.64 56.4598L258.696 56.4678L258.677 46.5497L248.102 46.5696L248.121 56.4863L244.178 56.4943L244.131 33.3867L248.076 33.3787L248.096 43.2994L258.67 43.2782L258.65 33.3601L262.594 33.3535L262.64 56.4598Z" fill="white"/>
<path fill-rule="evenodd" clip-rule="evenodd" d="M306.305 56.4638L302.697 56.4717L302.684 49.5479L301.32 49.5506C297.492 49.5569 294.934 52.6258 294.94 56.16V56.4863L291.332 56.4943V56.1679C291.326 52.8444 292.485 50.5558 294.415 49.134L295.979 47.9812L294.359 46.9092C292.66 45.7846 291.63 44.1193 291.504 41.8454L291.491 41.3811C291.483 37.1197 294.536 34.0227 298.999 33.5114C299.726 33.44 300.5 33.3651 303.525 33.3588L306.259 33.3522L306.305 56.4638ZM301.295 36.6357C299.864 36.6384 298.357 36.8924 297.165 37.6519C295.886 38.4669 295.094 39.7915 295.097 41.5628C295.101 43.3467 295.913 44.6381 297.225 45.3982C298.423 46.0916 299.925 46.2803 301.315 46.2777L302.678 46.2751L302.658 36.633L301.295 36.6357Z" fill="white"/>
</g>
<defs>
<clipPath id="clip0_512_1762">
<rect width="306.305" height="91" fill="white"/>
</clipPath>
</defs>
</svg>
