<svg width="274" height="80" viewBox="0 0 274 80" fill="none" xmlns="http://www.w3.org/2000/svg">
<g clip-path="url(#clip0_464_6099)">
<path fill-rule="evenodd" clip-rule="evenodd" d="M26.1638 20.4937C25.9852 21.2569 25.3168 21.6622 24.5445 21.4752C23.7978 21.2945 23.3743 20.6313 23.5411 19.9021C23.7113 19.1536 24.4628 18.6892 25.203 18.8755C25.9001 19.0507 26.3313 19.777 26.1638 20.4937ZM51.671 51.2506C50.1549 54.4008 47.6158 56.4361 44.4893 57.8396C42.1526 58.8891 39.6923 59.5788 37.2412 60.2953C34.7461 61.0252 32.2447 61.7426 29.9303 62.9639C28.2843 63.8327 26.826 64.9289 25.7327 66.4596C25.6594 66.5618 25.5589 66.6459 25.4571 66.7529C24.2025 63.5888 26.1367 57.6283 31.6467 56.0079C30.1905 54.6234 29.3449 52.9558 29.2611 50.9657C29.1788 49.0034 29.7893 47.2225 30.8736 45.5265C31.3599 46.0492 31.8329 46.5483 32.2963 47.0557C33.8669 48.7747 35.575 50.3457 37.4679 51.7032C38.7274 52.6075 40.0796 53.3617 41.6152 53.7231C44.0566 54.2973 46.1617 53.4388 47.4867 51.3265C48.4447 49.7999 48.8592 48.1185 48.9541 46.337C49.0726 44.0842 48.4266 42.0037 47.5348 39.9809C46.3445 37.2791 44.7014 34.8559 42.8698 32.5517C40.7786 29.9213 38.4573 27.5107 35.8121 25.3115C36.2287 30.5589 36.646 35.8068 37.0751 41.2037C38.2689 39.3518 39.3957 37.6044 40.5428 35.8249C40.6566 35.9237 40.7472 35.9758 40.801 36.0543C42.521 38.5623 44.0211 41.1821 44.8786 44.121C45.1751 45.1373 45.3516 46.1757 45.1758 47.2358C44.8779 49.0242 43.5549 50.2616 41.475 49.3899C39.7488 48.667 38.3058 47.5228 36.9377 46.2849C32.8845 42.6188 29.4307 38.4198 26.1101 34.1052C25.9154 33.8515 25.7222 33.5958 25.411 33.3587C25.1563 35.6608 24.9017 37.9637 24.6407 40.3229C22.8768 39.6286 21.6146 38.549 21.4534 36.6618C21.2622 34.4222 22.3437 32.7984 24.4 31.6258C24.2262 31.4062 24.0421 31.1997 23.8878 30.9724C22.1832 28.4609 20.6294 25.8662 19.4579 23.0586C18.8907 21.7011 18.4308 20.313 18.2836 18.8408C18.2543 18.546 18.2138 18.2415 18.262 17.9552C18.2898 17.7891 18.4525 17.5896 18.6081 17.5096C20.0636 16.7624 21.6335 16.5545 23.246 16.606C25.1131 16.6657 26.9097 17.0759 28.6771 17.6674C30.9232 18.4202 33.0575 19.4225 35.0488 20.6807C36.819 21.7977 38.5256 23.0253 40.1842 24.3015C42.1692 25.8286 43.945 27.5941 45.593 29.4793C48.0701 32.3119 50.18 35.3815 51.567 38.9001C52.3711 40.9388 52.914 43.0415 52.9531 45.2457C52.991 47.3435 52.5862 49.3488 51.671 51.2506ZM33.4274 6.18009C14.931 6.21554 -0.0347881 21.1825 6.07375e-05 39.6091C0.0357147 58.0363 15.0587 72.9456 33.5557 72.9101C52.0525 72.8747 67.018 57.9084 66.9835 39.4812C66.9478 21.0547 51.9244 6.14464 33.4274 6.18009Z" fill="#CF301B"/>
<path fill-rule="evenodd" clip-rule="evenodd" d="M92.2989 27.0884V29.2444C97.4525 30.4467 101.482 34.0694 101.482 39.5394C101.482 45.1088 97.4514 48.5727 92.2989 49.9222V52.0451L89.3321 52.0018V49.9222C84.062 48.834 79.9837 45.0546 79.9835 39.5394C79.9835 33.7623 84.1742 30.678 89.3321 29.1577V27.0451L92.2989 27.0884ZM92.2989 47.0533C95.4732 45.4891 98.2572 43.467 98.2573 39.6033C98.2571 35.7404 95.4581 33.67 92.2989 32.0608V47.0533ZM89.3321 31.9935C86.0987 33.6272 83.2086 35.6264 83.2084 39.6033C83.2085 43.5272 86.0093 45.6155 89.3321 47.0419V31.9935Z" fill="#323232"/>
<path d="M121.225 49.0712L117.775 49.0781L117.752 36.1868L106.003 48.9971L105.964 28.9706L109.413 28.9638L109.438 40.8775L121.185 28.3489L121.225 49.0712Z" fill="#323232"/>
<path d="M256.318 49.4568L252.868 49.4637L252.844 36.5724L241.095 49.3827L241.057 29.3562L244.505 29.3493L244.53 41.263L256.278 28.7345L256.318 49.4568Z" fill="#323232"/>
<path d="M150.32 48.9549L126.787 48.9982L126.749 29.1429L130.155 29.136L130.19 46.0221L136.863 46.0107L136.828 29.1246L140.2 29.1189L140.235 46.0038L146.909 45.9924L146.874 29.1064L150.282 29.1007L150.32 48.9549Z" fill="#323232"/>
<path d="M167.953 32.0745L159.117 32.0916L159.127 37.6469L165.129 37.6355L165.135 40.4508L159.133 40.4611L159.145 46.0175L167.98 46.0004L167.987 48.9754L155.884 48.9982L155.844 29.1223L167.947 29.0995L167.953 32.0745Z" fill="#323232"/>
<path d="M193.966 48.9925L190.694 48.9982L190.672 36.8678L183.738 43.6551L176.805 36.8678L176.781 48.9982L173.51 48.9925L173.549 28.7699L183.738 38.6006L193.929 28.7699L193.966 48.9925Z" fill="#323232"/>
<path fill-rule="evenodd" clip-rule="evenodd" d="M213.71 48.972L210.348 48.9777L210.345 46.9278L210.341 45.7597L202.856 45.7746L202.862 48.9914L199.5 48.9982L199.488 43.2787C199.478 38.2461 201.112 34.7635 203.739 32.5194C206.161 30.4511 209.564 29.3186 213.671 29.1292L213.71 48.972ZM208.688 33.2552C205.026 34.6237 203.281 37.6449 202.92 41.5231L202.801 42.7996L210.338 42.7859L210.316 32.6472L208.688 33.2552Z" fill="#323232"/>
<path d="M235.533 48.9686L232.059 48.9754L232.043 40.4474L222.731 40.4645L222.747 48.9914L219.275 48.9982L219.234 29.1292L222.707 29.1223L222.725 37.6526L232.037 37.6344L232.019 29.1064L235.492 29.1007L235.533 48.9686Z" fill="#323232"/>
<path fill-rule="evenodd" clip-rule="evenodd" d="M273.984 48.972L270.807 48.9788L270.795 43.0254L269.594 43.0277C266.223 43.0331 263.97 45.6719 263.976 48.7108V48.9914L260.799 48.9982V48.7176C260.794 45.8598 261.814 43.892 263.514 42.6695L264.891 41.6782L263.465 40.7565C261.968 39.7895 261.061 38.3576 260.95 36.4024L260.939 36.0032C260.932 32.339 263.62 29.6761 267.55 29.2364C268.19 29.175 268.872 29.1107 271.536 29.1052L273.944 29.0995L273.984 48.972ZM269.572 31.9228C268.312 31.9252 266.985 32.1436 265.935 32.7966C264.809 33.4974 264.111 34.6364 264.114 36.1594C264.118 37.6933 264.832 38.8037 265.988 39.4573C267.043 40.0535 268.366 40.2157 269.59 40.2136L270.79 40.2113L270.773 31.9205L269.572 31.9228Z" fill="#323232"/>
</g>
<defs>
<clipPath id="clip0_464_6099">
<rect width="273.984" height="79" fill="white" transform="translate(0 0.0450974)"/>
</clipPath>
</defs>
</svg>
