<svg width="117" height="96" viewBox="0 0 117 96" fill="none" xmlns="http://www.w3.org/2000/svg">
<path d="M74 -26C114.869 -26 148 7.13093 148 48C148 88.8691 114.869 122 74 122C33.1309 122 0 88.8691 0 48C0 7.13093 33.1309 -26 74 -26ZM97.5391 49.5918C92.6468 49.5918 88.5691 50.9615 85.3076 53.7012C82.1116 56.4408 80.5137 60.8116 80.5137 66.8125C80.5137 72.8131 82.1117 77.1832 85.3076 79.9229C88.5691 82.6625 92.6468 84.0332 97.5391 84.0332C102.431 84.0331 106.475 82.6624 109.671 79.9229C112.867 77.1833 114.466 72.8134 114.466 66.8125C114.466 60.8114 112.867 56.4408 109.671 53.7012C106.475 50.9617 102.431 49.5919 97.5391 49.5918ZM94.1143 13.7803L49.1055 83.25H58.8896L103.898 13.7803H94.1143ZM97.5391 58.0059C99.2348 58.006 100.507 58.7243 101.354 60.1592C102.202 61.529 102.627 63.7469 102.627 66.8125C102.627 69.8781 102.202 72.1285 101.354 73.5635C100.507 74.9331 99.2348 75.618 97.5391 75.6182C95.9083 75.6182 94.6359 74.9333 93.7227 73.5635C92.8747 72.1285 92.4512 69.8781 92.4512 66.8125C92.4512 63.747 92.8748 61.529 93.7227 60.1592C94.6359 58.7241 95.9083 58.0059 97.5391 58.0059ZM55.4658 12.998C50.5736 12.998 46.4968 14.3678 43.2354 17.1074C40.0391 19.8471 38.4404 24.2176 38.4404 30.2188C38.4405 36.2197 40.0392 40.5895 43.2354 43.3291C46.4968 46.0687 50.5736 47.4385 55.4658 47.4385C60.3579 47.4384 64.4024 46.0687 67.5986 43.3291C70.7945 40.5895 72.3925 36.2194 72.3926 30.2188C72.3926 24.2179 70.7946 19.8471 67.5986 17.1074C64.4024 14.3678 60.3579 12.9981 55.4658 12.998ZM55.4658 21.4121C57.1615 21.4122 58.4333 22.1298 59.2812 23.5645C60.1292 24.9343 60.5537 27.153 60.5537 30.2188C60.5537 33.2843 60.1292 35.5347 59.2812 36.9697C58.4333 38.3393 57.1616 39.0243 55.4658 39.0244C53.8351 39.0244 52.5626 38.3395 51.6494 36.9697C50.8015 35.5347 50.378 33.2843 50.3779 30.2188C50.3779 27.153 50.8014 24.9343 51.6494 23.5645C52.5626 22.1296 53.8352 21.4121 55.4658 21.4121Z" fill="#009FFF"/>
</svg>
