<svg width="20" height="20" viewBox="0 0 20 20" fill="none" xmlns="http://www.w3.org/2000/svg">
<path d="M2.64062 6.19995L9.99895 10.4583L17.3073 6.22492" stroke="white" stroke-width="1.5" stroke-linecap="round" stroke-linejoin="round"/>
<path d="M10 18.0083V10.45" stroke="white" stroke-width="1.5" stroke-linecap="round" stroke-linejoin="round"/>
<path d="M8.2755 2.06663L3.82551 4.54165C2.81717 5.09999 1.99219 6.49997 1.99219 7.64997V12.3583C1.99219 13.5083 2.81717 14.9083 3.82551 15.4666L8.2755 17.9417C9.2255 18.4667 10.7838 18.4667 11.7338 17.9417L16.1839 15.4666C17.1922 14.9083 18.0172 13.5083 18.0172 12.3583V7.64997C18.0172 6.49997 17.1922 5.09999 16.1839 4.54165L11.7338 2.06663C10.7755 1.53329 9.2255 1.53329 8.2755 2.06663Z" stroke="white" stroke-width="1.5" stroke-linecap="round" stroke-linejoin="round"/>
<path d="M14.1661 11.0333V7.98333L6.25781 3.41663" stroke="white" stroke-width="1.5" stroke-linecap="round" stroke-linejoin="round"/>
</svg>
