<svg width="61" height="60" viewBox="0 0 61 60" fill="none" xmlns="http://www.w3.org/2000/svg">
<path d="M37.832 5V30C37.832 32.75 35.582 35 32.832 35H5.33203V19.05C7.15703 21.225 9.9571 22.575 13.0571 22.5C15.5821 22.45 17.857 21.475 19.557 19.85C20.332 19.2 20.9821 18.375 21.4821 17.475C22.3821 15.95 22.882 14.1499 22.832 12.2749C22.757 9.34993 21.4571 6.775 19.4321 5H37.832Z" stroke="#009FFF" stroke-width="1.5" stroke-linecap="round" stroke-linejoin="round"/>
<path d="M55.332 35V42.5C55.332 46.65 51.982 50 47.832 50H45.332C45.332 47.25 43.082 45 40.332 45C37.582 45 35.332 47.25 35.332 50H25.332C25.332 47.25 23.082 45 20.332 45C17.582 45 15.332 47.25 15.332 50H12.832C8.68203 50 5.33203 46.65 5.33203 42.5V35H32.832C35.582 35 37.832 32.75 37.832 30V12.5H42.4321C44.2321 12.5 45.8821 13.475 46.7821 15.025L51.057 22.5H47.832C46.457 22.5 45.332 23.625 45.332 25V32.5C45.332 33.875 46.457 35 47.832 35H55.332Z" stroke="#009FFF" stroke-width="1.5" stroke-linecap="round" stroke-linejoin="round"/>
<path d="M20.332 55C23.0935 55 25.332 52.7614 25.332 50C25.332 47.2386 23.0935 45 20.332 45C17.5706 45 15.332 47.2386 15.332 50C15.332 52.7614 17.5706 55 20.332 55Z" stroke="#009FFF" stroke-width="1.5" stroke-linecap="round" stroke-linejoin="round"/>
<path d="M40.332 55C43.0935 55 45.332 52.7614 45.332 50C45.332 47.2386 43.0935 45 40.332 45C37.5706 45 35.332 47.2386 35.332 50C35.332 52.7614 37.5706 55 40.332 55Z" stroke="#009FFF" stroke-width="1.5" stroke-linecap="round" stroke-linejoin="round"/>
<path d="M55.332 30V35H47.832C46.457 35 45.332 33.875 45.332 32.5V25C45.332 23.625 46.457 22.5 47.832 22.5H51.057L55.332 30Z" stroke="#009FFF" stroke-width="1.5" stroke-linecap="round" stroke-linejoin="round"/>
<path d="M22.831 12.275C22.881 14.15 22.3811 15.95 21.4811 17.475C20.9811 18.375 20.331 19.2001 19.556 19.8501C17.856 21.4751 15.5811 22.4501 13.0561 22.5001C9.95606 22.5751 7.156 21.225 5.331 19.05C4.981 18.675 4.68101 18.2501 4.40601 17.8251C3.43101 16.3501 2.881 14.6001 2.831 12.7251C2.756 9.57512 4.15598 6.70003 6.40598 4.82503C8.10598 3.42503 10.2559 2.55005 12.6059 2.50005C15.2309 2.45005 17.631 3.40005 19.431 5.00005C21.456 6.77505 22.756 9.34998 22.831 12.275Z" stroke="#009FFF" stroke-width="1.5" stroke-miterlimit="10" stroke-linecap="round" stroke-linejoin="round"/>
<path d="M8.92969 12.5751L11.4547 14.975L16.6796 9.92493" stroke="#009FFF" stroke-width="1.5" stroke-linecap="round" stroke-linejoin="round"/>
</svg>
