<svg width="60" height="60" viewBox="0 0 60 60" fill="none" xmlns="http://www.w3.org/2000/svg">
<path d="M10.426 38.2501L21.751 49.5751C26.401 54.2251 33.951 54.2251 38.626 49.5751L49.601 38.6001C54.251 33.9501 54.251 26.4001 49.601 21.7251L38.251 10.4251C35.876 8.05012 32.601 6.77512 29.251 6.95012L16.751 7.55012C11.751 7.77512 7.77595 11.7501 7.52595 16.7251L6.92595 29.2251C6.77595 32.6001 8.05095 35.8751 10.426 38.2501Z" stroke="#009FFF" stroke-width="1.5" stroke-linecap="round" stroke-linejoin="round"/>
<path d="M23.75 30.0001C27.2018 30.0001 30 27.2019 30 23.7501C30 20.2983 27.2018 17.5001 23.75 17.5001C20.2982 17.5001 17.5 20.2983 17.5 23.7501C17.5 27.2019 20.2982 30.0001 23.75 30.0001Z" stroke="#009FFF" stroke-width="1.5" stroke-linecap="round"/>
</svg>
