<svg width="61" height="60" viewBox="0 0 61 60" fill="none" xmlns="http://www.w3.org/2000/svg">
<path d="M8.58984 18.6L30.6648 31.3749L52.5898 18.6749" stroke="#009FFF" stroke-width="1.5" stroke-linecap="round" stroke-linejoin="round"/>
<path d="M30.6641 54.0249V31.3499" stroke="#009FFF" stroke-width="1.5" stroke-linecap="round" stroke-linejoin="round"/>
<path d="M54.6906 32.0751V22.925C54.6906 19.475 52.2156 15.2751 49.1906 13.6001L35.8406 6.2C32.9906 4.6 28.3406 4.6 25.4906 6.2L12.1406 13.6001C9.11558 15.2751 6.64062 19.475 6.64062 22.925V37.0751C6.64062 40.5251 9.11558 44.725 12.1406 46.4L25.4906 53.8001C26.9156 54.6001 28.7906 55 30.6656 55C32.5406 55 34.4156 54.6001 35.8406 53.8001" stroke="#009FFF" stroke-width="1.5" stroke-linecap="round" stroke-linejoin="round"/>
<path d="M48.668 53.5001C53.0863 53.5001 56.668 49.9183 56.668 45.5C56.668 41.0818 53.0863 37.5 48.668 37.5C44.2497 37.5 40.668 41.0818 40.668 45.5C40.668 49.9183 44.2497 53.5001 48.668 53.5001Z" stroke="#009FFF" stroke-width="1.5" stroke-linecap="round" stroke-linejoin="round"/>
<path d="M58.168 55L55.668 52.5" stroke="#009FFF" stroke-width="1.5" stroke-linecap="round" stroke-linejoin="round"/>
</svg>
