<svg width="21" height="19" viewBox="0 0 21 19" fill="none" xmlns="http://www.w3.org/2000/svg">
<path d="M8.74726 1.18917C9.50695 -0.193115 11.493 -0.193117 12.2527 1.18917L13.8531 4.1011C14.1483 4.63823 14.6735 5.01035 15.2781 5.11078L18.5226 5.64969C20.1334 5.91726 20.762 7.89807 19.6003 9.04556L17.4049 11.2141C16.9505 11.6629 16.7378 12.3017 16.8324 12.9333L17.2925 16.0047C17.5294 17.5861 15.9068 18.7922 14.4609 18.1097L11.3537 16.643C10.8132 16.3878 10.1868 16.3878 9.64626 16.643L6.53914 18.1097C5.09319 18.7922 3.47059 17.5861 3.70747 16.0047L4.16758 12.9333C4.26219 12.3017 4.04948 11.6629 3.59512 11.2141L1.39969 9.04556C0.237975 7.89807 0.866635 5.91726 2.47745 5.64969L5.72188 5.11078C6.3265 5.01035 6.85169 4.63823 7.1469 4.1011L8.74726 1.18917Z" fill="#FFB700"/>
</svg>
